SplineFontDB: 3.0
FontName: PassionOne-Black
FullName: Passion One Black
FamilyName: Passion One
Weight: Black
Copyright: Copyright (c) 2011 Fontstage (info@fontstage.com), with Reserved Font Name "Passion"
Version: 001.001
ItalicAngle: 0
UnderlinePosition: -50
UnderlineWidth: 50
Ascent: 800
Descent: 200
sfntRevision: 0x00010042
LayerCount: 2
Layer: 0 1 "Back"  1
Layer: 1 1 "Fore"  0
XUID: [1021 288 713564382 9175844]
FSType: 0
OS2Version: 2
OS2_WeightWidthSlopeOnly: 0
OS2_UseTypoMetrics: 1
CreationTime: 1323105134
ModificationTime: 1323135859
PfmFamily: 17
TTFWeight: 900
TTFWidth: 5
LineGap: 0
VLineGap: 0
Panose: 2 0 5 3 8 0 0 2 0 4
OS2TypoAscent: 35
OS2TypoAOffset: 1
OS2TypoDescent: -66
OS2TypoDOffset: 1
OS2TypoLinegap: 0
OS2WinAscent: 45
OS2WinAOffset: 1
OS2WinDescent: 40
OS2WinDOffset: 1
HheadAscent: 45
HheadAOffset: 1
HheadDescent: -40
HheadDOffset: 1
OS2SubXSize: 700
OS2SubYSize: 650
OS2SubXOff: 0
OS2SubYOff: 140
OS2SupXSize: 700
OS2SupYSize: 650
OS2SupXOff: 0
OS2SupYOff: 477
OS2StrikeYSize: 50
OS2StrikeYPos: 250
OS2Vendor: 'PYRS'
OS2CodePages: 20000001.00000000
OS2UnicodeRanges: 800000ef.4000204a.00000000.00000000
MarkAttachClasses: 1
DEI: 91125
TtTable: prep
PUSHW_1
 511
SCANCTRL
PUSHB_1
 4
SCANTYPE
EndTTInstrs
LangName: 1033 "" "" "" "Fontstage: Passion One Black: 2011" "PassionOne-Black" "Version 1.001" "" "Passion is a trademark of Fontstage." "Fontstage" "Alejandro Lo Celso" "" "www.fontstage.com" "www.fontstage.com" "This Font Software is licensed under the SIL Open Font License, Version 1.1. This license is available with a FAQ at: http://scripts.sil.org/OFL" "http://scripts.sil.org/OFL" 
GaspTable: 1 65535 15
Encoding: UnicodeBmp
UnicodeInterp: none
NameList: Adobe Glyph List
DisplaySize: -36
AntiAlias: 1
FitToEm: 1
WinInfo: 34 34 12
BeginPrivate: 8
BlueValues 23 [-10 0 479 491 621 630]
OtherBlues 11 [-147 -137]
BlueScale 8 0.045455
StdHW 5 [168]
StdVW 5 [190]
StemSnapH 9 [134 168]
StemSnapV 8 [32 190]
ForceBold 4 true
EndPrivate

StartChar: A
Encoding: 65 65 1
Width: 665
Flags: HMW
HStem: 0 21G<-8 272 -8 -8 383 673 383 383> 601 20G<113 552 552 552>
VStem: 313 32<228 352 228 352>
LayerCount: 2
Fore
SplineSet
673 0 m 1,0,-1
 383 0 l 1,1,-1
 367 95 l 1,2,-1
 289 95 l 1,3,-1
 272 0 l 1,4,-1
 -8 0 l 1,5,-1
 113 621 l 1,6,-1
 552 621 l 1,7,-1
 673 0 l 1,0,-1
345 228 m 1,8,-1
 345 352 l 1,9,-1
 313 352 l 1,10,-1
 313 228 l 1,11,-1
 345 228 l 1,8,-1
EndSplineSet
EndChar

StartChar: B
Encoding: 66 66 2
Width: 631
Flags: HMW
HStem: 0 21G<20 402 20 20> 601 20G<20 398 398 470>
LayerCount: 2
Fore
SplineSet
627 183 m 0,0,1
 627 93 627 93 575 46.5 c 128,-1,2
 523 0 523 0 402 0 c 2,3,-1
 20 0 l 1,4,-1
 20 621 l 1,5,-1
 398 621 l 2,6,7
 615 621 615 621 615 457 c 0,8,9
 615 406 615 406 602.5 378 c 128,-1,10
 590 350 590 350 555 330 c 1,11,-1
 555 326 l 1,12,13
 627 298 627 298 627 183 c 0,0,1
332 127 m 1,14,-1
 332 250 l 1,15,-1
 300 250 l 1,16,-1
 300 127 l 1,17,-1
 332 127 l 1,14,-1
332 364 m 1,18,-1
 332 468 l 1,19,-1
 300 468 l 1,20,-1
 300 364 l 1,21,-1
 332 364 l 1,18,-1
EndSplineSet
EndChar

StartChar: C
Encoding: 67 67 3
Width: 468
Flags: HMW
HStem: -10 21G<219 342.5> 610 20G<229 358>
LayerCount: 2
Fore
SplineSet
349.5 234 m 128,-1,1
 361 219 361 219 382 219 c 128,-1,2
 403 219 403 219 445 227 c 1,3,-1
 460 0 l 1,4,5
 388 -10 388 -10 325 -10 c 0,6,7
 163 -10 163 -10 84.5 66.5 c 128,-1,8
 6 143 6 143 6 314.5 c 128,-1,9
 6 486 6 486 87 558 c 128,-1,10
 168 630 168 630 341 630 c 0,11,12
 385 630 385 630 460 620 c 1,13,-1
 443 381 l 1,14,15
 403 386 403 386 381.5 386 c 128,-1,16
 360 386 360 386 349 372 c 128,-1,17
 338 358 338 358 338 303.5 c 128,-1,0
 338 249 338 249 349.5 234 c 128,-1,1
EndSplineSet
EndChar

StartChar: D
Encoding: 68 68 4
Width: 637
Flags: HMW
HStem: 0 21G<20 289 20 20> 601 20G<20 295 295 423.5>
LayerCount: 2
Fore
SplineSet
631 324 m 0,0,1
 631 0 631 0 289 0 c 2,2,-1
 20 0 l 1,3,-1
 20 621 l 1,4,-1
 295 621 l 2,5,6
 478 621 478 621 554.5 544.5 c 128,-1,7
 631 468 631 468 631 324 c 0,0,1
326 157 m 1,8,-1
 326 435 l 1,9,-1
 294 435 l 1,10,-1
 294 157 l 1,11,-1
 326 157 l 1,8,-1
EndSplineSet
EndChar

StartChar: E
Encoding: 69 69 5
Width: 489
Flags: HMW
HStem: 0 179<302 470> 215 166<302 460 302 470> 601 20G<20 489 489 489>
LayerCount: 2
Fore
SplineSet
470 0 m 1,0,-1
 20 0 l 1,1,-1
 20 621 l 1,2,-1
 489 621 l 1,3,-1
 474 417 l 1,4,-1
 302 417 l 1,5,-1
 302 381 l 1,6,-1
 470 381 l 1,7,-1
 460 215 l 1,8,-1
 302 215 l 1,9,-1
 302 179 l 1,10,-1
 485 179 l 1,11,-1
 470 0 l 1,0,-1
EndSplineSet
EndChar

StartChar: F
Encoding: 70 70 6
Width: 478
Flags: HMW
HStem: 0 21G<20 302 20 20> 601 20G<20 478 478 478>
LayerCount: 2
Fore
SplineSet
302 220 m 1,0,-1
 302 0 l 1,1,-1
 20 0 l 1,2,-1
 20 621 l 1,3,-1
 478 621 l 1,4,-1
 463 417 l 1,5,-1
 302 417 l 1,6,-1
 302 381 l 1,7,-1
 460 381 l 1,8,-1
 450 220 l 1,9,-1
 302 220 l 1,0,-1
EndSplineSet
EndChar

StartChar: G
Encoding: 71 71 7
Width: 613
Flags: HMW
HStem: -10 21G<171.5 288.5> 0 21G<409 603 409 409> 610 20G<214.5 381.5>
LayerCount: 2
Fore
SplineSet
556 392 m 1,0,1
 367 410 367 410 350.5 410 c 128,-1,2
 334 410 334 410 329.5 405 c 128,-1,3
 325 400 325 400 325 383 c 2,4,-1
 325 157 l 1,5,-1
 357 157 l 1,6,-1
 357 338 l 1,7,-1
 603 338 l 1,8,-1
 603 0 l 1,9,-1
 409 0 l 1,10,-1
 399 26 l 1,11,-1
 395 26 l 1,12,13
 343 -10 343 -10 259 -10 c 0,14,15
 6 -10 6 -10 6 313 c 0,16,17
 6 473 6 473 82.5 551.5 c 128,-1,18
 159 630 159 630 337 630 c 0,19,20
 440 630 440 630 582 606 c 1,21,-1
 556 392 l 1,0,1
EndSplineSet
EndChar

StartChar: H
Encoding: 72 72 8
Width: 640
Flags: HMW
HStem: 0 21G<20 304 20 20 336 620 336 336> 601 20G<20 304 304 304 336 620 620 620>
LayerCount: 2
Fore
SplineSet
620 0 m 1,0,-1
 336 0 l 1,1,-1
 336 218 l 1,2,-1
 304 218 l 1,3,-1
 304 0 l 1,4,-1
 20 0 l 1,5,-1
 20 621 l 1,6,-1
 304 621 l 1,7,-1
 304 390 l 1,8,-1
 336 390 l 1,9,-1
 336 621 l 1,10,-1
 620 621 l 1,11,-1
 620 0 l 1,0,-1
EndSplineSet
EndChar

StartChar: I
Encoding: 73 73 9
Width: 322
Flags: HMW
HStem: 0 21G<20 302 20 20> 601 20G<20 302 302 302>
LayerCount: 2
Fore
SplineSet
302 0 m 1,0,-1
 20 0 l 1,1,-1
 20 621 l 1,2,-1
 302 621 l 1,3,-1
 302 0 l 1,0,-1
EndSplineSet
EndChar

StartChar: J
Encoding: 74 74 10
Width: 353
Flags: HMW
HStem: -10 21G<11 179 11 11> 601 20G<51 333 333 333>
LayerCount: 2
Fore
SplineSet
333 621 m 1,0,-1
 333 131 l 2,1,2
 333 53 333 53 302 21.5 c 128,-1,3
 271 -10 271 -10 179 -10 c 2,4,-1
 11 -10 l 1,5,-1
 0 171 l 1,6,-1
 51 171 l 1,7,-1
 51 621 l 1,8,-1
 333 621 l 1,0,-1
EndSplineSet
EndChar

StartChar: K
Encoding: 75 75 11
Width: 661
Flags: HMW
HStem: 0 21G<35 317 35 35 368 659 368 368> 601 20G<35 317 317 317 379 661 661 661>
LayerCount: 2
Fore
SplineSet
659 0 m 1,0,-1
 368 0 l 1,1,-1
 327 216 l 1,2,-1
 317 216 l 1,3,-1
 317 0 l 1,4,-1
 35 0 l 1,5,-1
 35 621 l 1,6,-1
 317 621 l 1,7,-1
 317 369 l 1,8,-1
 327 369 l 1,9,-1
 379 621 l 1,10,-1
 661 621 l 1,11,-1
 593 309 l 1,12,-1
 659 0 l 1,0,-1
EndSplineSet
EndChar

StartChar: L
Encoding: 76 76 12
Width: 406
Flags: HMW
HStem: 0 199<302 392> 601 20G<20 302 302 302>
LayerCount: 2
Fore
SplineSet
392 0 m 1,0,-1
 20 0 l 1,1,-1
 20 621 l 1,2,-1
 302 621 l 1,3,-1
 302 199 l 1,4,-1
 406 199 l 1,5,-1
 392 0 l 1,0,-1
EndSplineSet
EndChar

StartChar: M
Encoding: 77 77 13
Width: 817
Flags: HMW
HStem: 0 21G<20 251 20 20 293 522 293 293 566 807 566 566> 601 20G<46 374 374 374 445 781 781 781>
LayerCount: 2
Fore
SplineSet
807 0 m 1,0,-1
 566 0 l 1,1,-1
 557 249 l 1,2,-1
 548 249 l 1,3,-1
 522 0 l 1,4,-1
 293 0 l 1,5,-1
 270 249 l 1,6,-1
 262 249 l 1,7,-1
 251 0 l 1,8,-1
 20 0 l 1,9,-1
 46 621 l 1,10,-1
 374 621 l 1,11,-1
 405 395 l 1,12,-1
 419 395 l 1,13,-1
 445 621 l 1,14,-1
 781 621 l 1,15,-1
 807 0 l 1,0,-1
EndSplineSet
EndChar

StartChar: N
Encoding: 78 78 14
Width: 652
Flags: HMW
HStem: 0 21G<20 263 20 20 376 632 376 376> 601 20G<20 283 283 283 387 632 632 632>
LayerCount: 2
Fore
SplineSet
632 0 m 1,0,-1
 376 0 l 1,1,-1
 263 199 l 1,2,-1
 263 0 l 1,3,-1
 20 0 l 1,4,-1
 20 621 l 1,5,-1
 283 621 l 1,6,-1
 387 420 l 1,7,-1
 387 621 l 1,8,-1
 632 621 l 1,9,-1
 632 0 l 1,0,-1
EndSplineSet
EndChar

StartChar: O
Encoding: 79 79 15
Width: 670
Flags: HMW
HStem: -10 21G<214.5 451> 610 20G<218 455.5>
LayerCount: 2
Fore
SplineSet
82.5 555.5 m 128,-1,1
 159 630 159 630 336 630 c 128,-1,2
 513 630 513 630 588.5 556.5 c 128,-1,3
 664 483 664 483 664 316.5 c 128,-1,4
 664 150 664 150 586 70 c 128,-1,5
 508 -10 508 -10 333.5 -10 c 128,-1,6
 159 -10 159 -10 82.5 69 c 128,-1,7
 6 148 6 148 6 314.5 c 128,-1,0
 6 481 6 481 82.5 555.5 c 128,-1,1
357 157 m 1,8,-1
 357 435 l 1,9,-1
 325 435 l 1,10,-1
 325 157 l 1,11,-1
 357 157 l 1,8,-1
EndSplineSet
EndChar

StartChar: P
Encoding: 80 80 16
Width: 594
Flags: HMW
HStem: 0 21G<20 302 20 20> 601 20G<20 319 319 414>
LayerCount: 2
Fore
SplineSet
331 173 m 2,0,-1
 302 173 l 1,1,-1
 302 0 l 1,2,-1
 20 0 l 1,3,-1
 20 621 l 1,4,-1
 319 621 l 2,5,6
 461 621 461 621 527.5 566 c 128,-1,7
 594 511 594 511 594 395 c 128,-1,8
 594 279 594 279 530 226 c 128,-1,9
 466 173 466 173 331 173 c 2,0,-1
330 318 m 1,10,-1
 330 442 l 1,11,-1
 298 442 l 1,12,-1
 298 318 l 1,13,-1
 330 318 l 1,10,-1
EndSplineSet
EndChar

StartChar: Q
Encoding: 81 81 17
Width: 670
Flags: HMW
HStem: -108 155<518 539 539 634> -10 21G<208.5 307> 610 20G<218 455.5>
LayerCount: 2
Fore
SplineSet
82.5 555.5 m 128,-1,1
 159 630 159 630 336 630 c 128,-1,2
 513 630 513 630 588.5 556.5 c 128,-1,3
 664 483 664 483 664 320 c 0,4,5
 664 120 664 120 518 51 c 1,6,-1
 518 47 l 1,7,-1
 653 47 l 1,8,-1
 634 -108 l 1,9,-1
 539 -108 l 2,10,11
 422 -108 422 -108 372 -65 c 2,12,-1
 307 -10 l 1,13,14
 159 -10 159 -10 82.5 72 c 128,-1,15
 6 154 6 154 6 317.5 c 128,-1,0
 6 481 6 481 82.5 555.5 c 128,-1,1
357 157 m 1,16,-1
 357 435 l 1,17,-1
 325 435 l 1,18,-1
 325 157 l 1,19,-1
 357 157 l 1,16,-1
EndSplineSet
EndChar

StartChar: R
Encoding: 82 82 18
Width: 623
Flags: HMW
HStem: 0 21G<20 302 20 20 356 628 356 356> 601 20G<20 350 350 440>
LayerCount: 2
Fore
SplineSet
546 572 m 128,-1,1
 608 523 608 523 608 421.5 c 128,-1,2
 608 320 608 320 545 264 c 1,3,-1
 628 0 l 1,4,-1
 356 0 l 1,5,-1
 320 193 l 1,6,-1
 302 193 l 1,7,-1
 302 0 l 1,8,-1
 20 0 l 1,9,-1
 20 621 l 1,10,-1
 350 621 l 2,11,0
 484 621 484 621 546 572 c 128,-1,1
330 340 m 1,12,-1
 330 442 l 1,13,-1
 298 442 l 1,14,-1
 298 340 l 1,15,-1
 330 340 l 1,12,-1
EndSplineSet
EndChar

StartChar: S
Encoding: 83 83 19
Width: 529
Flags: HMW
HStem: -10 21G<212.5 353.5> 610 20G<173.5 306.5>
LayerCount: 2
Fore
SplineSet
529 204.5 m 0,0,1
 529 -10 529 -10 271.5 -10 c 0,2,3
 145 -10 145 -10 19 20 c 1,4,-1
 27 202 l 1,5,-1
 257 158 l 1,6,-1
 257 176 l 1,7,8
 190 190 190 190 148 204.5 c 128,-1,9
 106 219 106 219 69.5 245 c 0,10,11
 0 294.506849315 0 294.506849315 0 404.253424658 c 128,-1,12
 0 514 0 514 66.5 572 c 128,-1,13
 133 630 133 630 256 630 c 128,-1,14
 379 630 379 630 513 609 c 1,15,-1
 494 410 l 1,16,-1
 271 444 l 1,17,-1
 271 425 l 1,18,19
 405 407 405 407 467 360.5 c 128,-1,20
 529 314 529 314 529 204.5 c 0,0,1
EndSplineSet
EndChar

StartChar: T
Encoding: 84 84 20
Width: 486
Flags: HMW
HStem: 0 21G<100 383 100 100> 601 20G<10 486 486 486>
LayerCount: 2
Fore
SplineSet
473 419 m 1,0,-1
 383 419 l 1,1,-1
 383 0 l 1,2,-1
 100 0 l 1,3,-1
 100 419 l 1,4,-1
 0 419 l 1,5,-1
 10 621 l 1,6,-1
 486 621 l 1,7,-1
 473 419 l 1,0,-1
EndSplineSet
EndChar

StartChar: U
Encoding: 85 85 21
Width: 644
Flags: HMW
HStem: -10 21G<223.5 419> 601 20G<20 304 304 304 336 624 624 624>
LayerCount: 2
Fore
SplineSet
304 621 m 1,0,-1
 304 177 l 1,1,-1
 336 177 l 1,2,-1
 336 621 l 1,3,-1
 624 621 l 1,4,-1
 624 208 l 2,5,6
 624 -10 624 -10 319 -10 c 0,7,8
 174 -10 174 -10 97 44 c 128,-1,9
 20 98 20 98 20 206 c 2,10,-1
 20 621 l 1,11,-1
 304 621 l 1,0,-1
EndSplineSet
EndChar

StartChar: V
Encoding: 86 86 22
Width: 636
Flags: HMW
HStem: 0 21G<99 545 99 99> 601 20G<0 292 292 292 356 636 636 636>
VStem: 304 41
LayerCount: 2
Fore
SplineSet
636 621 m 1,0,-1
 545 0 l 1,1,-1
 99 0 l 1,2,-1
 0 621 l 1,3,-1
 292 621 l 1,4,-1
 316 257 l 1,5,-1
 335 257 l 1,6,-1
 356 621 l 1,7,-1
 636 621 l 1,0,-1
EndSplineSet
EndChar

StartChar: W
Encoding: 87 87 23
Width: 816
Flags: HMW
HStem: 0 21G<60 383 60 60 454 769 454 454> 601 20G<0 245 245 245 297 532 532 532 580 816 816 816>
LayerCount: 2
Fore
SplineSet
816 621 m 1,0,-1
 769 0 l 1,1,-1
 454 0 l 1,2,-1
 423 226 l 1,3,-1
 409 226 l 1,4,-1
 383 0 l 1,5,-1
 60 0 l 1,6,-1
 0 621 l 1,7,-1
 245 621 l 1,8,-1
 262 369 l 1,9,-1
 274 369 l 1,10,-1
 297 621 l 1,11,-1
 532 621 l 1,12,-1
 554 369 l 1,13,-1
 565 369 l 1,14,-1
 580 621 l 1,15,-1
 816 621 l 1,0,-1
EndSplineSet
EndChar

StartChar: X
Encoding: 88 88 24
Width: 654
Flags: HMW
HStem: 0 21G<-6 280 -6 -6 359 660 359 359> 601 20G<6 302 302 302 366 644 644 644>
LayerCount: 2
Fore
SplineSet
660 0 m 1,0,-1
 359 0 l 1,1,-1
 327 150 l 1,2,-1
 314 150 l 1,3,-1
 280 0 l 1,4,-1
 -6 0 l 1,5,-1
 92 315 l 1,6,-1
 6 621 l 1,7,-1
 302 621 l 1,8,-1
 330 473 l 1,9,-1
 342 473 l 1,10,-1
 366 621 l 1,11,-1
 644 621 l 1,12,-1
 567 315 l 1,13,-1
 660 0 l 1,0,-1
EndSplineSet
EndChar

StartChar: Y
Encoding: 89 89 25
Width: 587
Flags: HMW
HStem: 0 21G<150 432 150 150> 601 20G<-12 266 266 266 328 599 599 599>
LayerCount: 2
Fore
SplineSet
599 621 m 1,0,-1
 432 161 l 1,1,-1
 432 0 l 1,2,-1
 150 0 l 1,3,-1
 150 162 l 1,4,-1
 -12 621 l 1,5,-1
 266 621 l 1,6,-1
 291 417 l 1,7,-1
 303 417 l 1,8,-1
 328 621 l 1,9,-1
 599 621 l 1,0,-1
EndSplineSet
EndChar

StartChar: Z
Encoding: 90 90 26
Width: 581
Flags: HMW
HStem: 0 187<407 579> 601 20G<2 565 565 565>
LayerCount: 2
Fore
SplineSet
579 0 m 1,0,-1
 28 1 l 1,1,-1
 20 155 l 1,2,-1
 206 417 l 1,3,-1
 15 417 l 1,4,-1
 2 621 l 1,5,-1
 565 621 l 1,6,-1
 573 467 l 1,7,-1
 407 187 l 1,8,-1
 579 187 l 1,9,-1
 579 0 l 1,0,-1
EndSplineSet
EndChar

StartChar: Eth
Encoding: 208 208 27
Width: 637
Flags: HMW
HStem: 0 21G<20 289 20 20> 601 20G<20 295 295 423.5>
LayerCount: 2
Fore
SplineSet
631 324 m 0,0,1
 631 0 631 0 289 0 c 2,2,-1
 20 0 l 1,3,-1
 20 195 l 1,4,-1
 -15 195 l 1,5,-1
 -15 399 l 1,6,-1
 20 399 l 1,7,-1
 20 621 l 1,8,-1
 295 621 l 2,9,10
 478 621 478 621 554.5 544.5 c 128,-1,11
 631 468 631 468 631 324 c 0,0,1
328 157 m 1,12,-1
 328 435 l 1,13,-1
 292 435 l 1,14,-1
 292 157 l 1,15,-1
 328 157 l 1,12,-1
EndSplineSet
EndChar

StartChar: Thorn
Encoding: 222 222 28
Width: 594
Flags: HMW
HStem: 0 21G<20 302 20 20> 601 20G<20 302 302 302>
LayerCount: 2
Fore
SplineSet
594 307 m 128,-1,1
 594 191 594 191 529.5 137 c 128,-1,2
 465 83 465 83 331 83 c 2,3,-1
 302 83 l 1,4,-1
 302 0 l 1,5,-1
 20 0 l 1,6,-1
 20 621 l 1,7,-1
 302 621 l 1,8,-1
 302 531 l 1,9,-1
 319 531 l 2,10,11
 462 531 462 531 528 477 c 128,-1,0
 594 423 594 423 594 307 c 128,-1,1
330 230 m 1,12,-1
 330 354 l 1,13,-1
 302 354 l 1,14,-1
 302 230 l 1,15,-1
 330 230 l 1,12,-1
EndSplineSet
EndChar

StartChar: AE
Encoding: 198 198 29
Width: 867
Flags: HMW
HStem: 0 179<680 848> 215 166<680 838 680 848> 601 20G<240 867 867 867>
LayerCount: 2
Fore
SplineSet
848 0 m 1,0,-1
 398 0 l 1,1,-1
 398 95 l 1,2,-1
 295 95 l 1,3,-1
 258 0 l 1,4,-1
 -20 0 l 1,5,-1
 240 621 l 1,6,-1
 867 621 l 1,7,-1
 852 417 l 1,8,-1
 680 417 l 1,9,-1
 680 381 l 1,10,-1
 848 381 l 1,11,-1
 838 215 l 1,12,-1
 680 215 l 1,13,-1
 680 179 l 1,14,-1
 863 179 l 1,15,-1
 848 0 l 1,0,-1
398 228 m 1,16,-1
 398 397 l 1,17,-1
 394 397 l 1,18,-1
 336 228 l 1,19,-1
 398 228 l 1,16,-1
EndSplineSet
EndChar

StartChar: OE
Encoding: 338 338 30
Width: 825
Flags: HMW
HStem: -10 189 0 21G<443 806 443 443> 215 166<638 796 638 806> 601 20G<447 825 825 825> 610 20G<217 356.5>
LayerCount: 2
Fore
SplineSet
806 0 m 1,0,-1
 443 0 l 1,1,2
 388 -10 388 -10 331 -10 c 0,3,4
 158 -10 158 -10 81.5 69 c 128,-1,5
 5 148 5 148 5 314.5 c 0,6,7
 5 481 5 481 81.5 555.5 c 128,-1,8
 158 630 158 630 336 630 c 0,9,10
 397.5 630 397.5 630 447 621 c 1,11,-1
 825 621 l 1,12,-1
 810 417 l 1,13,-1
 638 417 l 1,14,-1
 638 381 l 1,15,-1
 806 381 l 1,16,-1
 796 215 l 1,17,-1
 638 215 l 1,18,-1
 638 179 l 1,19,-1
 821 179 l 1,20,-1
 806 0 l 1,0,-1
356 157 m 1,21,-1
 356 435 l 1,22,-1
 324 435 l 1,23,-1
 324 157 l 1,24,-1
 356 157 l 1,21,-1
EndSplineSet
EndChar

StartChar: Agrave
Encoding: 192 192 31
Width: 665
Flags: HMW
HStem: 0 21G<-8 272 -8 -8 383 673 383 383> 601 20G<113 552 552 552> 645 124<262 262 262 371 149 432>
VStem: 313 32<228 352 228 352>
LayerCount: 2
Fore
SplineSet
673 0 m 1,0,-1
 383 0 l 1,1,-1
 367 95 l 1,2,-1
 289 95 l 1,3,-1
 272 0 l 1,4,-1
 -8 0 l 1,5,-1
 113 621 l 1,6,-1
 552 621 l 1,7,-1
 673 0 l 1,0,-1
345 228 m 1,8,-1
 345 352 l 1,9,-1
 313 352 l 1,10,-1
 313 228 l 1,11,-1
 345 228 l 1,8,-1
262 645 m 1,12,-1
 149 769 l 1,13,-1
 371 769 l 1,14,-1
 432 645 l 1,15,-1
 262 645 l 1,12,-1
EndSplineSet
EndChar

StartChar: Acircumflex
Encoding: 194 194 32
Width: 665
Flags: HMW
HStem: 0 21G<-8 272 -8 -8 383 673 383 383> 601 20G<113 552 552 552> 636 127<210 314 145 449 349 449 210 514 349 349>
VStem: 313 32<228 352 228 352>
LayerCount: 2
Fore
SplineSet
673 0 m 1,0,-1
 383 0 l 1,1,-1
 367 95 l 1,2,-1
 289 95 l 1,3,-1
 272 0 l 1,4,-1
 -8 0 l 1,5,-1
 113 621 l 1,6,-1
 552 621 l 1,7,-1
 673 0 l 1,0,-1
345 228 m 1,8,-1
 345 352 l 1,9,-1
 313 352 l 1,10,-1
 313 228 l 1,11,-1
 345 228 l 1,8,-1
449 763 m 1,12,-1
 514 636 l 1,13,-1
 349 636 l 1,14,-1
 333 670 l 1,15,-1
 330 670 l 1,16,-1
 314 636 l 1,17,-1
 145 636 l 1,18,-1
 210 763 l 1,19,-1
 449 763 l 1,12,-1
EndSplineSet
EndChar

StartChar: Aacute
Encoding: 193 193 33
Width: 665
Flags: HMW
HStem: 0 21G<-8 272 -8 -8 383 673 383 383> 601 20G<113 552 552 552> 645 124<286 395 225 508>
VStem: 313 32<228 352 228 352>
LayerCount: 2
Fore
SplineSet
673 0 m 1,0,-1
 383 0 l 1,1,-1
 367 95 l 1,2,-1
 289 95 l 1,3,-1
 272 0 l 1,4,-1
 -8 0 l 1,5,-1
 113 621 l 1,6,-1
 552 621 l 1,7,-1
 673 0 l 1,0,-1
345 228 m 1,8,-1
 345 352 l 1,9,-1
 313 352 l 1,10,-1
 313 228 l 1,11,-1
 345 228 l 1,8,-1
508 769 m 1,12,-1
 395 645 l 1,13,-1
 225 645 l 1,14,-1
 286 769 l 1,15,-1
 508 769 l 1,12,-1
EndSplineSet
EndChar

StartChar: Adieresis
Encoding: 196 196 34
Width: 665
Flags: HMW
HStem: 0 21G<-8 272 -8 -8 383 673 383 383> 601 20G<113 552 552 552> 641 127<188.5 259 399 470>
VStem: 128 185 345 184
LayerCount: 2
Fore
SplineSet
673 0 m 1,0,-1
 383 0 l 1,1,-1
 367 95 l 1,2,-1
 289 95 l 1,3,-1
 272 0 l 1,4,-1
 -8 0 l 1,5,-1
 113 621 l 1,6,-1
 552 621 l 1,7,-1
 673 0 l 1,0,-1
345 228 m 1,8,-1
 345 352 l 1,9,-1
 313 352 l 1,10,-1
 313 228 l 1,11,-1
 345 228 l 1,8,-1
149 654 m 128,-1,13
 128 667 128 667 128 703.5 c 128,-1,14
 128 740 128 740 149.5 754 c 128,-1,15
 171 768 171 768 224 768 c 128,-1,16
 277 768 277 768 297.5 754.5 c 128,-1,17
 318 741 318 741 318 704 c 128,-1,18
 318 667 318 667 298 654 c 128,-1,19
 278 641 278 641 224 641 c 128,-1,12
 170 641 170 641 149 654 c 128,-1,13
359.5 654 m 128,-1,21
 339 667 339 667 339 703.5 c 128,-1,22
 339 740 339 740 360 754 c 128,-1,23
 381 768 381 768 434.5 768 c 128,-1,24
 488 768 488 768 508.5 754.5 c 128,-1,25
 529 741 529 741 529 704 c 128,-1,26
 529 667 529 667 509 654 c 128,-1,27
 489 641 489 641 434.5 641 c 128,-1,20
 380 641 380 641 359.5 654 c 128,-1,21
EndSplineSet
EndChar

StartChar: Atilde
Encoding: 195 195 35
Width: 665
Flags: HMW
HStem: 0 21G<-8 272 -8 -8 383 673 383 383> 601 20G<113 552 552 552> 640 143<202.5 269 202.5 304 132 269 389.5 459.5>
VStem: 132 181
LayerCount: 2
Fore
SplineSet
673 0 m 1,0,-1
 383 0 l 1,1,-1
 367 95 l 1,2,-1
 289 95 l 1,3,-1
 272 0 l 1,4,-1
 -8 0 l 1,5,-1
 113 621 l 1,6,-1
 552 621 l 1,7,-1
 673 0 l 1,0,-1
345 228 m 1,8,-1
 345 352 l 1,9,-1
 313 352 l 1,10,-1
 313 228 l 1,11,-1
 345 228 l 1,8,-1
529 783 m 1,12,-1
 529 770 l 2,13,14
 529 701 529 701 505 670.5 c 128,-1,15
 481 640 481 640 408 640 c 0,16,17
 373 640 373 640 304 663 c 1,18,-1
 304 640 l 1,19,-1
 132 640 l 1,20,-1
 132 654 l 2,21,22
 132 720 132 720 157.5 751.5 c 128,-1,23
 183 783 183 783 249 783 c 0,24,25
 283 783 283 783 358 760 c 1,26,-1
 358 783 l 1,27,-1
 529 783 l 1,12,-1
EndSplineSet
EndChar

StartChar: Aring
Encoding: 197 197 36
Width: 665
Flags: HMW
HStem: 0 21G<-8 272 -8 -8 383 673 383 383> 601 20G<113 206 206 206 322 342 342 342 458 552 552 552> 713 20G<287.5 377>
VStem: 202 111 345 117
LayerCount: 2
Fore
SplineSet
232 716 m 128,-1,1
 262 733 262 733 332.5 733 c 128,-1,2
 403 733 403 733 432.5 717 c 128,-1,3
 462 701 462 701 462 655 c 0,4,5
 462 633 462 633 458 621 c 1,6,-1
 552 621 l 1,7,-1
 673 0 l 1,8,-1
 383 0 l 1,9,-1
 367 95 l 1,10,-1
 289 95 l 1,11,-1
 272 0 l 1,12,-1
 -8 0 l 1,13,-1
 113 621 l 1,14,-1
 206 621 l 1,15,16
 202 632 202 632 202 650 c 0,17,0
 202 699 202 699 232 716 c 128,-1,1
345 228 m 1,18,-1
 345 352 l 1,19,-1
 313 352 l 1,20,-1
 313 228 l 1,21,-1
 345 228 l 1,18,-1
342 621 m 1,22,-1
 342 676 l 1,23,-1
 322 676 l 1,24,-1
 322 621 l 1,25,-1
 342 621 l 1,22,-1
EndSplineSet
EndChar

StartChar: Ccedilla
Encoding: 199 199 37
Width: 468
Flags: HMW
HStem: -169 21G<229 297> -10 21G<308 325 308 308> 610 20G<229 358>
LayerCount: 2
Fore
SplineSet
383 -79 m 0,0,1
 383 -121 383 -121 350 -145 c 128,-1,2
 317 -169 317 -169 249.5 -169 c 0,3,4
 182 -169 182 -169 122 -133 c 1,5,-1
 169 -51 l 1,6,7
 208 -78 208 -78 253 -91 c 1,8,-1
 257 -83 l 1,9,-1
 200 -58 l 1,10,11
 181 -48 181 -48 181 -31 c 0,12,13
 181 -14 181 -14 201 4 c 1,14,15
 102 29 102 29 54 104.5 c 128,-1,16
 6 180 6 180 6 315 c 0,17,18
 6 486 6 486 87 558 c 128,-1,19
 168 630 168 630 341 630 c 0,20,21
 385 630 385 630 460 620 c 1,22,-1
 443 381 l 1,23,24
 403 386 403 386 381.5 386 c 0,25,26
 360 386 360 386 349 372 c 128,-1,27
 338 358 338 358 338 303.5 c 0,28,29
 338 249 338 249 349.5 234 c 128,-1,30
 361 219 361 219 382 219 c 0,31,32
 403 219 403 219 445 227 c 1,33,-1
 460 0 l 1,34,35
 388 -10 388 -10 325 -10 c 2,36,-1
 308 -10 l 1,37,-1
 306 -13 l 1,38,-1
 306 -17 l 1,39,40
 383 -17 383 -17 383 -79 c 0,0,1
EndSplineSet
EndChar

StartChar: Egrave
Encoding: 200 200 38
Width: 489
Flags: HMW
HStem: 0 179<302 470> 215 166<302 460 302 470> 601 20G<20 489 489 489> 645 124<202 202 202 311 89 372>
LayerCount: 2
Fore
SplineSet
470 0 m 1,0,-1
 20 0 l 1,1,-1
 20 621 l 1,2,-1
 489 621 l 1,3,-1
 474 417 l 1,4,-1
 302 417 l 1,5,-1
 302 381 l 1,6,-1
 470 381 l 1,7,-1
 460 215 l 1,8,-1
 302 215 l 1,9,-1
 302 179 l 1,10,-1
 485 179 l 1,11,-1
 470 0 l 1,0,-1
202 645 m 1,12,-1
 89 769 l 1,13,-1
 311 769 l 1,14,-1
 372 645 l 1,15,-1
 202 645 l 1,12,-1
EndSplineSet
EndChar

StartChar: Ecircumflex
Encoding: 202 202 39
Width: 489
Flags: HMW
HStem: 0 179<302 470> 215 166<302 460 302 470> 601 20G<20 489 489 489> 636 127<133 237 68 372 272 372 133 437 272 272>
LayerCount: 2
Fore
SplineSet
470 0 m 1,0,-1
 20 0 l 1,1,-1
 20 621 l 1,2,-1
 489 621 l 1,3,-1
 474 417 l 1,4,-1
 302 417 l 1,5,-1
 302 381 l 1,6,-1
 470 381 l 1,7,-1
 460 215 l 1,8,-1
 302 215 l 1,9,-1
 302 179 l 1,10,-1
 485 179 l 1,11,-1
 470 0 l 1,0,-1
372 763 m 1,12,-1
 437 636 l 1,13,-1
 272 636 l 1,14,-1
 256 670 l 1,15,-1
 253 670 l 1,16,-1
 237 636 l 1,17,-1
 68 636 l 1,18,-1
 133 763 l 1,19,-1
 372 763 l 1,12,-1
EndSplineSet
EndChar

StartChar: Eacute
Encoding: 201 201 40
Width: 489
Flags: HMW
HStem: 0 179<302 470> 215 166<302 460 302 470> 601 20G<20 489 489 489> 645 124<236 345 175 458>
LayerCount: 2
Fore
SplineSet
470 0 m 1,0,-1
 20 0 l 1,1,-1
 20 621 l 1,2,-1
 489 621 l 1,3,-1
 474 417 l 1,4,-1
 302 417 l 1,5,-1
 302 381 l 1,6,-1
 470 381 l 1,7,-1
 460 215 l 1,8,-1
 302 215 l 1,9,-1
 302 179 l 1,10,-1
 485 179 l 1,11,-1
 470 0 l 1,0,-1
458 769 m 1,12,-1
 345 645 l 1,13,-1
 175 645 l 1,14,-1
 236 769 l 1,15,-1
 458 769 l 1,12,-1
EndSplineSet
EndChar

StartChar: Edieresis
Encoding: 203 203 41
Width: 489
Flags: HMW
HStem: 0 179<302 470> 215 166<302 460 302 470> 601 20G<20 489 489 489> 641 127<119.5 190 330 401>
VStem: 59 190<679 728.5 679 728.5> 270 195
LayerCount: 2
Fore
SplineSet
470 0 m 1,0,-1
 20 0 l 1,1,-1
 20 621 l 1,2,-1
 489 621 l 1,3,-1
 474 417 l 1,4,-1
 302 417 l 1,5,-1
 302 381 l 1,6,-1
 470 381 l 1,7,-1
 460 215 l 1,8,-1
 302 215 l 1,9,-1
 302 179 l 1,10,-1
 485 179 l 1,11,-1
 470 0 l 1,0,-1
80 654 m 128,-1,13
 59 667 59 667 59 703.5 c 128,-1,14
 59 740 59 740 80.5 754 c 128,-1,15
 102 768 102 768 155 768 c 128,-1,16
 208 768 208 768 228.5 754.5 c 128,-1,17
 249 741 249 741 249 704 c 128,-1,18
 249 667 249 667 229 654 c 128,-1,19
 209 641 209 641 155 641 c 128,-1,12
 101 641 101 641 80 654 c 128,-1,13
290.5 654 m 128,-1,21
 270 667 270 667 270 703.5 c 128,-1,22
 270 740 270 740 291 754 c 128,-1,23
 312 768 312 768 365.5 768 c 128,-1,24
 419 768 419 768 439.5 754.5 c 128,-1,25
 460 741 460 741 460 704 c 128,-1,26
 460 667 460 667 440 654 c 128,-1,27
 420 641 420 641 365.5 641 c 128,-1,20
 311 641 311 641 290.5 654 c 128,-1,21
EndSplineSet
EndChar

StartChar: Igrave
Encoding: 204 204 42
Width: 322
Flags: HMW
HStem: 0 21G<20 302 20 20> 601 20G<20 302 302 302> 655 124<106 106 106 215 -7 276>
LayerCount: 2
Fore
SplineSet
302 0 m 1,0,-1
 20 0 l 1,1,-1
 20 621 l 1,2,-1
 302 621 l 1,3,-1
 302 0 l 1,0,-1
106 655 m 1,4,-1
 -7 779 l 1,5,-1
 215 779 l 1,6,-1
 276 655 l 1,7,-1
 106 655 l 1,4,-1
EndSplineSet
EndChar

StartChar: Icircumflex
Encoding: 206 206 43
Width: 322
Flags: HMW
HStem: 0 21G<20 302 20 20> 601 20G<20 302 302 302> 646 127<40 144 -25 279 179 279 40 344 179 179>
LayerCount: 2
Fore
SplineSet
302 0 m 1,0,-1
 20 0 l 1,1,-1
 20 621 l 1,2,-1
 302 621 l 1,3,-1
 302 0 l 1,0,-1
279 773 m 1,4,-1
 344 646 l 1,5,-1
 179 646 l 1,6,-1
 163 680 l 1,7,-1
 160 680 l 1,8,-1
 144 646 l 1,9,-1
 -25 646 l 1,10,-1
 40 773 l 1,11,-1
 279 773 l 1,4,-1
EndSplineSet
EndChar

StartChar: Iacute
Encoding: 205 205 44
Width: 322
Flags: HMW
HStem: 0 21G<20 302 20 20> 601 20G<20 302 302 302> 655 124<104 213 43 326>
LayerCount: 2
Fore
SplineSet
302 0 m 1,0,-1
 20 0 l 1,1,-1
 20 621 l 1,2,-1
 302 621 l 1,3,-1
 302 0 l 1,0,-1
326 779 m 1,4,-1
 213 655 l 1,5,-1
 43 655 l 1,6,-1
 104 779 l 1,7,-1
 326 779 l 1,4,-1
EndSplineSet
EndChar

StartChar: Idieresis
Encoding: 207 207 45
Width: 322
Flags: HMW
HStem: 0 21G<19 301 19 19> 601 20G<19 301 301 301> 651 127<21.5 92 232 303>
VStem: -39 190<689 738.5 689 738.5> 19 132<0 738.5 621 738.5> 172 190<689 738.5 689 738.5>
LayerCount: 2
Fore
SplineSet
301 0 m 1,0,-1
 19 0 l 1,1,-1
 19 621 l 1,2,-1
 301 621 l 1,3,-1
 301 0 l 1,0,-1
-18 664 m 128,-1,5
 -39 677 -39 677 -39 713.5 c 128,-1,6
 -39 750 -39 750 -17.5 764 c 128,-1,7
 4 778 4 778 57 778 c 128,-1,8
 110 778 110 778 130.5 764.5 c 128,-1,9
 151 751 151 751 151 714 c 128,-1,10
 151 677 151 677 131 664 c 128,-1,11
 111 651 111 651 57 651 c 128,-1,4
 3 651 3 651 -18 664 c 128,-1,5
192.5 664 m 128,-1,13
 172 677 172 677 172 713.5 c 128,-1,14
 172 750 172 750 193 764 c 128,-1,15
 214 778 214 778 267.5 778 c 128,-1,16
 321 778 321 778 341.5 764.5 c 128,-1,17
 362 751 362 751 362 714 c 128,-1,18
 362 677 362 677 342 664 c 128,-1,19
 322 651 322 651 267.5 651 c 128,-1,12
 213 651 213 651 192.5 664 c 128,-1,13
EndSplineSet
EndChar

StartChar: Itilde
Encoding: 296 296 46
Width: 322
Flags: HMW
HStem: 0 21G<20 302 20 20> 601 20G<20 302 302 302> 640 143<31.5 98 31.5 133 -39 98 218.5 288.5>
LayerCount: 2
Fore
SplineSet
302 0 m 1,0,-1
 20 0 l 1,1,-1
 20 621 l 1,2,-1
 302 621 l 1,3,-1
 302 0 l 1,0,-1
358 783 m 1,4,-1
 358 770 l 2,5,6
 358 701 358 701 334 670.5 c 128,-1,7
 310 640 310 640 237 640 c 0,8,9
 202 640 202 640 133 663 c 1,10,-1
 133 640 l 1,11,-1
 -39 640 l 1,12,-1
 -39 654 l 2,13,14
 -39 720 -39 720 -13.5 751.5 c 128,-1,15
 12 783 12 783 78 783 c 0,16,17
 112 783 112 783 187 760 c 1,18,-1
 187 783 l 1,19,-1
 358 783 l 1,4,-1
EndSplineSet
EndChar

StartChar: IJ
Encoding: 306 306 47
Width: 675
Flags: HMW
HStem: -10 21G<333 501 333 333> 0 21G<20 302 20 20> 601 20G<20 302 302 302 373 655 655 655>
LayerCount: 2
Fore
SplineSet
302 0 m 1,0,-1
 20 0 l 1,1,-1
 20 621 l 1,2,-1
 302 621 l 1,3,-1
 302 0 l 1,0,-1
655 621 m 1,4,-1
 655 131 l 2,5,6
 655 53 655 53 624 21.5 c 128,-1,7
 593 -10 593 -10 501 -10 c 2,8,-1
 333 -10 l 1,9,-1
 322 171 l 1,10,-1
 373 171 l 1,11,-1
 373 621 l 1,12,-1
 655 621 l 1,4,-1
EndSplineSet
EndChar

StartChar: Jcircumflex
Encoding: 308 308 48
Width: 353
Flags: HMW
HStem: -10 21G<11 179 11 11> 601 20G<51 333 333 333> 636 127<58 162 -7 297 197 297 58 362 197 197>
LayerCount: 2
Fore
SplineSet
333 621 m 1,0,-1
 333 131 l 2,1,2
 333 53 333 53 302 21.5 c 128,-1,3
 271 -10 271 -10 179 -10 c 2,4,-1
 11 -10 l 1,5,-1
 0 171 l 1,6,-1
 51 171 l 1,7,-1
 51 621 l 1,8,-1
 333 621 l 1,0,-1
297 763 m 1,9,-1
 362 636 l 1,10,-1
 197 636 l 1,11,-1
 181 670 l 1,12,-1
 178 670 l 1,13,-1
 162 636 l 1,14,-1
 -7 636 l 1,15,-1
 58 763 l 1,16,-1
 297 763 l 1,9,-1
EndSplineSet
EndChar

StartChar: Ldotaccent
Encoding: 319 319 49
Width: 584
Flags: HMW
HStem: 0 199<302 392> 218 171<392 461 433 459> 601 20G<20 302 302 302>
LayerCount: 2
Fore
SplineSet
392 0 m 1,0,-1
 20 0 l 1,1,-1
 20 621 l 1,2,-1
 302 621 l 1,3,-1
 302 199 l 1,4,-1
 406 199 l 1,5,-1
 392 0 l 1,0,-1
317 288 m 2,6,-1
 317 319 l 2,7,8
 317 356 317 356 345.5 372.5 c 128,-1,9
 374 389 374 389 433 389 c 2,10,-1
 461 389 l 2,11,12
 525 389 525 389 554.5 372.5 c 128,-1,13
 584 356 584 356 584 319 c 2,14,-1
 584 288 l 2,15,16
 584 250 584 250 554 234 c 128,-1,17
 524 218 524 218 459 218 c 2,18,-1
 429 218 l 2,19,20
 371 218 371 218 344 233 c 128,-1,21
 317 248 317 248 317 288 c 2,6,-1
EndSplineSet
EndChar

StartChar: Lslash
Encoding: 321 321 50
Width: 406
Flags: HMW
HStem: 0 199<312 402> 601 20G<30 312 312 312>
LayerCount: 2
Fore
SplineSet
402 0 m 1,0,-1
 30 0 l 1,1,-1
 30 147 l 1,2,-1
 0 135 l 1,3,-1
 0 349 l 1,4,-1
 30 361 l 1,5,-1
 30 621 l 1,6,-1
 312 621 l 1,7,-1
 312 476 l 1,8,-1
 347 491 l 1,9,-1
 347 278 l 1,10,-1
 312 263 l 1,11,-1
 312 199 l 1,12,-1
 416 199 l 1,13,-1
 402 0 l 1,0,-1
EndSplineSet
EndChar

StartChar: Nacute
Encoding: 323 323 51
Width: 652
Flags: HMW
HStem: 0 21G<20 263 20 20 376 632 376 376> 601 20G<20 283 283 283 387 632 632 632> 645 124<286 395 225 508>
LayerCount: 2
Fore
SplineSet
632 0 m 1,0,-1
 376 0 l 1,1,-1
 263 199 l 1,2,-1
 263 0 l 1,3,-1
 20 0 l 1,4,-1
 20 621 l 1,5,-1
 283 621 l 1,6,-1
 387 420 l 1,7,-1
 387 621 l 1,8,-1
 632 621 l 1,9,-1
 632 0 l 1,0,-1
508 769 m 1,10,-1
 395 645 l 1,11,-1
 225 645 l 1,12,-1
 286 769 l 1,13,-1
 508 769 l 1,10,-1
EndSplineSet
EndChar

StartChar: Ntilde
Encoding: 209 209 52
Width: 652
Flags: HMW
HStem: 0 21G<20 263 20 20 376 632 376 376> 601 20G<20 283 283 283 387 632 632 632> 640 143<192.5 259 192.5 294 122 259 379.5 449.5>
VStem: 387 132<420 770 621 770>
LayerCount: 2
Fore
SplineSet
632 0 m 1,0,-1
 376 0 l 1,1,-1
 263 199 l 1,2,-1
 263 0 l 1,3,-1
 20 0 l 1,4,-1
 20 621 l 1,5,-1
 283 621 l 1,6,-1
 387 420 l 1,7,-1
 387 621 l 1,8,-1
 632 621 l 1,9,-1
 632 0 l 1,0,-1
519 783 m 1,10,-1
 519 770 l 2,11,12
 519 701 519 701 495 670.5 c 128,-1,13
 471 640 471 640 398 640 c 0,14,15
 363 640 363 640 294 663 c 1,16,-1
 294 640 l 1,17,-1
 122 640 l 1,18,-1
 122 654 l 2,19,20
 122 720 122 720 147.5 751.5 c 128,-1,21
 173 783 173 783 239 783 c 0,22,23
 273 783 273 783 348 760 c 1,24,-1
 348 783 l 1,25,-1
 519 783 l 1,10,-1
EndSplineSet
EndChar

StartChar: Ograve
Encoding: 210 210 53
Width: 670
Flags: HMW
HStem: -10 21G<214.5 451> 610 20G<218 455.5> 655 124<254 254 254 363 141 424>
LayerCount: 2
Fore
SplineSet
82.5 555.5 m 128,-1,1
 159 630 159 630 336 630 c 128,-1,2
 513 630 513 630 588.5 556.5 c 128,-1,3
 664 483 664 483 664 316.5 c 128,-1,4
 664 150 664 150 586 70 c 128,-1,5
 508 -10 508 -10 333.5 -10 c 128,-1,6
 159 -10 159 -10 82.5 69 c 128,-1,7
 6 148 6 148 6 314.5 c 128,-1,0
 6 481 6 481 82.5 555.5 c 128,-1,1
254 655 m 1,8,-1
 141 779 l 1,9,-1
 363 779 l 1,10,-1
 424 655 l 1,11,-1
 254 655 l 1,8,-1
357 157 m 1,12,-1
 357 435 l 1,13,-1
 325 435 l 1,14,-1
 325 157 l 1,15,-1
 357 157 l 1,12,-1
EndSplineSet
EndChar

StartChar: Ocircumflex
Encoding: 212 212 54
Width: 670
Flags: HMW
HStem: -10 21G<214.5 451> 610 20G<218 455.5> 646 127<210 314 145 449 349 449 210 514 349 349>
LayerCount: 2
Fore
SplineSet
82.5 555.5 m 128,-1,1
 159 630 159 630 336 630 c 128,-1,2
 513 630 513 630 588.5 556.5 c 128,-1,3
 664 483 664 483 664 316.5 c 128,-1,4
 664 150 664 150 586 70 c 128,-1,5
 508 -10 508 -10 333.5 -10 c 128,-1,6
 159 -10 159 -10 82.5 69 c 128,-1,7
 6 148 6 148 6 314.5 c 128,-1,0
 6 481 6 481 82.5 555.5 c 128,-1,1
449 773 m 1,8,-1
 514 646 l 1,9,-1
 349 646 l 1,10,-1
 333 680 l 1,11,-1
 330 680 l 1,12,-1
 314 646 l 1,13,-1
 145 646 l 1,14,-1
 210 773 l 1,15,-1
 449 773 l 1,8,-1
357 157 m 1,16,-1
 357 435 l 1,17,-1
 325 435 l 1,18,-1
 325 157 l 1,19,-1
 357 157 l 1,16,-1
EndSplineSet
EndChar

StartChar: Oacute
Encoding: 211 211 55
Width: 670
Flags: HMW
HStem: -10 21G<214.5 451> 610 20G<218 455.5> 655 124<303 412 242 525>
LayerCount: 2
Fore
SplineSet
82.5 555.5 m 128,-1,1
 159 630 159 630 336 630 c 128,-1,2
 513 630 513 630 588.5 556.5 c 128,-1,3
 664 483 664 483 664 316.5 c 128,-1,4
 664 150 664 150 586 70 c 128,-1,5
 508 -10 508 -10 333.5 -10 c 128,-1,6
 159 -10 159 -10 82.5 69 c 128,-1,7
 6 148 6 148 6 314.5 c 128,-1,0
 6 481 6 481 82.5 555.5 c 128,-1,1
525 779 m 1,8,-1
 412 655 l 1,9,-1
 242 655 l 1,10,-1
 303 779 l 1,11,-1
 525 779 l 1,8,-1
357 157 m 1,12,-1
 357 435 l 1,13,-1
 325 435 l 1,14,-1
 325 157 l 1,15,-1
 357 157 l 1,12,-1
EndSplineSet
EndChar

StartChar: Odieresis
Encoding: 214 214 56
Width: 670
Flags: HMW
HStem: -10 21G<214.5 451> 610 20G<218 455.5> 641 127<189.5 260 400 471>
VStem: 129 196 340 190<679 728.5 679 728.5>
LayerCount: 2
Fore
SplineSet
82.5 555.5 m 128,-1,1
 159 630 159 630 336 630 c 128,-1,2
 513 630 513 630 588.5 556.5 c 128,-1,3
 664 483 664 483 664 316.5 c 128,-1,4
 664 150 664 150 586 70 c 128,-1,5
 508 -10 508 -10 333.5 -10 c 128,-1,6
 159 -10 159 -10 82.5 69 c 128,-1,7
 6 148 6 148 6 314.5 c 128,-1,0
 6 481 6 481 82.5 555.5 c 128,-1,1
360.5 654 m 128,-1,9
 340 667 340 667 340 703.5 c 128,-1,10
 340 740 340 740 361 754 c 128,-1,11
 382 768 382 768 435.5 768 c 128,-1,12
 489 768 489 768 509.5 754.5 c 128,-1,13
 530 741 530 741 530 704 c 128,-1,14
 530 667 530 667 510 654 c 128,-1,15
 490 641 490 641 435.5 641 c 128,-1,8
 381 641 381 641 360.5 654 c 128,-1,9
150 654 m 128,-1,17
 129 667 129 667 129 703.5 c 128,-1,18
 129 740 129 740 150.5 754 c 128,-1,19
 172 768 172 768 225 768 c 128,-1,20
 278 768 278 768 298.5 754.5 c 128,-1,21
 319 741 319 741 319 704 c 128,-1,22
 319 667 319 667 299 654 c 128,-1,23
 279 641 279 641 225 641 c 128,-1,16
 171 641 171 641 150 654 c 128,-1,17
357 157 m 1,24,-1
 357 435 l 1,25,-1
 325 435 l 1,26,-1
 325 157 l 1,27,-1
 357 157 l 1,24,-1
EndSplineSet
EndChar

StartChar: Otilde
Encoding: 213 213 57
Width: 670
Flags: HMW
HStem: -10 21G<214.5 451> 610 20G<218 455.5> 640 143<205.5 272 205.5 307 135 272 392.5 462.5>
VStem: 357 175
LayerCount: 2
Fore
SplineSet
82.5 555.5 m 128,-1,1
 159 630 159 630 336 630 c 128,-1,2
 513 630 513 630 588.5 556.5 c 128,-1,3
 664 483 664 483 664 316.5 c 128,-1,4
 664 150 664 150 586 70 c 128,-1,5
 508 -10 508 -10 333.5 -10 c 128,-1,6
 159 -10 159 -10 82.5 69 c 128,-1,7
 6 148 6 148 6 314.5 c 128,-1,0
 6 481 6 481 82.5 555.5 c 128,-1,1
532 783 m 1,8,-1
 532 770 l 2,9,10
 532 701 532 701 508 670.5 c 128,-1,11
 484 640 484 640 411 640 c 0,12,13
 376 640 376 640 307 663 c 1,14,-1
 307 640 l 1,15,-1
 135 640 l 1,16,-1
 135 654 l 2,17,18
 135 720 135 720 160.5 751.5 c 128,-1,19
 186 783 186 783 252 783 c 0,20,21
 286 783 286 783 361 760 c 1,22,-1
 361 783 l 1,23,-1
 532 783 l 1,8,-1
357 157 m 1,24,-1
 357 435 l 1,25,-1
 325 435 l 1,26,-1
 325 157 l 1,27,-1
 357 157 l 1,24,-1
EndSplineSet
EndChar

StartChar: Oslash
Encoding: 216 216 58
Width: 670
Flags: HMW
HStem: -48 21G<41 306 41 41> -10 21G<324 332 324 324> 653 20G<393 655 655 655>
LayerCount: 2
Fore
SplineSet
337 631 m 0,0,1
 361 631 361 631 373 630 c 1,2,-1
 393 673 l 1,3,-1
 655 673 l 1,4,-1
 596 549 l 1,5,6
 664 475 664 475 664 312.5 c 0,7,8
 664 150 664 150 586 70 c 128,-1,9
 508 -10 508 -10 332 -10 c 2,10,-1
 324 -10 l 1,11,-1
 306 -48 l 1,12,-1
 41 -48 l 1,13,-1
 93 59 l 1,14,15
 6 135 6 135 6 308 c 0,16,17
 6 481 6 481 83 556 c 128,-1,18
 160 631 160 631 337 631 c 0,0,1
359 157 m 1,19,-1
 359 435 l 1,20,-1
 323 435 l 1,21,-1
 323 157 l 1,22,-1
 359 157 l 1,19,-1
EndSplineSet
EndChar

StartChar: Racute
Encoding: 340 340 59
Width: 623
Flags: HMW
HStem: 0 21G<20 302 20 20 356 628 356 356> 601 20G<20 350 350 440> 645 124<256 365 195 478>
LayerCount: 2
Fore
SplineSet
546 572 m 128,-1,1
 608 523 608 523 608 421.5 c 128,-1,2
 608 320 608 320 545 264 c 1,3,-1
 628 0 l 1,4,-1
 356 0 l 1,5,-1
 320 193 l 1,6,-1
 302 193 l 1,7,-1
 302 0 l 1,8,-1
 20 0 l 1,9,-1
 20 621 l 1,10,-1
 350 621 l 2,11,0
 484 621 484 621 546 572 c 128,-1,1
330 340 m 1,12,-1
 330 442 l 1,13,-1
 298 442 l 1,14,-1
 298 340 l 1,15,-1
 330 340 l 1,12,-1
478 769 m 1,16,-1
 365 645 l 1,17,-1
 195 645 l 1,18,-1
 256 769 l 1,19,-1
 478 769 l 1,16,-1
EndSplineSet
EndChar

StartChar: Rcaron
Encoding: 344 344 60
Width: 623
Flags: HMW
HStem: 0 21G<20 302 20 20 356 628 356 356> 601 20G<20 350 350 440> 642 127<182 182 182 282 317 421>
LayerCount: 2
Fore
SplineSet
546 572 m 128,-1,1
 608 523 608 523 608 421.5 c 128,-1,2
 608 320 608 320 545 264 c 1,3,-1
 628 0 l 1,4,-1
 356 0 l 1,5,-1
 320 193 l 1,6,-1
 302 193 l 1,7,-1
 302 0 l 1,8,-1
 20 0 l 1,9,-1
 20 621 l 1,10,-1
 350 621 l 2,11,0
 484 621 484 621 546 572 c 128,-1,1
330 340 m 1,12,-1
 330 442 l 1,13,-1
 298 442 l 1,14,-1
 298 340 l 1,15,-1
 330 340 l 1,12,-1
182 642 m 1,16,-1
 117 769 l 1,17,-1
 282 769 l 1,18,-1
 298 735 l 1,19,-1
 301 735 l 1,20,-1
 317 769 l 1,21,-1
 486 769 l 1,22,-1
 421 642 l 1,23,-1
 182 642 l 1,16,-1
EndSplineSet
EndChar

StartChar: Rcommaaccent
Encoding: 342 342 61
Width: 623
Flags: HMW
HStem: -175 166<312 347 347 366 269 347> 0 21G<20 302 20 20 356 628 356 356> 601 20G<20 350 350 440>
VStem: 236 190<-89 -64 -64 -48.5 -96 -44>
LayerCount: 2
Fore
SplineSet
546 572 m 128,-1,1
 608 523 608 523 608 421.5 c 128,-1,2
 608 320 608 320 545 264 c 1,3,-1
 628 0 l 1,4,-1
 356 0 l 1,5,-1
 320 193 l 1,6,-1
 302 193 l 1,7,-1
 302 0 l 1,8,-1
 20 0 l 1,9,-1
 20 621 l 1,10,-1
 350 621 l 2,11,0
 484 621 484 621 546 572 c 128,-1,1
330 340 m 1,12,-1
 330 442 l 1,13,-1
 298 442 l 1,14,-1
 298 340 l 1,15,-1
 330 340 l 1,12,-1
236 -89 m 2,16,-1
 236 -64 l 2,17,18
 236 -9 236 -9 312 -9 c 2,19,-1
 347 -9 l 2,20,21
 391 -9 391 -9 408.5 -23 c 128,-1,22
 426 -37 426 -37 426 -73 c 128,-1,23
 426 -109 426 -109 414 -130 c 128,-1,24
 402 -151 402 -151 366 -175 c 1,25,-1
 269 -175 l 1,26,-1
 296 -137 l 1,27,28
 263 -137 263 -137 249.5 -127 c 128,-1,29
 236 -117 236 -117 236 -89 c 2,16,-1
EndSplineSet
EndChar

StartChar: Scaron
Encoding: 352 352 62
Width: 529
Flags: HMW
HStem: -10 21G<212.5 353.5> 610 20G<173.5 306.5> 642 127<136 136 136 236 271 375>
LayerCount: 2
Fore
SplineSet
529 204.5 m 0,0,1
 529 -10 529 -10 271.5 -10 c 0,2,3
 145 -10 145 -10 19 20 c 1,4,-1
 27 202 l 1,5,-1
 257 158 l 1,6,-1
 257 176 l 1,7,8
 190 190 190 190 148 204.5 c 128,-1,9
 106 219 106 219 69.5 245 c 0,10,11
 0 294.506849315 0 294.506849315 0 404.253424658 c 128,-1,12
 0 514 0 514 66.5 572 c 128,-1,13
 133 630 133 630 256 630 c 128,-1,14
 379 630 379 630 513 609 c 1,15,-1
 494 410 l 1,16,-1
 271 444 l 1,17,-1
 271 425 l 1,18,19
 405 407 405 407 467 360.5 c 128,-1,20
 529 314 529 314 529 204.5 c 0,0,1
136 642 m 1,21,-1
 71 769 l 1,22,-1
 236 769 l 1,23,-1
 252 735 l 1,24,-1
 255 735 l 1,25,-1
 271 769 l 1,26,-1
 440 769 l 1,27,-1
 375 642 l 1,28,-1
 136 642 l 1,21,-1
EndSplineSet
EndChar

StartChar: Ugrave
Encoding: 217 217 63
Width: 644
Flags: HMW
HStem: -10 21G<223.5 419> 601 20G<20 304 304 304 336 624 624 624> 645 124<234 234 234 343 121 404>
LayerCount: 2
Fore
SplineSet
304 621 m 1,0,-1
 304 177 l 1,1,-1
 336 177 l 1,2,-1
 336 621 l 1,3,-1
 624 621 l 1,4,-1
 624 208 l 2,5,6
 624 -10 624 -10 319 -10 c 0,7,8
 174 -10 174 -10 97 44 c 128,-1,9
 20 98 20 98 20 206 c 2,10,-1
 20 621 l 1,11,-1
 304 621 l 1,0,-1
234 645 m 1,12,-1
 121 769 l 1,13,-1
 343 769 l 1,14,-1
 404 645 l 1,15,-1
 234 645 l 1,12,-1
EndSplineSet
EndChar

StartChar: Ucircumflex
Encoding: 219 219 64
Width: 644
Flags: HMW
HStem: -10 21G<223.5 419> 601 20G<20 304 304 304 336 624 624 624> 636 127<198 302 133 437 337 437 198 502 337 337>
LayerCount: 2
Fore
SplineSet
304 621 m 1,0,-1
 304 177 l 1,1,-1
 336 177 l 1,2,-1
 336 621 l 1,3,-1
 624 621 l 1,4,-1
 624 208 l 2,5,6
 624 -10 624 -10 319 -10 c 0,7,8
 174 -10 174 -10 97 44 c 128,-1,9
 20 98 20 98 20 206 c 2,10,-1
 20 621 l 1,11,-1
 304 621 l 1,0,-1
437 763 m 1,12,-1
 502 636 l 1,13,-1
 337 636 l 1,14,-1
 321 670 l 1,15,-1
 318 670 l 1,16,-1
 302 636 l 1,17,-1
 133 636 l 1,18,-1
 198 763 l 1,19,-1
 437 763 l 1,12,-1
EndSplineSet
EndChar

StartChar: Uacute
Encoding: 218 218 65
Width: 644
Flags: HMW
HStem: -10 21G<223.5 419> 601 20G<20 304 304 304 336 624 624 624> 645 124<297 406 236 519>
LayerCount: 2
Fore
SplineSet
304 621 m 1,0,-1
 304 177 l 1,1,-1
 336 177 l 1,2,-1
 336 621 l 1,3,-1
 624 621 l 1,4,-1
 624 208 l 2,5,6
 624 -10 624 -10 319 -10 c 0,7,8
 174 -10 174 -10 97 44 c 128,-1,9
 20 98 20 98 20 206 c 2,10,-1
 20 621 l 1,11,-1
 304 621 l 1,0,-1
519 769 m 1,12,-1
 406 645 l 1,13,-1
 236 645 l 1,14,-1
 297 769 l 1,15,-1
 519 769 l 1,12,-1
EndSplineSet
EndChar

StartChar: Udieresis
Encoding: 220 220 66
Width: 644
Flags: HMW
HStem: -10 21G<223.5 419> 601 20G<20 304 304 304 336 624 624 624> 641 127<178.5 249 389 460>
VStem: 118 186<177 728.5> 336 183<177 728.5 621 728.5>
LayerCount: 2
Fore
SplineSet
304 621 m 1,0,-1
 304 177 l 1,1,-1
 336 177 l 1,2,-1
 336 621 l 1,3,-1
 624 621 l 1,4,-1
 624 208 l 2,5,6
 624 -10 624 -10 319 -10 c 0,7,8
 174 -10 174 -10 97 44 c 128,-1,9
 20 98 20 98 20 206 c 2,10,-1
 20 621 l 1,11,-1
 304 621 l 1,0,-1
139 654 m 128,-1,13
 118 667 118 667 118 703.5 c 128,-1,14
 118 740 118 740 139.5 754 c 128,-1,15
 161 768 161 768 214 768 c 128,-1,16
 267 768 267 768 287.5 754.5 c 128,-1,17
 308 741 308 741 308 704 c 128,-1,18
 308 667 308 667 288 654 c 128,-1,19
 268 641 268 641 214 641 c 128,-1,12
 160 641 160 641 139 654 c 128,-1,13
349.5 654 m 128,-1,21
 329 667 329 667 329 703.5 c 128,-1,22
 329 740 329 740 350 754 c 128,-1,23
 371 768 371 768 424.5 768 c 128,-1,24
 478 768 478 768 498.5 754.5 c 128,-1,25
 519 741 519 741 519 704 c 128,-1,26
 519 667 519 667 499 654 c 128,-1,27
 479 641 479 641 424.5 641 c 128,-1,20
 370 641 370 641 349.5 654 c 128,-1,21
EndSplineSet
EndChar

StartChar: Yacute
Encoding: 221 221 67
Width: 546
Flags: HMW
HStem: 0 21G<156 438 156 156> 601 20G<-6 272 272 272 334 605 605 605> 645 124<273 382 212 495>
LayerCount: 2
Fore
SplineSet
605 621 m 1,0,-1
 438 161 l 1,1,-1
 438 0 l 1,2,-1
 156 0 l 1,3,-1
 156 162 l 1,4,-1
 -6 621 l 1,5,-1
 272 621 l 1,6,-1
 297 417 l 1,7,-1
 309 417 l 1,8,-1
 334 621 l 1,9,-1
 605 621 l 1,0,-1
495 769 m 1,10,-1
 382 645 l 1,11,-1
 212 645 l 1,12,-1
 273 769 l 1,13,-1
 495 769 l 1,10,-1
EndSplineSet
EndChar

StartChar: Ydieresis
Encoding: 376 376 68
Width: 546
Flags: HMW
HStem: 0 21G<156 438 156 156> 601 20G<-6 272 272 272 334 605 605 605> 641 127<158.5 229 369 440>
VStem: 98 190<679 728.5 679 728.5> 309 190<679 728.5 679 728.5>
LayerCount: 2
Fore
SplineSet
605 621 m 1,0,-1
 438 161 l 1,1,-1
 438 0 l 1,2,-1
 156 0 l 1,3,-1
 156 162 l 1,4,-1
 -6 621 l 1,5,-1
 272 621 l 1,6,-1
 297 417 l 1,7,-1
 309 417 l 1,8,-1
 334 621 l 1,9,-1
 605 621 l 1,0,-1
119 654 m 128,-1,11
 98 667 98 667 98 703.5 c 128,-1,12
 98 740 98 740 119.5 754 c 128,-1,13
 141 768 141 768 194 768 c 128,-1,14
 247 768 247 768 267.5 754.5 c 128,-1,15
 288 741 288 741 288 704 c 128,-1,16
 288 667 288 667 268 654 c 128,-1,17
 248 641 248 641 194 641 c 128,-1,10
 140 641 140 641 119 654 c 128,-1,11
329.5 654 m 128,-1,19
 309 667 309 667 309 703.5 c 128,-1,20
 309 740 309 740 330 754 c 128,-1,21
 351 768 351 768 404.5 768 c 128,-1,22
 458 768 458 768 478.5 754.5 c 128,-1,23
 499 741 499 741 499 704 c 128,-1,24
 499 667 499 667 479 654 c 128,-1,25
 459 641 459 641 404.5 641 c 128,-1,18
 350 641 350 641 329.5 654 c 128,-1,19
EndSplineSet
EndChar

StartChar: Zcaron
Encoding: 381 381 69
Width: 577
Flags: HMW
HStem: 0 187<405 577> 601 20G<0 563 563 563> 642 127<172 172 172 272 307 411>
LayerCount: 2
Fore
SplineSet
577 0 m 1,0,-1
 26 1 l 1,1,-1
 18 155 l 1,2,-1
 204 417 l 1,3,-1
 13 417 l 1,4,-1
 0 621 l 1,5,-1
 563 621 l 1,6,-1
 571 467 l 1,7,-1
 405 187 l 1,8,-1
 577 187 l 1,9,-1
 577 0 l 1,0,-1
172 642 m 1,10,-1
 107 769 l 1,11,-1
 272 769 l 1,12,-1
 288 735 l 1,13,-1
 291 735 l 1,14,-1
 307 769 l 1,15,-1
 476 769 l 1,16,-1
 411 642 l 1,17,-1
 172 642 l 1,10,-1
EndSplineSet
EndChar

StartChar: ampersand
Encoding: 38 38 70
Width: 698
Flags: HMW
HStem: -10 140<258 317 258 322 648 690> 611 20G<229.5 396>
LayerCount: 2
Fore
SplineSet
279 -10 m 0,0,1
 0 -10 0 -10 0 179 c 0,2,3
 0 247 0 247 29 284.5 c 128,-1,4
 58 322 58 322 115 345 c 1,5,-1
 115 349 l 1,6,7
 59 393 59 393 59 460 c 0,8,9
 59 631 59 631 314 631 c 0,10,11
 437 631 437 631 502.5 589 c 128,-1,12
 568 547 568 547 568 472.5 c 0,13,14
 568 398 568 398 537.5 364 c 128,-1,15
 507 330 507 330 434 305 c 1,16,-1
 434 301 l 1,17,-1
 485 250 l 1,18,-1
 489 250 l 1,19,-1
 489 305 l 1,20,-1
 687 305 l 1,21,-1
 687 252 l 2,22,23
 687 174 687 174 646 134 c 1,24,-1
 648 130 l 1,25,-1
 698 130 l 1,26,-1
 690 -10 l 1,27,-1
 588 -10 l 2,28,29
 502 -10 502 -10 455 15 c 1,30,-1
 447 15 l 1,31,32
 369 -10 369 -10 279 -10 c 0,0,1
336 385 m 1,33,-1
 336 467 l 1,34,-1
 300 467 l 1,35,-1
 300 385 l 1,36,-1
 336 385 l 1,33,-1
317 130 m 1,37,-1
 238 206 l 1,38,-1
 238 149 l 2,39,40
 238 130 238 130 258 130 c 2,41,-1
 317 130 l 1,37,-1
EndSplineSet
EndChar

StartChar: a
Encoding: 97 97 71
Width: 547
Flags: HMW
HStem: -10 21G<122.5 197 404 453> 471 20G<251 376.5>
LayerCount: 2
Fore
SplineSet
525 346 m 1,0,-1
 520 174 l 2,1,2
 520 150 520 150 545 150 c 1,3,-1
 531 -6 l 1,4,5
 471 -10 471 -10 435 -10 c 0,6,7
 345 -10 345 -10 305 21 c 1,8,-1
 300 21 l 1,9,10
 240 -10 240 -10 168 -10 c 0,11,12
 0 -10 0 -10 0 136 c 0,13,14
 0 227.164383562 0 227.164383562 70.5 260 c 0,15,16
 107 277 107 277 152 284 c 128,-1,17
 197 291 197 291 266 294 c 1,18,-1
 266 315 l 1,19,-1
 38 296 l 1,20,-1
 19 472 l 1,21,22
 168 491 168 491 292.5 491 c 128,-1,23
 417 491 417 491 471 458 c 128,-1,24
 525 425 525 425 525 346 c 1,0,-1
256 196 m 1,25,-1
 256 116 l 1,26,-1
 276 116 l 1,27,-1
 276 196 l 1,28,-1
 256 196 l 1,25,-1
EndSplineSet
EndChar

StartChar: b
Encoding: 98 98 72
Width: 576
Flags: HMW
HStem: -10 21G<341 452> 0 21G<16 229 16 16> 471 20G<338.5 446> 610 20G<16 271 271 271>
LayerCount: 2
Fore
SplineSet
572 251 m 0,0,1
 572 117 572 117 529.5 53.5 c 128,-1,2
 487 -10 487 -10 367 -10 c 0,3,4
 305 -10 305 -10 233 19 c 1,5,-1
 229 0 l 1,6,-1
 16 0 l 1,7,-1
 16 630 l 1,8,-1
 271 630 l 1,9,-1
 271 480 l 1,10,11
 307 491 307 491 364.5 491 c 0,12,13
 422 491 422 491 465.5 477 c 128,-1,14
 509 463 509 463 532.5 430.5 c 128,-1,15
 556 398 556 398 564 357 c 128,-1,16
 572 316 572 316 572 251 c 0,0,1
289 131 m 1,17,-1
 289 321 l 1,18,-1
 269 321 l 1,19,-1
 269 131 l 1,20,-1
 289 131 l 1,17,-1
EndSplineSet
EndChar

StartChar: c
Encoding: 99 99 73
Width: 388
Flags: HMW
HStem: -10 198<178.5 332.5> 471 20G<180.5 292>
LayerCount: 2
Fore
SplineSet
300 271.5 m 128,-1,1
 292 262 292 262 292 233.5 c 128,-1,2
 292 205 292 205 299.5 196.5 c 128,-1,3
 307 188 307 188 320.5 188 c 128,-1,4
 334 188 334 188 372 192 c 1,5,-1
 383 1 l 1,6,7
 317 -10 317 -10 267 -10 c 0,8,9
 133 -10 133 -10 68.5 48.5 c 128,-1,10
 4 107 4 107 4 231 c 0,11,12
 4 491 4 491 270 491 c 0,13,14
 333 491 333 491 388 481 c 1,15,-1
 371 277 l 1,16,17
 333 281 333 281 320.5 281 c 128,-1,0
 308 281 308 281 300 271.5 c 128,-1,1
EndSplineSet
EndChar

StartChar: d
Encoding: 100 100 74
Width: 583
Flags: HMW
HStem: -10 21G<140.5 246.5 444 491.5> 471 20G<155 240.5> 610 20G<302 557 557 557>
LayerCount: 2
Fore
SplineSet
474 -10 m 0,0,1
 384 -10 384 -10 342 20 c 1,2,-1
 337 20 l 1,3,4
 287 -10 287 -10 222 -10 c 0,5,6
 4 -10 4 -10 4 244 c 0,7,8
 4 364 4 364 61.5 427.5 c 128,-1,9
 119 491 119 491 227 491 c 0,10,11
 254 491 254 491 302 483 c 1,12,-1
 302 630 l 1,13,-1
 557 630 l 1,14,-1
 557 173 l 2,15,16
 557 150 557 150 581 150 c 1,17,-1
 567 -5 l 1,18,19
 500 -10 500 -10 474 -10 c 0,0,1
309 131 m 1,20,-1
 309 321 l 1,21,-1
 289 321 l 1,22,-1
 289 131 l 1,23,-1
 309 131 l 1,20,-1
EndSplineSet
EndChar

StartChar: e
Encoding: 101 101 75
Width: 543
Flags: HMW
HStem: -10 167<185.5 384> 471 20G<194.5 389.5>
LayerCount: 2
Fore
SplineSet
541 298 m 0,0,1
 541 255 541 255 533 180 c 1,2,-1
 268 180 l 1,3,-1
 268 162 l 1,4,5
 311 157 311 157 354 157 c 0,6,7
 397 157 397 157 515 163 c 1,8,-1
 525 12 l 1,9,10
 388 -10 388 -10 280 -10 c 0,11,12
 2 -10 2 -10 2 237 c 0,13,14
 2 491 2 491 291 491 c 0,15,16
 430 491 430 491 485.5 441.5 c 128,-1,17
 541 392 541 392 541 298 c 0,0,1
287 254 m 1,18,-1
 287 333 l 1,19,-1
 267 333 l 1,20,-1
 267 254 l 1,21,-1
 287 254 l 1,18,-1
EndSplineSet
EndChar

StartChar: f
Encoding: 102 102 76
Width: 321
Flags: HMW
HStem: 0 21G<27 289 27 27> 471 20G<285 327 285 285> 620 20G<137 218>
LayerCount: 2
Fore
SplineSet
200 640 m 0,0,1
 248 640 248 640 336 634 c 1,2,-1
 327 491 l 1,3,-1
 285 491 l 1,4,-1
 285 474 l 1,5,-1
 326 474 l 1,6,-1
 320 325 l 1,7,-1
 289 325 l 1,8,-1
 289 0 l 1,9,-1
 27 0 l 1,10,-1
 27 325 l 1,11,-1
 0 325 l 1,12,-1
 0 474 l 1,13,-1
 27 474 l 1,14,-1
 27 493 l 2,15,16
 27 569 27 569 67 604.5 c 128,-1,17
 107 640 107 640 200 640 c 0,0,1
EndSplineSet
EndChar

StartChar: g
Encoding: 103 103 77
Width: 554
Flags: HMW
HStem: -147 122<210 348> -7 130<210 409 210 353> 471 20G<235 554 554 554>
LayerCount: 2
Fore
SplineSet
235 491 m 2,0,-1
 554 491 l 1,1,-1
 554 366 l 1,2,-1
 503 366 l 1,3,-1
 503 361 l 1,4,5
 528 334 528 334 528 287 c 0,6,7
 528 212 528 212 483.5 176.5 c 128,-1,8
 439 141 439 141 340 141 c 2,9,-1
 210 141 l 1,10,-1
 210 123 l 1,11,-1
 409 123 l 2,12,13
 481 123 481 123 514 97 c 128,-1,14
 547 71 547 71 547 17 c 0,15,16
 547 -63 547 -63 471.5 -105 c 128,-1,17
 396 -147 396 -147 253 -147 c 0,18,19
 66.1 -147 66.1 -147 27 -101 c 0,20,21
 10 -81 10 -81 10 -45 c 128,-1,22
 10 -9 10 -9 50 9 c 1,23,-1
 50 13 l 1,24,25
 2 33 2 33 2 88 c 0,26,27
 2 155 2 155 77 179 c 1,28,-1
 77 184 l 1,29,30
 6 229 6 229 6 319.5 c 128,-1,31
 6 410 6 410 63.5 450.5 c 128,-1,32
 121 491 121 491 235 491 c 2,0,-1
210 -7 m 1,33,-1
 210 -25 l 1,34,-1
 353 -25 l 1,35,-1
 353 -7 l 1,36,-1
 210 -7 l 1,33,-1
266 340 m 1,37,-1
 266 245 l 1,38,-1
 286 245 l 1,39,-1
 286 340 l 1,40,-1
 266 340 l 1,37,-1
EndSplineSet
EndChar

StartChar: h
Encoding: 104 104 78
Width: 570
Flags: HMW
HStem: 0 21G<10 273 10 10 293 560 293 293> 471 20G<371 455.5> 610 20G<10 265 265 265>
LayerCount: 2
Fore
SplineSet
400 491 m 128,-1,1
 480 491 480 491 520 452.5 c 128,-1,2
 560 414 560 414 560 349 c 2,3,-1
 560 0 l 1,4,-1
 293 0 l 1,5,-1
 293 299 l 1,6,-1
 273 299 l 1,7,-1
 273 0 l 1,8,-1
 10 0 l 1,9,-1
 10 630 l 1,10,-1
 265 630 l 1,11,-1
 265 465 l 1,12,0
 320 491 320 491 400 491 c 128,-1,1
EndSplineSet
EndChar

StartChar: i
Encoding: 105 105 79
Width: 282
Flags: HMW
HStem: 0 21G<10 272 10 10> 477 168<84.5 154 123 154 123 154>
LayerCount: 2
Fore
SplineSet
272 0 m 1,0,-1
 10 0 l 1,1,-1
 10 464 l 1,2,-1
 272 464 l 1,3,-1
 272 0 l 1,0,-1
10 556 m 2,4,-1
 10 567 l 2,5,6
 10 645 10 645 123 645 c 2,7,-1
 154 645 l 2,8,9
 272 645 272 645 272 567 c 2,10,-1
 272 556 l 2,11,12
 272 477 272 477 154 477 c 2,13,-1
 122 477 l 2,14,15
 10 477 10 477 10 556 c 2,4,-1
EndSplineSet
EndChar

StartChar: j
Encoding: 106 106 80
Width: 296
Flags: HMW
HStem: -137 21G<8 79 8 8> 0 21G<0 24 24 24> 478 168<93.5 163 132 163 132 163>
LayerCount: 2
Fore
SplineSet
286 464 m 1,0,-1
 286 2 l 2,1,2
 286 -76 286 -76 239.5 -106.5 c 128,-1,3
 193 -137 193 -137 79 -137 c 2,4,-1
 8 -137 l 1,5,-1
 0 0 l 1,6,-1
 24 0 l 1,7,-1
 24 464 l 1,8,-1
 286 464 l 1,0,-1
19 557 m 2,9,-1
 19 568 l 2,10,11
 19 646 19 646 132 646 c 2,12,-1
 163 646 l 2,13,14
 281 646 281 646 281 568 c 2,15,-1
 281 557 l 2,16,17
 281 478 281 478 163 478 c 2,18,-1
 131 478 l 2,19,20
 19 478 19 478 19 557 c 2,9,-1
EndSplineSet
EndChar

StartChar: k
Encoding: 107 107 81
Width: 561
Flags: HMW
HStem: 0 21G<10 259 10 10 297 563 297 297> 459 20G<303 566 566 566> 610 20G<10 259 259 259>
LayerCount: 2
Fore
SplineSet
563 0 m 1,0,-1
 297 0 l 1,1,-1
 269 177 l 1,2,-1
 259 177 l 1,3,-1
 259 0 l 1,4,-1
 10 0 l 1,5,-1
 10 630 l 1,6,-1
 259 630 l 1,7,-1
 259 291 l 1,8,-1
 269 291 l 1,9,-1
 303 479 l 1,10,-1
 566 479 l 1,11,-1
 525 283 l 2,12,13
 519 254 519 254 492 240 c 1,14,-1
 492 236 l 1,15,16
 521 226 521 226 526 195 c 2,17,-1
 563 0 l 1,0,-1
EndSplineSet
EndChar

StartChar: l
Encoding: 108 108 82
Width: 297
Flags: HMW
HStem: -10 21G<127 186 186 287> 610 20G<10 269 269 269>
LayerCount: 2
Fore
SplineSet
10 125 m 2,0,-1
 10 630 l 1,1,-1
 269 630 l 1,2,-1
 269 190 l 2,3,4
 269 166 269 166 295 166 c 1,5,-1
 287 -10 l 1,6,-1
 186 -10 l 2,7,8
 10 -10 10 -10 10 125 c 2,0,-1
EndSplineSet
EndChar

StartChar: m
Encoding: 109 109 83
Width: 858
Flags: HMW
HStem: 0 21G<10 273 10 10 293 561 293 293 581 848 581 581> 459 20G<10 252 252 252> 471 20G<372 434 641 741.5>
LayerCount: 2
Fore
SplineSet
679 491 m 0,0,1
 848 491 848 491 848 354 c 2,2,-1
 848 0 l 1,3,-1
 581 0 l 1,4,-1
 581 299 l 1,5,-1
 561 299 l 1,6,-1
 561 0 l 1,7,-1
 293 0 l 1,8,-1
 293 299 l 1,9,-1
 273 299 l 1,10,-1
 273 0 l 1,11,-1
 10 0 l 1,12,-1
 10 479 l 1,13,-1
 252 479 l 1,14,-1
 256 452 l 1,15,16
 334 491 334 491 407 491 c 0,17,18
 480 491 480 491 525 448 c 1,19,20
 596 491 596 491 679 491 c 0,0,1
EndSplineSet
EndChar

StartChar: n
Encoding: 110 110 84
Width: 570
Flags: HMW
HStem: 0 21G<10 273 10 10 293 560 293 293> 459 20G<10 252 252 252> 471 20G<369 455.5>
LayerCount: 2
Fore
SplineSet
256 452 m 1,0,1
 336 491 336 491 408 491 c 128,-1,2
 480 491 480 491 520 452.5 c 128,-1,3
 560 414 560 414 560 349 c 2,4,-1
 560 0 l 1,5,-1
 293 0 l 1,6,-1
 293 299 l 1,7,-1
 273 299 l 1,8,-1
 273 0 l 1,9,-1
 10 0 l 1,10,-1
 10 479 l 1,11,-1
 252 479 l 1,12,-1
 256 452 l 1,0,1
EndSplineSet
EndChar

StartChar: o
Encoding: 111 111 85
Width: 568
Flags: HMW
HStem: -10 21G<188.5 385.5> 471 20G<191 383>
LayerCount: 2
Fore
SplineSet
72.5 432 m 128,-1,1
 141 491 141 491 286 491 c 128,-1,2
 431 491 431 491 497.5 433 c 128,-1,3
 564 375 564 375 564 242.5 c 128,-1,4
 564 110 564 110 499.5 50 c 128,-1,5
 435 -10 435 -10 287 -10 c 128,-1,6
 139 -10 139 -10 71.5 50 c 128,-1,7
 4 110 4 110 4 241.5 c 128,-1,0
 4 373 4 373 72.5 432 c 128,-1,1
296 131 m 1,8,-1
 296 321 l 1,9,-1
 276 321 l 1,10,-1
 276 131 l 1,11,-1
 296 131 l 1,8,-1
EndSplineSet
EndChar

StartChar: p
Encoding: 112 112 86
Width: 570
Flags: HMW
HStem: -137 21G<10 273 10 10> -10 21G<333 434> 459 20G<10 246> 471 20G<341.5 446>
LayerCount: 2
Fore
SplineSet
345 -10 m 0,0,1
 316 -10 316 -10 273 0 c 1,2,-1
 273 -137 l 1,3,-1
 10 -137 l 1,4,-1
 10 479 l 1,5,-1
 242 479 l 1,6,-1
 246 459 l 1,7,8
 296 491 296 491 367 491 c 0,9,10
 482 491 482 491 524 435 c 128,-1,11
 566 379 566 379 566 246 c 0,12,13
 566 113 566 113 519.5 51.5 c 128,-1,14
 473 -10 473 -10 345 -10 c 0,0,1
283 131 m 1,15,-1
 283 321 l 1,16,-1
 263 321 l 1,17,-1
 263 131 l 1,18,-1
 283 131 l 1,15,-1
EndSplineSet
EndChar

StartChar: q
Encoding: 113 113 87
Width: 572
Flags: HMW
HStem: -137 21G<299 562 299 299> -10 21G<145.5 245.5> 459 20G<329 562 562 562> 471 20G<140 236.5>
LayerCount: 2
Fore
SplineSet
55.5 53.5 m 128,-1,1
 4 117 4 117 4 239.5 c 128,-1,2
 4 362 4 362 56 426.5 c 128,-1,3
 108 491 108 491 207 491 c 0,4,5
 272 491 272 491 326 461 c 1,6,-1
 329 479 l 1,7,-1
 562 479 l 1,8,-1
 562 -137 l 1,9,-1
 299 -137 l 1,10,-1
 299 -1 l 1,11,12
 267 -10 267 -10 232 -10 c 0,13,0
 107 -10 107 -10 55.5 53.5 c 128,-1,1
309 131 m 1,14,-1
 309 321 l 1,15,-1
 289 321 l 1,16,-1
 289 131 l 1,17,-1
 309 131 l 1,14,-1
EndSplineSet
EndChar

StartChar: r
Encoding: 114 114 88
Width: 349
Flags: HMW
HStem: 0 21G<10 273 10 10> 459 20G<10 230 230 230> 463 20G<320.5 347>
LayerCount: 2
Fore
SplineSet
273 228 m 2,0,-1
 273 0 l 1,1,-1
 10 0 l 1,2,-1
 10 479 l 1,3,-1
 230 479 l 1,4,-1
 232 454 l 1,5,-1
 236 454 l 1,6,7
 266 483 266 483 347 483 c 1,8,-1
 336 277 l 1,9,-1
 324 277 l 2,10,11
 296 277 296 277 284.5 267 c 128,-1,12
 273 257 273 257 273 228 c 2,0,-1
EndSplineSet
EndChar

StartChar: s
Encoding: 115 115 89
Width: 464
Flags: HMW
HStem: -10 21G<205.5 318.5> 471 20G<159.5 272.5>
LayerCount: 2
Fore
SplineSet
61.5 447.5 m 128,-1,1
 121 491 121 491 235 491 c 128,-1,2
 349 491 349 491 453 472 c 1,3,-1
 439 312 l 1,4,-1
 248 333 l 1,5,-1
 248 319 l 1,6,7
 305 314 305 314 341.5 305.5 c 128,-1,8
 378 297 378 297 407 279 c 0,9,10
 462 244.862068966 462 244.862068966 462 154 c 0,11,12
 462 -10 462 -10 243 -10 c 0,13,14
 127 -10 127 -10 10 9 c 1,15,-1
 17 165 l 1,16,-1
 222 141 l 1,17,-1
 222 155 l 1,18,19
 166 163 166 163 130.5 172 c 128,-1,20
 95 181 95 181 63 198.5 c 0,21,22
 2 231.859375 2 231.859375 2 317.9296875 c 128,-1,0
 2 404 2 404 61.5 447.5 c 128,-1,1
EndSplineSet
EndChar

StartChar: t
Encoding: 116 116 90
Width: 345
Flags: HMW
HStem: -10 21G<140.5 225.5> 459 20G<0 38 38 38 289 343 343 343> 551 20G<50 289 289 289>
LayerCount: 2
Fore
SplineSet
201 -10 m 0,0,1
 110 -10 110 -10 68.5 23.5 c 128,-1,2
 27 57 27 57 27 132 c 2,3,-1
 27 325 l 1,4,-1
 0 325 l 1,5,-1
 0 479 l 1,6,-1
 38 479 l 1,7,-1
 50 571 l 1,8,-1
 289 571 l 1,9,-1
 289 479 l 1,10,-1
 343 479 l 1,11,-1
 336 325 l 1,12,-1
 289 325 l 1,13,-1
 289 190 l 2,14,15
 289 168 289 168 310 168 c 2,16,-1
 334 168 l 1,17,-1
 328 0 l 1,18,19
 254 -10 254 -10 201 -10 c 0,0,1
EndSplineSet
EndChar

StartChar: u
Encoding: 117 117 91
Width: 570
Flags: HMW
HStem: -10 21G<105 189> 0 21G<307 560 307 307> 459 20G<10 276 276 276 296 560 560 560>
LayerCount: 2
Fore
SplineSet
153 -10 m 0,0,1
 10 -10 10 -10 10 127 c 2,2,-1
 10 479 l 1,3,-1
 276 479 l 1,4,-1
 276 170 l 1,5,-1
 296 170 l 1,6,-1
 296 479 l 1,7,-1
 560 479 l 1,8,-1
 560 0 l 1,9,-1
 307 0 l 1,10,-1
 307 32 l 1,11,-1
 303 32 l 1,12,13
 230 -10 230 -10 153 -10 c 0,0,1
EndSplineSet
EndChar

StartChar: v
Encoding: 118 118 92
Width: 554
Flags: HMW
HStem: 0 21G<87 468 87 87> 459 20G<-10 265 265 265 305 564 564 564>
VStem: 272 24
LayerCount: 2
Fore
SplineSet
564 479 m 1,0,-1
 468 0 l 1,1,-1
 87 0 l 1,2,-1
 -10 479 l 1,3,-1
 265 479 l 1,4,-1
 280 263 l 1,5,-1
 288 263 l 1,6,-1
 305 479 l 1,7,-1
 564 479 l 1,0,-1
EndSplineSet
EndChar

StartChar: w
Encoding: 119 119 93
Width: 728
Flags: HMW
HStem: 0 21G<56 348 56 56 391 671 391 391> 459 20G<0 230 230 230 263 472 472 472 505 728 728 728>
VStem: 235 21 479 21
LayerCount: 2
Fore
SplineSet
728 479 m 1,0,-1
 671 0 l 1,1,-1
 391 0 l 1,2,-1
 370 151 l 1,3,-1
 364 151 l 1,4,-1
 348 0 l 1,5,-1
 56 0 l 1,6,-1
 0 479 l 1,7,-1
 230 479 l 1,8,-1
 241 293 l 1,9,-1
 249 293 l 1,10,-1
 263 479 l 1,11,-1
 472 479 l 1,12,-1
 486 293 l 1,13,-1
 495 293 l 1,14,-1
 505 479 l 1,15,-1
 728 479 l 1,0,-1
EndSplineSet
EndChar

StartChar: x
Encoding: 120 120 94
Width: 575
Flags: HMW
HStem: 0 21G<0 266 0 0 306 575 306 306> 459 20G<1 272 272 272 310 572 572 572>
LayerCount: 2
Fore
SplineSet
575 0 m 1,0,-1
 306 0 l 1,1,-1
 290 115 l 1,2,-1
 282 115 l 1,3,-1
 266 0 l 1,4,-1
 0 0 l 1,5,-1
 85 234 l 1,6,-1
 1 479 l 1,7,-1
 272 479 l 1,8,-1
 287 344 l 1,9,-1
 295 344 l 1,10,-1
 310 479 l 1,11,-1
 572 479 l 1,12,-1
 490 235 l 1,13,-1
 575 0 l 1,0,-1
EndSplineSet
EndChar

StartChar: y
Encoding: 121 121 95
Width: 552
Flags: HMW
HStem: -137 169<43 87 87 92 25 222 43 43> 459 20G<-8 265 265 265 310 560 560 560>
LayerCount: 2
Fore
SplineSet
560 479 m 1,0,-1
 445 -7 l 2,1,2
 428 -76 428 -76 378 -106.5 c 128,-1,3
 328 -137 328 -137 222 -137 c 2,4,-1
 43 -137 l 1,5,-1
 25 32 l 1,6,-1
 87 32 l 2,7,8
 100 32 100 32 100 46 c 0,9,10
 100 53 100 53 93 74 c 1,11,-1
 -8 479 l 1,12,-1
 265 479 l 1,13,-1
 282 252 l 1,14,-1
 290 252 l 1,15,-1
 310 479 l 1,16,-1
 560 479 l 1,0,-1
EndSplineSet
EndChar

StartChar: z
Encoding: 122 122 96
Width: 474
Flags: HMW
HStem: 0 176<353 472 353 472> 301 178<12 135 12 12>
LayerCount: 2
Fore
SplineSet
472 0 m 1,0,-1
 22 0 l 1,1,-1
 14 130 l 1,2,-1
 135 301 l 1,3,-1
 12 301 l 1,4,-1
 2 479 l 1,5,-1
 460 479 l 1,6,-1
 468 356 l 1,7,-1
 353 176 l 1,8,-1
 472 176 l 1,9,-1
 472 0 l 1,0,-1
EndSplineSet
EndChar

StartChar: eth
Encoding: 240 240 97
Width: 570
Flags: HMW
HStem: -10 21G<198 388.5> 501 153<56 118.5 56 143 56 118.5> 653 20G<475 475>
LayerCount: 2
Fore
SplineSet
233 401 m 0,0,1
 268 401 268 401 300 397 c 1,2,-1
 301 400 l 1,3,4
 282 422 282 422 254 435 c 1,5,-1
 122 397 l 1,6,-1
 122 490 l 1,7,-1
 143 496 l 1,8,-1
 143 501 l 1,9,-1
 56 501 l 1,10,-1
 56 654 l 1,11,12
 227 654 227 654 340 621 c 1,13,-1
 475 673 l 1,14,-1
 475 541 l 1,15,-1
 453 530 l 1,16,17
 566 426 566 426 566 265 c 0,18,19
 566 132 566 132 500 61 c 128,-1,20
 434 -10 434 -10 292.5 -10 c 0,21,22
 4 -10 4 -10 4 208 c 0,23,24
 4 401 4 401 233 401 c 0,0,1
295 131 m 1,25,-1
 295 261 l 1,26,-1
 275 261 l 1,27,-1
 275 131 l 1,28,-1
 295 131 l 1,25,-1
EndSplineSet
EndChar

StartChar: thorn
Encoding: 254 254 98
Width: 570
Flags: HMW
HStem: -136 21G<10 273 10 10> -10 21G<341 442.5> 471 20G<340.5 442> 620 20G<10 265 265 265>
LayerCount: 2
Fore
SplineSet
361 -10 m 0,0,1
 316 -10 316 -10 273 0 c 1,2,-1
 273 -136 l 1,3,-1
 10 -136 l 1,4,-1
 10 640 l 1,5,-1
 265 640 l 1,6,-1
 265 478 l 1,7,8
 308 491 308 491 363 491 c 0,9,10
 477 491 477 491 521.5 432 c 128,-1,11
 566 373 566 373 566 244 c 0,12,13
 566 115 566 115 522 52.5 c 128,-1,14
 478 -10 478 -10 361 -10 c 0,0,1
283 131 m 1,15,-1
 283 321 l 1,16,-1
 263 321 l 1,17,-1
 263 131 l 1,18,-1
 283 131 l 1,15,-1
EndSplineSet
EndChar

StartChar: germandbls
Encoding: 223 223 99
Width: 613
Flags: HMW
HStem: -6 21G<376 472> 0 21G<27 280 27 27 295 295> 630 20G<216 406>
LayerCount: 2
Fore
SplineSet
316 364 m 1,0,-1
 316 468 l 1,1,-1
 280 468 l 1,2,-1
 280 0 l 1,3,-1
 27 0 l 1,4,-1
 27 327 l 1,5,-1
 -6 327 l 1,6,-1
 -6 465 l 1,7,-1
 27 465 l 1,8,-1
 27 471 l 2,9,10
 27 563 27 563 97 606.5 c 128,-1,11
 167 650 167 650 309 650 c 0,12,13
 597 650 597 650 597 458 c 0,14,15
 597 408 597 408 585.5 380 c 128,-1,16
 574 352 574 352 537 330 c 1,17,-1
 537 326 l 1,18,19
 577 309 577 309 593 276 c 128,-1,20
 609 243 609 243 609 183 c 0,21,22
 609 89 609 89 558.5 41.5 c 128,-1,23
 508 -6 508 -6 392 -6 c 0,24,25
 365 -6 365 -6 295 0 c 1,26,-1
 295 127 l 1,27,-1
 316 127 l 1,28,-1
 316 250 l 1,29,-1
 295 250 l 1,30,-1
 295 364 l 1,31,-1
 316 364 l 1,0,-1
EndSplineSet
EndChar

StartChar: ae
Encoding: 230 230 100
Width: 808
Flags: HMW
HStem: -10 167<501.5 649> 471 20G<251 328.5 531.5 654.5>
LayerCount: 2
Fore
SplineSet
806 298 m 0,0,1
 806 255 806 255 798 180 c 1,2,-1
 533 180 l 1,3,-1
 533 162 l 1,4,5
 576 157 576 157 619 157 c 128,-1,6
 662 157 662 157 780 163 c 1,7,-1
 790 12 l 1,8,9
 652 -10 652 -10 541 -10 c 128,-1,10
 430 -10 430 -10 355 21 c 1,11,-1
 350 21 l 1,12,13
 267 -10 267 -10 168 -10 c 0,14,15
 0 -10 0 -10 0 136 c 0,16,17
 0 227.164383562 0 227.164383562 70.5 260 c 0,18,19
 107 277 107 277 152 284 c 128,-1,20
 197 291 197 291 266 294 c 1,21,-1
 266 315 l 1,22,-1
 38 296 l 1,23,-1
 19 472 l 1,24,25
 168 491 168 491 275.5 491 c 128,-1,26
 383 491 383 491 432 475 c 1,27,28
 483 491 483 491 556 491 c 0,29,30
 695 491 695 491 750.5 441.5 c 128,-1,31
 806 392 806 392 806 298 c 0,0,1
256 196 m 1,32,-1
 256 116 l 1,33,-1
 276 116 l 1,34,-1
 276 196 l 1,35,-1
 256 196 l 1,32,-1
552 254 m 1,36,-1
 552 333 l 1,37,-1
 532 333 l 1,38,-1
 532 254 l 1,39,-1
 552 254 l 1,36,-1
EndSplineSet
EndChar

StartChar: oe
Encoding: 339 339 101
Width: 839
Flags: HMW
HStem: -10 167<545.5 678> 471 20G<191 319 554.5 683.5>
LayerCount: 2
Fore
SplineSet
835 298 m 0,0,1
 835 255 835 255 827 180 c 1,2,-1
 562 180 l 1,3,-1
 562 162 l 1,4,5
 605 157 605 157 648 157 c 0,6,7
 691 157 691 157 809 163 c 1,8,-1
 819 12 l 1,9,10
 681 -10 681 -10 586 -10 c 0,11,12
 491 -10 491 -10 434 13 c 1,13,14
 381 -10 381 -10 288 -10 c 0,15,16
 139 -10 139 -10 71.5 50 c 128,-1,17
 4 110 4 110 4 241.5 c 0,18,19
 4 373 4 373 72.5 432 c 128,-1,20
 141 491 141 491 288 491 c 0,21,22
 381 491 381 491 437 466 c 1,23,24
 493 491 493 491 585 491 c 0,25,26
 724 491 724 491 779.5 441.5 c 128,-1,27
 835 392 835 392 835 298 c 0,0,1
296 131 m 1,28,-1
 296 321 l 1,29,-1
 276 321 l 1,30,-1
 276 131 l 1,31,-1
 296 131 l 1,28,-1
581 254 m 1,32,-1
 581 333 l 1,33,-1
 561 333 l 1,34,-1
 561 254 l 1,35,-1
 581 254 l 1,32,-1
EndSplineSet
EndChar

StartChar: ff
Encoding: 64256 64256 102
Width: 616
Flags: HMW
HStem: 0 21G<27 289 27 27 322 584 322 322> 471 20G<285 311 285 285 580 622 580 580> 630 20G<135 218 439.5 523>
LayerCount: 2
Fore
SplineSet
505 650 m 0,0,1
 543 650 543 650 631 644 c 1,2,-1
 622 491 l 1,3,-1
 580 491 l 1,4,-1
 580 474 l 1,5,-1
 621 474 l 1,6,-1
 615 325 l 1,7,-1
 584 325 l 1,8,-1
 584 0 l 1,9,-1
 322 0 l 1,10,-1
 322 325 l 1,11,-1
 289 325 l 1,12,-1
 289 0 l 1,13,-1
 27 0 l 1,14,-1
 27 325 l 1,15,-1
 0 325 l 1,16,-1
 0 474 l 1,17,-1
 27 474 l 1,18,-1
 27 503 l 2,19,20
 27 578 27 578 66.5 614 c 128,-1,21
 106 650 106 650 200 650 c 0,22,23
 250 650 250 650 318 644 c 1,24,-1
 311 491 l 1,25,-1
 285 491 l 1,26,-1
 285 474 l 1,27,-1
 322 474 l 1,28,-1
 322 493 l 2,29,30
 322 650 322 650 505 650 c 0,0,1
EndSplineSet
EndChar

StartChar: fi
Encoding: 64257 64257 103
Width: 595
Flags: HMW
HStem: 0 21G<27 289 27 27 322 584 322 322> 471 20G<285 307 285 285> 477 163 625 20G<436 467 467 508>
LayerCount: 2
Fore
SplineSet
584 0 m 1,0,-1
 322 0 l 1,1,-1
 322 315 l 1,2,-1
 289 315 l 1,3,-1
 289 0 l 1,4,-1
 27 0 l 1,5,-1
 27 325 l 1,6,-1
 0 325 l 1,7,-1
 0 474 l 1,8,-1
 27 474 l 1,9,-1
 27 483 l 2,10,11
 27 640 27 640 210 640 c 0,12,13
 262 640 262 640 313 634 c 1,14,-1
 307 491 l 1,15,-1
 285 491 l 1,16,-1
 285 464 l 1,17,-1
 584 464 l 1,18,-1
 584 0 l 1,0,-1
323 556 m 2,19,-1
 323 567 l 2,20,21
 323 645 323 645 436 645 c 2,22,-1
 467 645 l 2,23,24
 585 645 585 645 585 567 c 2,25,-1
 585 556 l 2,26,27
 585 477 585 477 467 477 c 2,28,-1
 435 477 l 2,29,30
 323 477 323 477 323 556 c 2,19,-1
EndSplineSet
EndChar

StartChar: fj
Encoding: 65537 -1 104
Width: 594
Flags: HMW
HStem: -137 21G<307 377 307 307> 0 21G<27 289 27 27 298 322 322 322> 471 20G<285 307 285 285> 478 172
LayerCount: 2
Fore
SplineSet
584 464 m 1,0,-1
 584 2 l 2,1,2
 584 -76 584 -76 537.5 -106.5 c 128,-1,3
 491 -137 491 -137 377 -137 c 2,4,-1
 307 -137 l 1,5,-1
 298 0 l 1,6,-1
 322 0 l 1,7,-1
 322 315 l 1,8,-1
 289 315 l 1,9,-1
 289 0 l 1,10,-1
 27 0 l 1,11,-1
 27 325 l 1,12,-1
 0 325 l 1,13,-1
 0 474 l 1,14,-1
 27 474 l 1,15,-1
 27 503 l 2,16,17
 27 578 27 578 66.5 614 c 128,-1,18
 106 650 106 650 200 650 c 0,19,20
 262 650 262 650 313 644 c 1,21,-1
 307 491 l 1,22,-1
 285 491 l 1,23,-1
 285 464 l 1,24,-1
 584 464 l 1,0,-1
322 557 m 2,25,-1
 322 568 l 2,26,27
 322 646 322 646 435 646 c 2,28,-1
 466 646 l 2,29,30
 584 646 584 646 584 568 c 2,31,-1
 584 557 l 2,32,33
 584 478 584 478 466 478 c 2,34,-1
 434 478 l 2,35,36
 322 478 322 478 322 557 c 2,25,-1
EndSplineSet
EndChar

StartChar: fl
Encoding: 64258 64258 105
Width: 609
Flags: HMW
HStem: -10 21G<439 498 498 599> 0 21G<27 289 27 27> 471 20G<285 306 285 285> 620 20G<144.5 228.5 324 581 581 581>
LayerCount: 2
Fore
SplineSet
210 640 m 0,0,1
 249 640 249 640 312 631 c 1,2,-1
 306 491 l 1,3,-1
 285 491 l 1,4,-1
 285 464 l 1,5,-1
 324 464 l 1,6,-1
 324 640 l 1,7,-1
 581 640 l 1,8,-1
 581 190 l 2,9,10
 581 166 581 166 607 166 c 1,11,-1
 599 -10 l 1,12,-1
 498 -10 l 2,13,14
 322 -10 322 -10 322 125 c 2,15,-1
 322 315 l 1,16,-1
 289 315 l 1,17,-1
 289 0 l 1,18,-1
 27 0 l 1,19,-1
 27 325 l 1,20,-1
 0 325 l 1,21,-1
 0 474 l 1,22,-1
 27 474 l 1,23,-1
 27 483 l 2,24,25
 27 640 27 640 210 640 c 0,0,1
EndSplineSet
EndChar

StartChar: ffi
Encoding: 64259 64259 106
Width: 889
Flags: HMW
HStem: 0 21G<27 289 27 27 322 584 322 322 617 879 617 617> 325 139 471 20G<285 311 285 285 580 580 580 602> 477 173
LayerCount: 2
Fore
SplineSet
879 0 m 1,0,-1
 617 0 l 1,1,-1
 617 315 l 1,2,-1
 584 315 l 1,3,-1
 584 0 l 1,4,-1
 322 0 l 1,5,-1
 322 325 l 1,6,-1
 289 325 l 1,7,-1
 289 0 l 1,8,-1
 27 0 l 1,9,-1
 27 325 l 1,10,-1
 0 325 l 1,11,-1
 0 474 l 1,12,-1
 27 474 l 1,13,-1
 27 503 l 2,14,15
 27 578 27 578 66.5 614 c 128,-1,16
 106 650 106 650 200 650 c 0,17,18
 250 650 250 650 318 644 c 1,19,-1
 311 491 l 1,20,-1
 285 491 l 1,21,-1
 285 474 l 1,22,-1
 322 474 l 1,23,-1
 322 503 l 2,24,25
 322 578 322 578 361.5 614 c 128,-1,26
 401 650 401 650 495 650 c 0,27,28
 557 650 557 650 608 644 c 1,29,-1
 602 491 l 1,30,-1
 580 491 l 1,31,-1
 580 464 l 1,32,-1
 879 464 l 1,33,-1
 879 0 l 1,0,-1
617 556 m 2,34,-1
 617 567 l 2,35,36
 617 645 617 645 730 645 c 2,37,-1
 761 645 l 2,38,39
 879 645 879 645 879 567 c 2,40,-1
 879 556 l 2,41,42
 879 477 879 477 761 477 c 2,43,-1
 729 477 l 2,44,45
 617 477 617 477 617 556 c 2,34,-1
EndSplineSet
EndChar

StartChar: ffl
Encoding: 64260 64260 107
Width: 904
Flags: HMW
HStem: -10 21G<734 793 793 894> 0 21G<27 289 27 27 322 584 322 322> 471 20G<285 311 285 285 580 602 580 580> 630 20G<135 218 430 510.5>
LayerCount: 2
Fore
SplineSet
495 650 m 0,0,1
 557 650 557 650 608 644 c 1,2,-1
 602 491 l 1,3,-1
 580 491 l 1,4,-1
 580 464 l 1,5,-1
 617 464 l 1,6,-1
 617 640 l 1,7,-1
 876 640 l 1,8,-1
 876 190 l 2,9,10
 876 166 876 166 902 166 c 1,11,-1
 894 -10 l 1,12,-1
 793 -10 l 2,13,14
 617 -10 617 -10 617 125 c 2,15,-1
 617 315 l 1,16,-1
 584 315 l 1,17,-1
 584 0 l 1,18,-1
 322 0 l 1,19,-1
 322 325 l 1,20,-1
 289 325 l 1,21,-1
 289 0 l 1,22,-1
 27 0 l 1,23,-1
 27 325 l 1,24,-1
 0 325 l 1,25,-1
 0 474 l 1,26,-1
 27 474 l 1,27,-1
 27 503 l 2,28,29
 27 578 27 578 66.5 614 c 128,-1,30
 106 650 106 650 200 650 c 0,31,32
 250 650 250 650 318 644 c 1,33,-1
 311 491 l 1,34,-1
 285 491 l 1,35,-1
 285 474 l 1,36,-1
 322 474 l 1,37,-1
 322 503 l 2,38,39
 322 578 322 578 361.5 614 c 128,-1,40
 401 650 401 650 495 650 c 0,0,1
EndSplineSet
EndChar

StartChar: agrave
Encoding: 224 224 108
Width: 547
Flags: HMW
HStem: -10 21G<122.5 197 404 453> 471 20G<251 376.5> 511 130<210 210 210 325 91 389>
LayerCount: 2
Fore
SplineSet
525 346 m 1,0,-1
 520 174 l 2,1,2
 520 150 520 150 545 150 c 1,3,-1
 531 -6 l 1,4,5
 471 -10 471 -10 435 -10 c 0,6,7
 345 -10 345 -10 305 21 c 1,8,-1
 300 21 l 1,9,10
 240 -10 240 -10 168 -10 c 0,11,12
 0 -10 0 -10 0 136 c 0,13,14
 0 227.164383562 0 227.164383562 70.5 260 c 0,15,16
 107 277 107 277 152 284 c 128,-1,17
 197 291 197 291 266 294 c 1,18,-1
 266 315 l 1,19,-1
 38 296 l 1,20,-1
 19 472 l 1,21,22
 168 491 168 491 292.5 491 c 128,-1,23
 417 491 417 491 471 458 c 128,-1,24
 525 425 525 425 525 346 c 1,0,-1
256 196 m 1,25,-1
 256 116 l 1,26,-1
 276 116 l 1,27,-1
 276 196 l 1,28,-1
 256 196 l 1,25,-1
210 511 m 1,29,-1
 91 641 l 1,30,-1
 325 641 l 1,31,-1
 389 511 l 1,32,-1
 210 511 l 1,29,-1
EndSplineSet
EndChar

StartChar: acircumflex
Encoding: 226 226 109
Width: 547
Flags: HMW
HStem: -10 21G<122.5 197 404 453> 471 20G<251 376.5> 501 134<146 256 78 398 292 398 146 466 292 292>
LayerCount: 2
Fore
SplineSet
525 346 m 1,0,-1
 520 174 l 2,1,2
 520 150 520 150 545 150 c 1,3,-1
 531 -6 l 1,4,5
 471 -10 471 -10 435 -10 c 0,6,7
 345 -10 345 -10 305 21 c 1,8,-1
 300 21 l 1,9,10
 240 -10 240 -10 168 -10 c 0,11,12
 0 -10 0 -10 0 136 c 0,13,14
 0 227.164383562 0 227.164383562 70.5 260 c 0,15,16
 107 277 107 277 152 284 c 128,-1,17
 197 291 197 291 266 294 c 1,18,-1
 266 315 l 1,19,-1
 38 296 l 1,20,-1
 19 472 l 1,21,22
 168 491 168 491 292.5 491 c 128,-1,23
 417 491 417 491 471 458 c 128,-1,24
 525 425 525 425 525 346 c 1,0,-1
256 196 m 1,25,-1
 256 116 l 1,26,-1
 276 116 l 1,27,-1
 276 196 l 1,28,-1
 256 196 l 1,25,-1
398 635 m 1,29,-1
 466 501 l 1,30,-1
 292 501 l 1,31,-1
 276 537 l 1,32,-1
 272 537 l 1,33,-1
 256 501 l 1,34,-1
 78 501 l 1,35,-1
 146 635 l 1,36,-1
 398 635 l 1,29,-1
EndSplineSet
EndChar

StartChar: aacute
Encoding: 225 225 110
Width: 547
Flags: HMW
HStem: -10 21G<122.5 197 404 453> 471 20G<251 376.5> 511 130<249 364 185 483>
LayerCount: 2
Fore
SplineSet
525 346 m 1,0,-1
 520 174 l 2,1,2
 520 150 520 150 545 150 c 1,3,-1
 531 -6 l 1,4,5
 471 -10 471 -10 435 -10 c 0,6,7
 345 -10 345 -10 305 21 c 1,8,-1
 300 21 l 1,9,10
 240 -10 240 -10 168 -10 c 0,11,12
 0 -10 0 -10 0 136 c 0,13,14
 0 227.164383562 0 227.164383562 70.5 260 c 0,15,16
 107 277 107 277 152 284 c 128,-1,17
 197 291 197 291 266 294 c 1,18,-1
 266 315 l 1,19,-1
 38 296 l 1,20,-1
 19 472 l 1,21,22
 168 491 168 491 292.5 491 c 128,-1,23
 417 491 417 491 471 458 c 128,-1,24
 525 425 525 425 525 346 c 1,0,-1
256 196 m 1,25,-1
 256 116 l 1,26,-1
 276 116 l 1,27,-1
 276 196 l 1,28,-1
 256 196 l 1,25,-1
483 641 m 1,29,-1
 364 511 l 1,30,-1
 185 511 l 1,31,-1
 249 641 l 1,32,-1
 483 641 l 1,29,-1
EndSplineSet
EndChar

StartChar: adieresis
Encoding: 228 228 111
Width: 547
Flags: HMW
HStem: -10 21G<122.5 197 404 453> 471 20G<251 376.5> 506 134<127.5 202 349.5 424>
VStem: 64 200<546.5 598.5 546.5 598.5>
LayerCount: 2
Fore
SplineSet
525 346 m 1,0,-1
 520 174 l 2,1,2
 520 150 520 150 545 150 c 1,3,-1
 531 -6 l 1,4,5
 471 -10 471 -10 435 -10 c 0,6,7
 345 -10 345 -10 305 21 c 1,8,-1
 300 21 l 1,9,10
 240 -10 240 -10 168 -10 c 0,11,12
 0 -10 0 -10 0 136 c 0,13,14
 0 227.164383562 0 227.164383562 70.5 260 c 0,15,16
 107 277 107 277 152 284 c 128,-1,17
 197 291 197 291 266 294 c 1,18,-1
 266 315 l 1,19,-1
 38 296 l 1,20,-1
 19 472 l 1,21,22
 168 491 168 491 292.5 491 c 128,-1,23
 417 491 417 491 471 458 c 128,-1,24
 525 425 525 425 525 346 c 1,0,-1
256 196 m 1,25,-1
 256 116 l 1,26,-1
 276 116 l 1,27,-1
 276 196 l 1,28,-1
 256 196 l 1,25,-1
86 520 m 128,-1,30
 64 534 64 534 64 572.5 c 128,-1,31
 64 611 64 611 86.5 625.5 c 128,-1,32
 109 640 109 640 165 640 c 128,-1,33
 221 640 221 640 242.5 625.5 c 128,-1,34
 264 611 264 611 264 572.5 c 128,-1,35
 264 534 264 534 243 520 c 128,-1,36
 222 506 222 506 165 506 c 128,-1,29
 108 506 108 506 86 520 c 128,-1,30
308 520 m 128,-1,38
 286 534 286 534 286 572.5 c 128,-1,39
 286 611 286 611 308.5 625.5 c 128,-1,40
 331 640 331 640 387 640 c 128,-1,41
 443 640 443 640 464.5 625.5 c 128,-1,42
 486 611 486 611 486 572.5 c 128,-1,43
 486 534 486 534 465 520 c 128,-1,44
 444 506 444 506 387 506 c 128,-1,37
 330 506 330 506 308 520 c 128,-1,38
EndSplineSet
EndChar

StartChar: atilde
Encoding: 227 227 112
Width: 547
Flags: HMW
HStem: -10 21G<122.5 197 404 453> 471 20G<251 376.5> 505 151<134 204 134 241 60 204 331.5 405>
LayerCount: 2
Fore
SplineSet
525 346 m 1,0,-1
 520 174 l 2,1,2
 520 150 520 150 545 150 c 1,3,-1
 531 -6 l 1,4,5
 471 -10 471 -10 435 -10 c 0,6,7
 345 -10 345 -10 305 21 c 1,8,-1
 300 21 l 1,9,10
 240 -10 240 -10 168 -10 c 0,11,12
 0 -10 0 -10 0 136 c 0,13,14
 0 227.164383562 0 227.164383562 70.5 260 c 0,15,16
 107 277 107 277 152 284 c 128,-1,17
 197 291 197 291 266 294 c 1,18,-1
 266 315 l 1,19,-1
 38 296 l 1,20,-1
 19 472 l 1,21,22
 168 491 168 491 292.5 491 c 128,-1,23
 417 491 417 491 471 458 c 128,-1,24
 525 425 525 425 525 346 c 1,0,-1
256 196 m 1,25,-1
 256 116 l 1,26,-1
 276 116 l 1,27,-1
 276 196 l 1,28,-1
 256 196 l 1,25,-1
478 656 m 1,29,-1
 478 642 l 2,30,31
 478 570 478 570 452.5 537.5 c 128,-1,32
 427 505 427 505 351 505 c 0,33,34
 317 505 317 505 241 529 c 1,35,-1
 241 505 l 1,36,-1
 60 505 l 1,37,-1
 60 520 l 2,38,39
 60 590 60 590 86.5 623 c 128,-1,40
 113 656 113 656 183 656 c 0,41,42
 216 656 216 656 298 632 c 1,43,-1
 298 656 l 1,44,-1
 478 656 l 1,29,-1
EndSplineSet
EndChar

StartChar: aring
Encoding: 229 229 113
Width: 547
Flags: HMW
HStem: -10 21G<122.5 197 404 453> 471 20G<251 376.5> 501 161<230 319>
VStem: 144 112 276 128
LayerCount: 2
Fore
SplineSet
525 346 m 1,0,-1
 520 174 l 2,1,2
 520 150 520 150 545 150 c 1,3,-1
 531 -6 l 1,4,5
 471 -10 471 -10 435 -10 c 0,6,7
 345 -10 345 -10 305 21 c 1,8,-1
 300 21 l 1,9,10
 240 -10 240 -10 168 -10 c 0,11,12
 0 -10 0 -10 0 136 c 0,13,14
 0 227.164383562 0 227.164383562 70.5 260 c 0,15,16
 107 277 107 277 152 284 c 128,-1,17
 197 291 197 291 266 294 c 1,18,-1
 266 315 l 1,19,-1
 38 296 l 1,20,-1
 19 472 l 1,21,22
 168 491 168 491 292.5 491 c 128,-1,23
 417 491 417 491 471 458 c 128,-1,24
 525 425 525 425 525 346 c 1,0,-1
174 645 m 128,-1,26
 204 662 204 662 274.5 662 c 128,-1,27
 345 662 345 662 374.5 646 c 128,-1,28
 404 630 404 630 404 581.5 c 128,-1,29
 404 533 404 533 375 517 c 128,-1,30
 346 501 346 501 275 501 c 128,-1,31
 204 501 204 501 174 517 c 128,-1,32
 144 533 144 533 144 580.5 c 128,-1,25
 144 628 144 628 174 645 c 128,-1,26
256 196 m 1,33,-1
 256 116 l 1,34,-1
 276 116 l 1,35,-1
 276 196 l 1,36,-1
 256 196 l 1,33,-1
284 550 m 1,37,-1
 284 605 l 1,38,-1
 264 605 l 1,39,-1
 264 550 l 1,40,-1
 284 550 l 1,37,-1
EndSplineSet
EndChar

StartChar: ccedilla
Encoding: 231 231 114
Width: 388
Flags: HMW
HStem: -169 152<191 292> -10 21G<270 290.5> 471 20G<180.5 292>
LayerCount: 2
Fore
SplineSet
270 491 m 0,0,1
 333 491 333 491 388 481 c 1,2,-1
 371 281 l 1,3,4
 329 285 329 285 318.5 285 c 0,5,6
 292 285 292 285 292 236 c 0,7,8
 292 202 292 202 299.5 193 c 128,-1,9
 307 184 307 184 320.5 184 c 128,-1,10
 334 184 334 184 372 188 c 1,11,-1
 383 1 l 1,12,13
 318 -10 318 -10 270 -10 c 1,14,-1
 268 -13 l 1,15,-1
 268 -17 l 1,16,17
 345 -17 345 -17 345 -79 c 0,18,19
 345 -121 345 -121 312 -145 c 128,-1,20
 279 -169 279 -169 211.5 -169 c 128,-1,21
 144 -169 144 -169 84 -133 c 1,22,-1
 131 -51 l 1,23,24
 170 -78 170 -78 215 -91 c 1,25,-1
 219 -83 l 1,26,-1
 162 -58 l 1,27,28
 143 -48 143 -48 143 -31.5 c 128,-1,29
 143 -15 143 -15 160 2 c 1,30,31
 4 42 4 42 4 231 c 0,32,33
 4 491 4 491 270 491 c 0,0,1
EndSplineSet
EndChar

StartChar: egrave
Encoding: 232 232 115
Width: 543
Flags: HMW
HStem: -10 167<185.5 384> 471 20G<194.5 389.5> 511 130<216 216 216 331 97 395>
LayerCount: 2
Fore
SplineSet
541 298 m 0,0,1
 541 255 541 255 533 180 c 1,2,-1
 268 180 l 1,3,-1
 268 162 l 1,4,5
 311 157 311 157 354 157 c 0,6,7
 397 157 397 157 515 163 c 1,8,-1
 525 12 l 1,9,10
 388 -10 388 -10 280 -10 c 0,11,12
 2 -10 2 -10 2 237 c 0,13,14
 2 491 2 491 291 491 c 0,15,16
 430 491 430 491 485.5 441.5 c 128,-1,17
 541 392 541 392 541 298 c 0,0,1
216 511 m 1,18,-1
 97 641 l 1,19,-1
 331 641 l 1,20,-1
 395 511 l 1,21,-1
 216 511 l 1,18,-1
287 254 m 1,22,-1
 287 333 l 1,23,-1
 267 333 l 1,24,-1
 267 254 l 1,25,-1
 287 254 l 1,22,-1
EndSplineSet
EndChar

StartChar: ecircumflex
Encoding: 234 234 116
Width: 543
Flags: HMW
HStem: -10 167<185.5 384> 471 20G<194.5 389.5> 501 134<150 260 82 402 296 402 150 470 296 296>
LayerCount: 2
Fore
SplineSet
541 298 m 0,0,1
 541 255 541 255 533 180 c 1,2,-1
 268 180 l 1,3,-1
 268 162 l 1,4,5
 311 157 311 157 354 157 c 0,6,7
 397 157 397 157 515 163 c 1,8,-1
 525 12 l 1,9,10
 388 -10 388 -10 280 -10 c 0,11,12
 2 -10 2 -10 2 237 c 0,13,14
 2 491 2 491 291 491 c 0,15,16
 430 491 430 491 485.5 441.5 c 128,-1,17
 541 392 541 392 541 298 c 0,0,1
402 635 m 1,18,-1
 470 501 l 1,19,-1
 296 501 l 1,20,-1
 280 537 l 1,21,-1
 276 537 l 1,22,-1
 260 501 l 1,23,-1
 82 501 l 1,24,-1
 150 635 l 1,25,-1
 402 635 l 1,18,-1
287 254 m 1,26,-1
 287 333 l 1,27,-1
 267 333 l 1,28,-1
 267 254 l 1,29,-1
 287 254 l 1,26,-1
EndSplineSet
EndChar

StartChar: eacute
Encoding: 233 233 117
Width: 543
Flags: HMW
HStem: -10 167<185.5 384> 471 20G<194.5 389.5> 511 130<253 368 189 487>
LayerCount: 2
Fore
SplineSet
541 298 m 0,0,1
 541 255 541 255 533 180 c 1,2,-1
 268 180 l 1,3,-1
 268 162 l 1,4,5
 311 157 311 157 354 157 c 0,6,7
 397 157 397 157 515 163 c 1,8,-1
 525 12 l 1,9,10
 388 -10 388 -10 280 -10 c 0,11,12
 2 -10 2 -10 2 237 c 0,13,14
 2 491 2 491 291 491 c 0,15,16
 430 491 430 491 485.5 441.5 c 128,-1,17
 541 392 541 392 541 298 c 0,0,1
487 641 m 1,18,-1
 368 511 l 1,19,-1
 189 511 l 1,20,-1
 253 641 l 1,21,-1
 487 641 l 1,18,-1
287 254 m 1,22,-1
 287 333 l 1,23,-1
 267 333 l 1,24,-1
 267 254 l 1,25,-1
 287 254 l 1,22,-1
EndSplineSet
EndChar

StartChar: edieresis
Encoding: 235 235 118
Width: 543
Flags: HMW
HStem: -10 167<185.5 384> 471 20G<194.5 389.5> 506 134<131.5 206 353.5 428>
VStem: 68 200<546.5 598.5> 290 200<546.5 598.5 546.5 598.5>
LayerCount: 2
Fore
SplineSet
541 298 m 0,0,1
 541 255 541 255 533 180 c 1,2,-1
 268 180 l 1,3,-1
 268 162 l 1,4,5
 311 157 311 157 354 157 c 128,-1,6
 397 157 397 157 515 163 c 1,7,-1
 525 12 l 1,8,9
 388 -10 388 -10 280 -10 c 0,10,11
 2 -10 2 -10 2 237 c 0,12,13
 2 491 2 491 291 491 c 0,14,15
 430 491 430 491 485.5 441.5 c 128,-1,16
 541 392 541 392 541 298 c 0,0,1
312 520 m 128,-1,18
 290 534 290 534 290 572.5 c 128,-1,19
 290 611 290 611 312.5 625.5 c 128,-1,20
 335 640 335 640 391 640 c 128,-1,21
 447 640 447 640 468.5 625.5 c 128,-1,22
 490 611 490 611 490 572.5 c 128,-1,23
 490 534 490 534 469 520 c 128,-1,24
 448 506 448 506 391 506 c 128,-1,17
 334 506 334 506 312 520 c 128,-1,18
90 520 m 128,-1,26
 68 534 68 534 68 572.5 c 128,-1,27
 68 611 68 611 90.5 625.5 c 128,-1,28
 113 640 113 640 169 640 c 128,-1,29
 225 640 225 640 246.5 625.5 c 128,-1,30
 268 611 268 611 268 572.5 c 128,-1,31
 268 534 268 534 247 520 c 128,-1,32
 226 506 226 506 169 506 c 128,-1,25
 112 506 112 506 90 520 c 128,-1,26
287 254 m 1,33,-1
 287 333 l 1,34,-1
 267 333 l 1,35,-1
 267 254 l 1,36,-1
 287 254 l 1,33,-1
EndSplineSet
EndChar

StartChar: hbar
Encoding: 295 295 119
Width: 570
Flags: HMW
HStem: 0 21G<10 273 10 10 293 560 293 293> 471 20G<371 455.5> 610 20G<10 265 265 265>
LayerCount: 2
Fore
SplineSet
329 501 m 1,0,-1
 265 501 l 1,1,-1
 265 465 l 1,2,3
 320 491 320 491 400 491 c 128,-1,4
 480 491 480 491 520 452.5 c 128,-1,5
 560 414 560 414 560 349 c 2,6,-1
 560 0 l 1,7,-1
 293 0 l 1,8,-1
 293 299 l 1,9,-1
 273 299 l 1,10,-1
 273 0 l 1,11,-1
 10 0 l 1,12,-1
 10 501 l 1,13,-1
 0 501 l 1,14,-1
 0 611 l 1,15,-1
 10 611 l 1,16,-1
 10 630 l 1,17,-1
 265 630 l 1,18,-1
 265 611 l 1,19,-1
 329 611 l 1,20,-1
 329 501 l 1,0,-1
EndSplineSet
EndChar

StartChar: dotlessi
Encoding: 305 305 120
Width: 282
Flags: HMW
HStem: 0 21G<10 272 10 10> 444 20G<10 272 272 272>
LayerCount: 2
Fore
SplineSet
272 0 m 1,0,-1
 10 0 l 1,1,-1
 10 464 l 1,2,-1
 272 464 l 1,3,-1
 272 0 l 1,0,-1
EndSplineSet
EndChar

StartChar: igrave
Encoding: 236 236 121
Width: 282
Flags: HMW
HStem: 0 21G<10 272 10 10> 511 130<81 81 81 196 -38 260>
LayerCount: 2
Fore
SplineSet
272 0 m 1,0,-1
 10 0 l 1,1,-1
 10 464 l 1,2,-1
 272 464 l 1,3,-1
 272 0 l 1,0,-1
81 511 m 1,4,-1
 -38 641 l 1,5,-1
 196 641 l 1,6,-1
 260 511 l 1,7,-1
 81 511 l 1,4,-1
EndSplineSet
EndChar

StartChar: icircumflex
Encoding: 238 238 122
Width: 282
Flags: HMW
HStem: 0 21G<13 275 13 13> 501 134<20 130 -48 272 166 272 20 340 166 166>
LayerCount: 2
Fore
SplineSet
275 0 m 1,0,-1
 13 0 l 1,1,-1
 13 464 l 1,2,-1
 275 464 l 1,3,-1
 275 0 l 1,0,-1
272 635 m 1,4,-1
 340 501 l 1,5,-1
 166 501 l 1,6,-1
 150 537 l 1,7,-1
 146 537 l 1,8,-1
 130 501 l 1,9,-1
 -48 501 l 1,10,-1
 20 635 l 1,11,-1
 272 635 l 1,4,-1
EndSplineSet
EndChar

StartChar: iacute
Encoding: 237 237 123
Width: 282
Flags: HMW
HStem: 0 21G<10 272 10 10> 511 130<97 212 33 331>
LayerCount: 2
Fore
SplineSet
272 0 m 1,0,-1
 10 0 l 1,1,-1
 10 464 l 1,2,-1
 272 464 l 1,3,-1
 272 0 l 1,0,-1
331 641 m 1,4,-1
 212 511 l 1,5,-1
 33 511 l 1,6,-1
 97 641 l 1,7,-1
 331 641 l 1,4,-1
EndSplineSet
EndChar

StartChar: idieresis
Encoding: 239 239 124
Width: 282
Flags: HMW
HStem: 0 21G<13 275 13 13> 506 134<-4.5 70 217.5 292>
VStem: -68 200<546.5 598.5 546.5 598.5> 13 119<0 598.5 464 598.5> 154 200<546.5 598.5 546.5 598.5>
LayerCount: 2
Fore
SplineSet
275 0 m 1,0,-1
 13 0 l 1,1,-1
 13 464 l 1,2,-1
 275 464 l 1,3,-1
 275 0 l 1,0,-1
-46 520 m 128,-1,5
 -68 534 -68 534 -68 572.5 c 128,-1,6
 -68 611 -68 611 -45.5 625.5 c 128,-1,7
 -23 640 -23 640 33 640 c 128,-1,8
 89 640 89 640 110.5 625.5 c 128,-1,9
 132 611 132 611 132 572.5 c 128,-1,10
 132 534 132 534 111 520 c 128,-1,11
 90 506 90 506 33 506 c 128,-1,4
 -24 506 -24 506 -46 520 c 128,-1,5
176 520 m 128,-1,13
 154 534 154 534 154 572.5 c 128,-1,14
 154 611 154 611 176.5 625.5 c 128,-1,15
 199 640 199 640 255 640 c 128,-1,16
 311 640 311 640 332.5 625.5 c 128,-1,17
 354 611 354 611 354 572.5 c 128,-1,18
 354 534 354 534 333 520 c 128,-1,19
 312 506 312 506 255 506 c 128,-1,12
 198 506 198 506 176 520 c 128,-1,13
EndSplineSet
EndChar

StartChar: itilde
Encoding: 297 297 125
Width: 282
Flags: HMW
HStem: 0 21G<10 272 10 10> 505 151<6 76 6 113 -68 76 203.5 277>
LayerCount: 2
Fore
SplineSet
272 0 m 1,0,-1
 10 0 l 1,1,-1
 10 464 l 1,2,-1
 272 464 l 1,3,-1
 272 0 l 1,0,-1
350 656 m 1,4,-1
 350 642 l 2,5,6
 350 570 350 570 324.5 537.5 c 128,-1,7
 299 505 299 505 223 505 c 0,8,9
 189 505 189 505 113 529 c 1,10,-1
 113 505 l 1,11,-1
 -68 505 l 1,12,-1
 -68 520 l 2,13,14
 -68 590 -68 590 -41.5 623 c 128,-1,15
 -15 656 -15 656 55 656 c 0,16,17
 88 656 88 656 170 632 c 1,18,-1
 170 656 l 1,19,-1
 350 656 l 1,4,-1
EndSplineSet
EndChar

StartChar: ij
Encoding: 307 307 126
Width: 578
Flags: HMW
HStem: -137 21G<290 361 290 290> 0 21G<10 272 10 10 282 306 306 306> 477 168<84.5 154 123 154 123 154 417 448>
LayerCount: 2
Fore
SplineSet
568 464 m 1,0,-1
 568 2 l 2,1,2
 568 -76 568 -76 521.5 -106.5 c 128,-1,3
 475 -137 475 -137 361 -137 c 2,4,-1
 290 -137 l 1,5,-1
 282 0 l 1,6,-1
 306 0 l 1,7,-1
 306 464 l 1,8,-1
 568 464 l 1,0,-1
272 0 m 1,9,-1
 10 0 l 1,10,-1
 10 464 l 1,11,-1
 272 464 l 1,12,-1
 272 0 l 1,9,-1
10 556 m 2,13,-1
 10 567 l 2,14,15
 10 645 10 645 123 645 c 2,16,-1
 154 645 l 2,17,18
 272 645 272 645 272 567 c 2,19,-1
 272 556 l 2,20,21
 272 477 272 477 154 477 c 2,22,-1
 122 477 l 2,23,24
 10 477 10 477 10 556 c 2,13,-1
304 556 m 2,25,-1
 304 567 l 2,26,27
 304 645 304 645 417 645 c 2,28,-1
 448 645 l 2,29,30
 566 645 566 645 566 567 c 2,31,-1
 566 556 l 2,32,33
 566 477 566 477 448 477 c 2,34,-1
 416 477 l 2,35,36
 304 477 304 477 304 556 c 2,25,-1
EndSplineSet
EndChar

StartChar: jcircumflex
Encoding: 309 309 127
Width: 296
Flags: HMW
HStem: -137 21G<8 79 8 8> 0 21G<0 24 24 24> 501 134<22 132 -46 274 168 274 22 342 168 168>
LayerCount: 2
Fore
SplineSet
286 464 m 1,0,-1
 286 2 l 2,1,2
 286 -76 286 -76 239.5 -106.5 c 128,-1,3
 193 -137 193 -137 79 -137 c 2,4,-1
 8 -137 l 1,5,-1
 0 0 l 1,6,-1
 24 0 l 1,7,-1
 24 464 l 1,8,-1
 286 464 l 1,0,-1
274 635 m 1,9,-1
 342 501 l 1,10,-1
 168 501 l 1,11,-1
 152 537 l 1,12,-1
 148 537 l 1,13,-1
 132 501 l 1,14,-1
 -46 501 l 1,15,-1
 22 635 l 1,16,-1
 274 635 l 1,9,-1
EndSplineSet
EndChar

StartChar: kcommaaccent
Encoding: 311 311 128
Width: 561
Flags: HMW
HStem: -175 166<261 296 296 315 218 296> 0 21G<10 259 10 10 297 563 297 297> 459 20G<303 566 566 566> 610 20G<10 259 259 259>
VStem: 185 190<-89 -64 -64 -48.5 -96 -44>
LayerCount: 2
Fore
SplineSet
563 0 m 1,0,-1
 297 0 l 1,1,-1
 269 177 l 1,2,-1
 259 177 l 1,3,-1
 259 0 l 1,4,-1
 10 0 l 1,5,-1
 10 630 l 1,6,-1
 259 630 l 1,7,-1
 259 291 l 1,8,-1
 269 291 l 1,9,-1
 303 479 l 1,10,-1
 566 479 l 1,11,-1
 525 283 l 2,12,13
 519 254 519 254 492 240 c 1,14,-1
 492 236 l 1,15,16
 521 226 521 226 526 195 c 2,17,-1
 563 0 l 1,0,-1
185 -89 m 2,18,-1
 185 -64 l 2,19,20
 185 -9 185 -9 261 -9 c 2,21,-1
 296 -9 l 2,22,23
 340 -9 340 -9 357.5 -23 c 128,-1,24
 375 -37 375 -37 375 -73 c 0,25,26
 375 -109 375 -109 363 -130 c 128,-1,27
 351 -151 351 -151 315 -175 c 1,28,-1
 218 -175 l 1,29,-1
 245 -137 l 1,30,31
 212 -137 212 -137 198.5 -127 c 128,-1,32
 185 -117 185 -117 185 -89 c 2,18,-1
EndSplineSet
EndChar

StartChar: kgreenlandic
Encoding: 312 312 129
Width: 561
Flags: HMW
HStem: 0 21G<10 259 10 10 297 563 297 297> 459 20G<10 261 261 261> 471 20G<473 546 546 546>
LayerCount: 2
Fore
SplineSet
563 0 m 1,0,-1
 297 0 l 1,1,-1
 269 177 l 1,2,-1
 259 177 l 1,3,-1
 259 0 l 1,4,-1
 10 0 l 1,5,-1
 10 479 l 1,6,-1
 261 479 l 1,7,-1
 261 291 l 1,8,-1
 267 291 l 1,9,10
 290 396 290 396 337 443.5 c 128,-1,11
 384 491 384 491 473 491 c 2,12,-1
 546 491 l 1,13,-1
 528 262 l 1,14,15
 487 262 487 262 478 233 c 1,16,17
 517 222 517 222 527 176 c 2,18,-1
 563 0 l 1,0,-1
EndSplineSet
EndChar

StartChar: ldot
Encoding: 320 320 130
Width: 564
Flags: HMW
HStem: -10 21G<127 186 186 287> 208 171<362 431 403 429> 610 20G<10 269 269 269>
LayerCount: 2
Fore
SplineSet
10 125 m 2,0,-1
 10 630 l 1,1,-1
 269 630 l 1,2,-1
 269 190 l 2,3,4
 269 166 269 166 295 166 c 1,5,-1
 287 -10 l 1,6,-1
 186 -10 l 2,7,8
 10 -10 10 -10 10 125 c 2,0,-1
287 278 m 2,9,-1
 287 309 l 2,10,11
 287 346 287 346 315.5 362.5 c 128,-1,12
 344 379 344 379 403 379 c 2,13,-1
 431 379 l 2,14,15
 495 379 495 379 524.5 362.5 c 128,-1,16
 554 346 554 346 554 309 c 2,17,-1
 554 278 l 2,18,19
 554 240 554 240 524 224 c 128,-1,20
 494 208 494 208 429 208 c 2,21,-1
 399 208 l 2,22,23
 341 208 341 208 314 223 c 128,-1,24
 287 238 287 238 287 278 c 2,9,-1
EndSplineSet
EndChar

StartChar: lslash
Encoding: 322 322 131
Width: 317
Flags: HMW
HStem: -10 21G<147 206 206 307> 620 20G<30 289 289 289>
LayerCount: 2
Fore
SplineSet
30 125 m 2,0,-1
 30 151 l 1,1,-1
 0 139 l 1,2,-1
 0 353 l 1,3,-1
 30 365 l 1,4,-1
 30 640 l 1,5,-1
 289 640 l 1,6,-1
 289 469 l 1,7,-1
 317 481 l 1,8,-1
 317 268 l 1,9,-1
 289 256 l 1,10,-1
 289 190 l 2,11,12
 289 166 289 166 315 166 c 1,13,-1
 307 -10 l 1,14,-1
 206 -10 l 2,15,16
 30 -10 30 -10 30 125 c 2,0,-1
EndSplineSet
EndChar

StartChar: nacute
Encoding: 324 324 132
Width: 570
Flags: HMW
HStem: 0 21G<10 273 10 10 293 560 293 293> 459 20G<10 252 252 252> 471 20G<369 455.5> 511 130<240 355 176 474>
LayerCount: 2
Fore
SplineSet
256 452 m 1,0,1
 336 491 336 491 408 491 c 128,-1,2
 480 491 480 491 520 452.5 c 128,-1,3
 560 414 560 414 560 349 c 2,4,-1
 560 0 l 1,5,-1
 293 0 l 1,6,-1
 293 299 l 1,7,-1
 273 299 l 1,8,-1
 273 0 l 1,9,-1
 10 0 l 1,10,-1
 10 479 l 1,11,-1
 252 479 l 1,12,-1
 256 452 l 1,0,1
474 641 m 1,13,-1
 355 511 l 1,14,-1
 176 511 l 1,15,-1
 240 641 l 1,16,-1
 474 641 l 1,13,-1
EndSplineSet
EndChar

StartChar: ntilde
Encoding: 241 241 133
Width: 570
Flags: HMW
HStem: 0 21G<10 273 10 10 293 560 293 293> 459 20G<10 252 252 252> 471 20G<369 455.5> 505 151<144 214 144 251 70 214 341.5 415>
LayerCount: 2
Fore
SplineSet
256 452 m 1,0,1
 336 491 336 491 408 491 c 128,-1,2
 480 491 480 491 520 452.5 c 128,-1,3
 560 414 560 414 560 349 c 2,4,-1
 560 0 l 1,5,-1
 293 0 l 1,6,-1
 293 299 l 1,7,-1
 273 299 l 1,8,-1
 273 0 l 1,9,-1
 10 0 l 1,10,-1
 10 479 l 1,11,-1
 252 479 l 1,12,-1
 256 452 l 1,0,1
488 656 m 1,13,-1
 488 642 l 2,14,15
 488 570 488 570 462.5 537.5 c 128,-1,16
 437 505 437 505 361 505 c 0,17,18
 327 505 327 505 251 529 c 1,19,-1
 251 505 l 1,20,-1
 70 505 l 1,21,-1
 70 520 l 2,22,23
 70 590 70 590 96.5 623 c 128,-1,24
 123 656 123 656 193 656 c 0,25,26
 226 656 226 656 308 632 c 1,27,-1
 308 656 l 1,28,-1
 488 656 l 1,13,-1
EndSplineSet
EndChar

StartChar: ograve
Encoding: 242 242 134
Width: 568
Flags: HMW
HStem: -10 21G<188.5 385.5> 471 20G<191 383> 511 130<213 213 213 328 94 392>
LayerCount: 2
Fore
SplineSet
72.5 432 m 128,-1,1
 141 491 141 491 286 491 c 128,-1,2
 431 491 431 491 497.5 433 c 128,-1,3
 564 375 564 375 564 242.5 c 128,-1,4
 564 110 564 110 499.5 50 c 128,-1,5
 435 -10 435 -10 287 -10 c 128,-1,6
 139 -10 139 -10 71.5 50 c 128,-1,7
 4 110 4 110 4 241.5 c 128,-1,0
 4 373 4 373 72.5 432 c 128,-1,1
213 511 m 1,8,-1
 94 641 l 1,9,-1
 328 641 l 1,10,-1
 392 511 l 1,11,-1
 213 511 l 1,8,-1
296 131 m 1,12,-1
 296 321 l 1,13,-1
 276 321 l 1,14,-1
 276 131 l 1,15,-1
 296 131 l 1,12,-1
EndSplineSet
EndChar

StartChar: ocircumflex
Encoding: 244 244 135
Width: 568
Flags: HMW
HStem: -10 21G<188.5 385.5> 471 20G<191 383> 501 134<159 269 91 411 305 411 159 479 305 305>
LayerCount: 2
Fore
SplineSet
72.5 432 m 128,-1,1
 141 491 141 491 286 491 c 128,-1,2
 431 491 431 491 497.5 433 c 128,-1,3
 564 375 564 375 564 242.5 c 128,-1,4
 564 110 564 110 499.5 50 c 128,-1,5
 435 -10 435 -10 287 -10 c 128,-1,6
 139 -10 139 -10 71.5 50 c 128,-1,7
 4 110 4 110 4 241.5 c 128,-1,0
 4 373 4 373 72.5 432 c 128,-1,1
411 635 m 1,8,-1
 479 501 l 1,9,-1
 305 501 l 1,10,-1
 289 537 l 1,11,-1
 285 537 l 1,12,-1
 269 501 l 1,13,-1
 91 501 l 1,14,-1
 159 635 l 1,15,-1
 411 635 l 1,8,-1
296 131 m 1,16,-1
 296 321 l 1,17,-1
 276 321 l 1,18,-1
 276 131 l 1,19,-1
 296 131 l 1,16,-1
EndSplineSet
EndChar

StartChar: oacute
Encoding: 243 243 136
Width: 568
Flags: HMW
HStem: -10 21G<188.5 385.5> 471 20G<191 383> 511 130<245 360 181 479>
LayerCount: 2
Fore
SplineSet
72.5 432 m 128,-1,1
 141 491 141 491 286 491 c 128,-1,2
 431 491 431 491 497.5 433 c 128,-1,3
 564 375 564 375 564 242.5 c 128,-1,4
 564 110 564 110 499.5 50 c 128,-1,5
 435 -10 435 -10 287 -10 c 128,-1,6
 139 -10 139 -10 71.5 50 c 128,-1,7
 4 110 4 110 4 241.5 c 128,-1,0
 4 373 4 373 72.5 432 c 128,-1,1
479 641 m 1,8,-1
 360 511 l 1,9,-1
 181 511 l 1,10,-1
 245 641 l 1,11,-1
 479 641 l 1,8,-1
296 131 m 1,12,-1
 296 321 l 1,13,-1
 276 321 l 1,14,-1
 276 131 l 1,15,-1
 296 131 l 1,12,-1
EndSplineSet
EndChar

StartChar: odieresis
Encoding: 246 246 137
Width: 568
Flags: HMW
HStem: -10 21G<188.5 385.5> 471 20G<191 383> 506 134<137.5 212 359.5 434>
VStem: 74 200<546.5 598.5 546.5 598.5> 296 200<546.5 598.5 546.5 598.5>
LayerCount: 2
Fore
SplineSet
72.5 432 m 128,-1,1
 141 491 141 491 286 491 c 128,-1,2
 431 491 431 491 497.5 433 c 128,-1,3
 564 375 564 375 564 242.5 c 128,-1,4
 564 110 564 110 499.5 50 c 128,-1,5
 435 -10 435 -10 287 -10 c 128,-1,6
 139 -10 139 -10 71.5 50 c 128,-1,7
 4 110 4 110 4 241.5 c 128,-1,0
 4 373 4 373 72.5 432 c 128,-1,1
318 520 m 128,-1,9
 296 534 296 534 296 572.5 c 128,-1,10
 296 611 296 611 318.5 625.5 c 128,-1,11
 341 640 341 640 397 640 c 128,-1,12
 453 640 453 640 474.5 625.5 c 128,-1,13
 496 611 496 611 496 572.5 c 128,-1,14
 496 534 496 534 475 520 c 128,-1,15
 454 506 454 506 397 506 c 128,-1,8
 340 506 340 506 318 520 c 128,-1,9
96 520 m 128,-1,17
 74 534 74 534 74 572.5 c 128,-1,18
 74 611 74 611 96.5 625.5 c 128,-1,19
 119 640 119 640 175 640 c 128,-1,20
 231 640 231 640 252.5 625.5 c 128,-1,21
 274 611 274 611 274 572.5 c 128,-1,22
 274 534 274 534 253 520 c 128,-1,23
 232 506 232 506 175 506 c 128,-1,16
 118 506 118 506 96 520 c 128,-1,17
296 131 m 1,24,-1
 296 321 l 1,25,-1
 276 321 l 1,26,-1
 276 131 l 1,27,-1
 296 131 l 1,24,-1
EndSplineSet
EndChar

StartChar: otilde
Encoding: 245 245 138
Width: 568
Flags: HMW
HStem: -10 21G<188.5 385.5> 471 20G<191 383> 505 151<145 215 145 252 71 215 342.5 416>
LayerCount: 2
Fore
SplineSet
72.5 432 m 128,-1,1
 141 491 141 491 286 491 c 128,-1,2
 431 491 431 491 497.5 433 c 128,-1,3
 564 375 564 375 564 242.5 c 128,-1,4
 564 110 564 110 499.5 50 c 128,-1,5
 435 -10 435 -10 287 -10 c 128,-1,6
 139 -10 139 -10 71.5 50 c 128,-1,7
 4 110 4 110 4 241.5 c 128,-1,0
 4 373 4 373 72.5 432 c 128,-1,1
489 656 m 1,8,-1
 489 642 l 2,9,10
 489 570 489 570 463.5 537.5 c 128,-1,11
 438 505 438 505 362 505 c 0,12,13
 328 505 328 505 252 529 c 1,14,-1
 252 505 l 1,15,-1
 71 505 l 1,16,-1
 71 520 l 2,17,18
 71 590 71 590 97.5 623 c 128,-1,19
 124 656 124 656 194 656 c 0,20,21
 227 656 227 656 309 632 c 1,22,-1
 309 656 l 1,23,-1
 489 656 l 1,8,-1
296 131 m 1,24,-1
 296 321 l 1,25,-1
 276 321 l 1,26,-1
 276 131 l 1,27,-1
 296 131 l 1,24,-1
EndSplineSet
EndChar

StartChar: oslash
Encoding: 248 248 139
Width: 568
Flags: HMW
HStem: -53 21G<37 258 37 37> -10 21G<278 288 278 278> 471 20G<288 302 302 302> 512 20G<323 542 542 542>
LayerCount: 2
Fore
SplineSet
288 491 m 2,0,-1
 302 491 l 1,1,-1
 323 532 l 1,2,-1
 542 532 l 1,3,-1
 494 436 l 1,4,5
 564 378 564 378 564 244 c 0,6,7
 564 110 564 110 499.5 50 c 128,-1,8
 435 -10 435 -10 288 -10 c 2,9,-1
 278 -10 l 1,10,-1
 258 -53 l 1,11,-1
 37 -53 l 1,12,-1
 82 41 l 1,13,14
 4 99 4 99 4 236 c 0,15,16
 4 373 4 373 72.5 432 c 128,-1,17
 141 491 141 491 288 491 c 2,0,-1
296 131 m 1,18,-1
 296 321 l 1,19,-1
 276 321 l 1,20,-1
 276 131 l 1,21,-1
 296 131 l 1,18,-1
EndSplineSet
EndChar

StartChar: rcaron
Encoding: 345 345 140
Width: 349
Flags: HMW
HStem: 0 21G<10 273 10 10> 459 20G<10 230 230 230> 463 20G<320.5 347> 507 134<49 49 49 155 191 301>
LayerCount: 2
Fore
SplineSet
273 228 m 2,0,-1
 273 0 l 1,1,-1
 10 0 l 1,2,-1
 10 479 l 1,3,-1
 230 479 l 1,4,-1
 232 454 l 1,5,-1
 236 454 l 1,6,7
 266 483 266 483 347 483 c 1,8,-1
 336 277 l 1,9,-1
 324 277 l 2,10,11
 296 277 296 277 284.5 267 c 128,-1,12
 273 257 273 257 273 228 c 2,0,-1
49 507 m 1,13,-1
 -19 641 l 1,14,-1
 155 641 l 1,15,-1
 171 605 l 1,16,-1
 175 605 l 1,17,-1
 191 641 l 1,18,-1
 369 641 l 1,19,-1
 301 507 l 1,20,-1
 49 507 l 1,13,-1
EndSplineSet
EndChar

StartChar: rcommaaccent
Encoding: 343 343 141
Width: 349
Flags: HMW
HStem: -175 166<136 171 171 190 93 171> 0 21G<10 273 10 10> 459 20G<10 230 230 230> 463 20G<320.5 347>
VStem: 60 190<-89 -64 -64 -48.5 -96 -44>
LayerCount: 2
Fore
SplineSet
273 228 m 2,0,-1
 273 0 l 1,1,-1
 10 0 l 1,2,-1
 10 479 l 1,3,-1
 230 479 l 1,4,-1
 232 454 l 1,5,-1
 236 454 l 1,6,7
 266 483 266 483 347 483 c 1,8,-1
 336 277 l 1,9,-1
 324 277 l 2,10,11
 296 277 296 277 284.5 267 c 128,-1,12
 273 257 273 257 273 228 c 2,0,-1
60 -89 m 2,13,-1
 60 -64 l 2,14,15
 60 -9 60 -9 136 -9 c 2,16,-1
 171 -9 l 2,17,18
 215 -9 215 -9 232.5 -23 c 128,-1,19
 250 -37 250 -37 250 -73 c 0,20,21
 250 -109 250 -109 238 -130 c 128,-1,22
 226 -151 226 -151 190 -175 c 1,23,-1
 93 -175 l 1,24,-1
 120 -137 l 1,25,26
 87 -137 87 -137 73.5 -127 c 128,-1,27
 60 -117 60 -117 60 -89 c 2,13,-1
EndSplineSet
EndChar

StartChar: scaron
Encoding: 353 353 142
Width: 464
Flags: HMW
HStem: -10 21G<205.5 318.5> 471 20G<159.5 272.5> 507 134<102 102 102 208 244 354>
LayerCount: 2
Fore
SplineSet
61.5 447.5 m 128,-1,1
 121 491 121 491 235 491 c 128,-1,2
 349 491 349 491 453 472 c 1,3,-1
 439 312 l 1,4,-1
 248 333 l 1,5,-1
 248 319 l 1,6,7
 305 314 305 314 341.5 305.5 c 128,-1,8
 378 297 378 297 407 279 c 0,9,10
 462 244.862068966 462 244.862068966 462 154 c 0,11,12
 462 -10 462 -10 243 -10 c 0,13,14
 127 -10 127 -10 10 9 c 1,15,-1
 17 165 l 1,16,-1
 222 141 l 1,17,-1
 222 155 l 1,18,19
 166 163 166 163 130.5 172 c 128,-1,20
 95 181 95 181 63 198.5 c 0,21,22
 2 231.859375 2 231.859375 2 317.9296875 c 128,-1,0
 2 404 2 404 61.5 447.5 c 128,-1,1
102 507 m 1,23,-1
 34 641 l 1,24,-1
 208 641 l 1,25,-1
 224 605 l 1,26,-1
 228 605 l 1,27,-1
 244 641 l 1,28,-1
 422 641 l 1,29,-1
 354 507 l 1,30,-1
 102 507 l 1,23,-1
EndSplineSet
EndChar

StartChar: ugrave
Encoding: 249 249 143
Width: 570
Flags: HMW
HStem: -10 21G<105 189> 0 21G<307 560 307 307> 459 20G<10 276 276 276 296 560 560 560> 511 130<198 198 198 313 79 377>
LayerCount: 2
Fore
SplineSet
153 -10 m 0,0,1
 10 -10 10 -10 10 127 c 2,2,-1
 10 479 l 1,3,-1
 276 479 l 1,4,-1
 276 170 l 1,5,-1
 296 170 l 1,6,-1
 296 479 l 1,7,-1
 560 479 l 1,8,-1
 560 0 l 1,9,-1
 307 0 l 1,10,-1
 307 32 l 1,11,-1
 303 32 l 1,12,13
 230 -10 230 -10 153 -10 c 0,0,1
198 511 m 1,14,-1
 79 641 l 1,15,-1
 313 641 l 1,16,-1
 377 511 l 1,17,-1
 198 511 l 1,14,-1
EndSplineSet
EndChar

StartChar: ucircumflex
Encoding: 251 251 144
Width: 570
Flags: HMW
HStem: -10 21G<105 189> 0 21G<307 560 307 307> 459 20G<10 276 276 276 296 560 560 560> 501 134<157 267 89 409 303 409 157 477 303 303>
LayerCount: 2
Fore
SplineSet
153 -10 m 0,0,1
 10 -10 10 -10 10 127 c 2,2,-1
 10 479 l 1,3,-1
 276 479 l 1,4,-1
 276 170 l 1,5,-1
 296 170 l 1,6,-1
 296 479 l 1,7,-1
 560 479 l 1,8,-1
 560 0 l 1,9,-1
 307 0 l 1,10,-1
 307 32 l 1,11,-1
 303 32 l 1,12,13
 230 -10 230 -10 153 -10 c 0,0,1
409 635 m 1,14,-1
 477 501 l 1,15,-1
 303 501 l 1,16,-1
 287 537 l 1,17,-1
 283 537 l 1,18,-1
 267 501 l 1,19,-1
 89 501 l 1,20,-1
 157 635 l 1,21,-1
 409 635 l 1,14,-1
EndSplineSet
EndChar

StartChar: uacute
Encoding: 250 250 145
Width: 570
Flags: HMW
HStem: -10 21G<105 189> 0 21G<307 560 307 307> 459 20G<10 276 276 276 296 560 560 560> 511 130<261 376 197 495>
LayerCount: 2
Fore
SplineSet
153 -10 m 0,0,1
 10 -10 10 -10 10 127 c 2,2,-1
 10 479 l 1,3,-1
 276 479 l 1,4,-1
 276 170 l 1,5,-1
 296 170 l 1,6,-1
 296 479 l 1,7,-1
 560 479 l 1,8,-1
 560 0 l 1,9,-1
 307 0 l 1,10,-1
 307 32 l 1,11,-1
 303 32 l 1,12,13
 230 -10 230 -10 153 -10 c 0,0,1
495 641 m 1,14,-1
 376 511 l 1,15,-1
 197 511 l 1,16,-1
 261 641 l 1,17,-1
 495 641 l 1,14,-1
EndSplineSet
EndChar

StartChar: udieresis
Encoding: 252 252 146
Width: 570
Flags: HMW
HStem: -10 21G<105 189> 0 21G<307 560 307 307> 459 20G<10 276 276 276 296 560 560 560> 506 134<138.5 213 360.5 435>
LayerCount: 2
Fore
SplineSet
153 -10 m 0,0,1
 10 -10 10 -10 10 127 c 2,2,-1
 10 479 l 1,3,-1
 276 479 l 1,4,-1
 276 170 l 1,5,-1
 296 170 l 1,6,-1
 296 479 l 1,7,-1
 560 479 l 1,8,-1
 560 0 l 1,9,-1
 307 0 l 1,10,-1
 307 32 l 1,11,-1
 303 32 l 1,12,13
 230 -10 230 -10 153 -10 c 0,0,1
97 520 m 128,-1,15
 75 534 75 534 75 572.5 c 128,-1,16
 75 611 75 611 97.5 625.5 c 128,-1,17
 120 640 120 640 176 640 c 128,-1,18
 232 640 232 640 253.5 625.5 c 128,-1,19
 275 611 275 611 275 572.5 c 128,-1,20
 275 534 275 534 254 520 c 128,-1,21
 233 506 233 506 176 506 c 128,-1,14
 119 506 119 506 97 520 c 128,-1,15
319 520 m 128,-1,23
 297 534 297 534 297 572.5 c 128,-1,24
 297 611 297 611 319.5 625.5 c 128,-1,25
 342 640 342 640 398 640 c 128,-1,26
 454 640 454 640 475.5 625.5 c 128,-1,27
 497 611 497 611 497 572.5 c 128,-1,28
 497 534 497 534 476 520 c 128,-1,29
 455 506 455 506 398 506 c 128,-1,22
 341 506 341 506 319 520 c 128,-1,23
EndSplineSet
EndChar

StartChar: yacute
Encoding: 253 253 147
Width: 602
Flags: HMW
HStem: -137 169<68 112 112 117 50 247 68 68> 459 20G<17 290 290 290 335 585 585 585> 511 130<278 393 214 512>
LayerCount: 2
Fore
SplineSet
585 479 m 1,0,-1
 470 -7 l 2,1,2
 453 -76 453 -76 403 -106.5 c 128,-1,3
 353 -137 353 -137 247 -137 c 2,4,-1
 68 -137 l 1,5,-1
 50 32 l 1,6,-1
 112 32 l 2,7,8
 125 32 125 32 125 46 c 0,9,10
 125 53 125 53 118 74 c 1,11,-1
 17 479 l 1,12,-1
 290 479 l 1,13,-1
 307 252 l 1,14,-1
 315 252 l 1,15,-1
 335 479 l 1,16,-1
 585 479 l 1,0,-1
512 641 m 1,17,-1
 393 511 l 1,18,-1
 214 511 l 1,19,-1
 278 641 l 1,20,-1
 512 641 l 1,17,-1
EndSplineSet
EndChar

StartChar: ydieresis
Encoding: 255 255 148
Width: 602
Flags: HMW
HStem: -137 169<68 112 112 117 50 247 68 68> 459 20G<17 290 290 290 335 585 585 585> 506 134<162.5 237 384.5 459>
VStem: 99 199 321 200<546.5 598.5 546.5 598.5>
LayerCount: 2
Fore
SplineSet
585 479 m 1,0,-1
 470 -7 l 2,1,2
 453 -76 453 -76 403 -106.5 c 128,-1,3
 353 -137 353 -137 247 -137 c 2,4,-1
 68 -137 l 1,5,-1
 50 32 l 1,6,-1
 112 32 l 2,7,8
 125 32 125 32 125 46 c 0,9,10
 125 53 125 53 118 74 c 1,11,-1
 17 479 l 1,12,-1
 290 479 l 1,13,-1
 307 252 l 1,14,-1
 315 252 l 1,15,-1
 335 479 l 1,16,-1
 585 479 l 1,0,-1
121 520 m 128,-1,18
 99 534 99 534 99 572.5 c 128,-1,19
 99 611 99 611 121.5 625.5 c 128,-1,20
 144 640 144 640 200 640 c 128,-1,21
 256 640 256 640 277.5 625.5 c 128,-1,22
 299 611 299 611 299 572.5 c 128,-1,23
 299 534 299 534 278 520 c 128,-1,24
 257 506 257 506 200 506 c 128,-1,17
 143 506 143 506 121 520 c 128,-1,18
343 520 m 128,-1,26
 321 534 321 534 321 572.5 c 128,-1,27
 321 611 321 611 343.5 625.5 c 128,-1,28
 366 640 366 640 422 640 c 128,-1,29
 478 640 478 640 499.5 625.5 c 128,-1,30
 521 611 521 611 521 572.5 c 128,-1,31
 521 534 521 534 500 520 c 128,-1,32
 479 506 479 506 422 506 c 128,-1,25
 365 506 365 506 343 520 c 128,-1,26
EndSplineSet
EndChar

StartChar: zcaron
Encoding: 382 382 149
Width: 474
Flags: HMW
HStem: 0 176<353 472 353 472> 301 178<12 135 12 12> 507 134<112 112 112 218 254 364>
LayerCount: 2
Fore
SplineSet
472 0 m 1,0,-1
 22 0 l 1,1,-1
 14 130 l 1,2,-1
 135 301 l 1,3,-1
 12 301 l 1,4,-1
 2 479 l 1,5,-1
 460 479 l 1,6,-1
 468 356 l 1,7,-1
 353 176 l 1,8,-1
 472 176 l 1,9,-1
 472 0 l 1,0,-1
112 507 m 1,10,-1
 44 641 l 1,11,-1
 218 641 l 1,12,-1
 234 605 l 1,13,-1
 238 605 l 1,14,-1
 254 641 l 1,15,-1
 432 641 l 1,16,-1
 364 507 l 1,17,-1
 112 507 l 1,10,-1
EndSplineSet
EndChar

StartChar: at
Encoding: 64 64 150
Width: 1052
Flags: HMW
HStem: -217 187<419 558> -10 21G<364 419 419 462 623 641 641 805> 306 185<429 532 268 623> 512 185<416 624>
LayerCount: 2
Fore
SplineSet
321 455 m 128,-1,1
 374 491 374 491 523 491 c 128,-1,2
 672 491 672 491 727 463 c 128,-1,3
 782 435 782 435 782 356 c 2,4,-1
 782 161 l 1,5,-1
 802 161 l 1,6,-1
 802 356 l 2,7,8
 802 448 802 448 739.5 480 c 128,-1,9
 677 512 677 512 516 512 c 128,-1,10
 355 512 355 512 299.5 470 c 128,-1,11
 244 428 244 428 244 287 c 2,12,-1
 244 146 l 2,13,14
 244 45 244 45 285 7.5 c 128,-1,15
 326 -30 326 -30 419 -30 c 2,16,-1
 803 -30 l 1,17,-1
 803 -194 l 1,18,19
 622 -217 622 -217 508.5 -217 c 128,-1,20
 395 -217 395 -217 328 -211.5 c 128,-1,21
 261 -206 261 -206 201 -188 c 128,-1,22
 141 -170 141 -170 107 -140 c 128,-1,23
 73 -110 73 -110 48 -58 c 128,-1,24
 23 -6 23 -6 13.5 65.5 c 128,-1,25
 4 137 4 137 4 257 c 128,-1,26
 4 377 4 377 28.5 462.5 c 128,-1,27
 53 548 53 548 117.5 602 c 128,-1,28
 182 656 182 656 283.5 676.5 c 128,-1,29
 385 697 385 697 519.5 697 c 128,-1,30
 654 697 654 697 729.5 688.5 c 128,-1,31
 805 680 805 680 862 659 c 128,-1,32
 919 638 919 638 954 607.5 c 128,-1,33
 989 577 989 577 1010.5 528 c 128,-1,34
 1032 479 1032 479 1040 420 c 128,-1,35
 1048 361 1048 361 1048 276 c 128,-1,36
 1048 191 1048 191 1039 140 c 128,-1,37
 1030 89 1030 89 1003.5 53 c 128,-1,38
 977 17 977 17 930 3.5 c 128,-1,39
 883 -10 883 -10 805 -10 c 2,40,-1
 641 -10 l 2,41,42
 580 -10 580 -10 555 21 c 1,43,-1
 551 21 l 1,44,45
 526 -10 526 -10 462 -10 c 2,46,-1
 419 -10 l 2,47,48
 336 -10 336 -10 300.5 25.5 c 128,-1,49
 265 61 265 61 265 151.5 c 128,-1,50
 265 242 265 242 288 265.5 c 128,-1,51
 311 289 311 289 410 289 c 2,52,-1
 532 289 l 1,53,-1
 532 306 l 1,54,-1
 268 306 l 1,55,0
 268 419 268 419 321 455 c 128,-1,1
513 194 m 1,56,-1
 513 114 l 1,57,-1
 533 114 l 1,58,-1
 533 194 l 1,59,-1
 513 194 l 1,56,-1
EndSplineSet
EndChar

StartChar: registered
Encoding: 174 174 151
Width: 1079
Flags: HMW
HStem: -226 183<431 644 644 674 431 738> -10 21G<310 532 310 310 575 780 575 575> 459 20G<310 601 601 665> 512 195<361 421 421 629>
LayerCount: 2
Fore
SplineSet
1044 473.5 m 128,-1,1
 1069 385 1069 385 1069 263 c 128,-1,2
 1069 141 1069 141 1057.5 69 c 128,-1,3
 1046 -3 1046 -3 1018.5 -55.5 c 128,-1,4
 991 -108 991 -108 952.5 -140.5 c 128,-1,5
 914 -173 914 -173 852 -192.5 c 128,-1,6
 790 -212 790 -212 718 -219 c 128,-1,7
 646 -226 646 -226 543 -226 c 128,-1,8
 440 -226 440 -226 368.5 -219.5 c 128,-1,9
 297 -213 297 -213 233 -194.5 c 128,-1,10
 169 -176 169 -176 130.5 -144 c 128,-1,11
 92 -112 92 -112 63 -59.5 c 0,12,13
 10 36.4482758621 10 36.4482758621 10 248.251164958 c 0,14,15
 10 460.054054054 10 460.054054054 82.1272158498 564.346109405 c 0,16,17
 154.2544317 668.638164755 154.2544317 668.638164755 330 695 c 0,18,19
 410 707 410 707 549.5 707 c 128,-1,20
 689 707 689 707 788 688 c 128,-1,21
 887 669 887 669 953 615.5 c 128,-1,0
 1019 562 1019 562 1044 473.5 c 128,-1,1
739 441 m 128,-1,23
 782 403 782 403 782 317.5 c 128,-1,24
 782 232 782 232 737 190 c 1,25,-1
 788 -4 l 1,26,27
 829 32 829 32 829 108 c 2,28,-1
 829 354 l 2,29,30
 829 438 829 438 778.5 475 c 128,-1,31
 728 512 728 512 629 512 c 2,32,-1
 421 512 l 2,33,34
 330 512 330 512 290 476 c 128,-1,35
 250 440 250 440 250 355 c 2,36,-1
 250 108 l 2,37,38
 250 28 250 28 293 -7.5 c 128,-1,39
 336 -43 336 -43 431 -43 c 2,40,-1
 644 -43 l 2,41,42
 737 -43 737 -43 780 -10 c 1,43,-1
 575 -10 l 1,44,-1
 547 140 l 1,45,-1
 532 140 l 1,46,-1
 532 -10 l 1,47,-1
 310 -10 l 1,48,-1
 310 479 l 1,49,-1
 601 479 l 2,50,22
 696 479 696 479 739 441 c 128,-1,23
554 258 m 1,51,-1
 554 340 l 1,52,-1
 529 340 l 1,53,-1
 529 258 l 1,54,-1
 554 258 l 1,51,-1
EndSplineSet
EndChar

StartChar: copyright
Encoding: 169 169 152
Width: 1039
Flags: HMW
HStem: -226 183<431 619 619 681.5 431 724> -18 179<432.5 597.5> 292 190<440.5 594> 512 195<365 421 421 604>
LayerCount: 2
Fore
SplineSet
330 695 m 0,0,1
 410 707 410 707 542 707 c 128,-1,2
 674 707 674 707 765 688 c 128,-1,3
 856 669 856 669 918 616 c 128,-1,4
 980 563 980 563 1004.5 473.5 c 128,-1,5
 1029 384 1029 384 1029 262.5 c 128,-1,6
 1029 141 1029 141 1018.5 69 c 128,-1,7
 1008 -3 1008 -3 982.5 -55.5 c 128,-1,8
 957 -108 957 -108 922 -140.5 c 128,-1,9
 887 -173 887 -173 829.5 -192.5 c 128,-1,10
 772 -212 772 -212 705.5 -219 c 128,-1,11
 639 -226 639 -226 539.5 -226 c 128,-1,12
 440 -226 440 -226 368.5 -219.5 c 128,-1,13
 297 -213 297 -213 233 -194.5 c 128,-1,14
 169 -176 169 -176 130.5 -144 c 128,-1,15
 92 -112 92 -112 63 -59.5 c 0,16,17
 10 36.4482758621 10 36.4482758621 10 248.251164958 c 0,18,19
 10 460.054054054 10 460.054054054 82.1272158498 564.346109405 c 0,20,21
 154.2544317 668.638164755 154.2544317 668.638164755 330 695 c 0,0,1
789 108 m 2,22,-1
 789 354 l 2,23,24
 789 445 789 445 746 478.5 c 128,-1,25
 703 512 703 512 604 512 c 2,26,-1
 421 512 l 2,27,28
 332 512 332 512 291 477.5 c 128,-1,29
 250 443 250 443 250 351 c 2,30,-1
 250 113 l 2,31,32
 250 24 250 24 293 -9.5 c 128,-1,33
 336 -43 336 -43 431 -43 c 2,34,-1
 619 -43 l 2,35,36
 714 -43 714 -43 751.5 -11 c 128,-1,37
 789 21 789 21 789 108 c 2,22,-1
556 172.5 m 128,-1,39
 565 161 565 161 598.5 161 c 128,-1,40
 632 161 632 161 695 168 c 1,41,-1
 703 -7 l 1,42,43
 556 -18 556 -18 516 -18 c 0,44,45
 391 -18 391 -18 338 40.5 c 128,-1,46
 285 99 285 99 285 236 c 128,-1,47
 285 373 285 373 340 427.5 c 128,-1,48
 395 482 395 482 529 482 c 0,49,50
 582 482 582 482 703 473 c 1,51,-1
 692 287 l 1,52,53
 619 292 619 292 591.5 292 c 128,-1,54
 564 292 564 292 555.5 281 c 128,-1,55
 547 270 547 270 547 227 c 128,-1,38
 547 184 547 184 556 172.5 c 128,-1,39
EndSplineSet
EndChar

StartChar: paragraph
Encoding: 182 182 153
Width: 675
Flags: HMW
HStem: -137 21G<230 425 230 230 461 461 461 655> 608 20G<236 655 655 655>
VStem: 230 195<-137 153 153 153> 461 194<-137 474 474 474>
LayerCount: 2
Fore
SplineSet
425 474 m 1,0,-1
 425 -137 l 1,1,-1
 230 -137 l 1,2,-1
 230 153 l 1,3,4
 109 153 109 153 57.5 207.5 c 128,-1,5
 6 262 6 262 6 390.5 c 0,6,7
 6 519 6 519 59.5 573.5 c 128,-1,8
 113 628 113 628 236 628 c 2,9,-1
 655 628 l 1,10,-1
 655 -137 l 1,11,-1
 461 -137 l 1,12,-1
 461 474 l 1,13,-1
 425 474 l 1,0,-1
EndSplineSet
EndChar

StartChar: section
Encoding: 167 167 154
Width: 494
Flags: HMW
HStem: -146 21G<196.5 304> 610 20G<210 305>
LayerCount: 2
Fore
SplineSet
273 461 m 1,0,-1
 271 451 l 1,1,2
 390 425 390 425 441 380 c 128,-1,3
 492 335 492 335 492 251.5 c 0,4,5
 492 168 492 168 448 100 c 1,6,7
 460 68 460 68 460 34 c 0,8,9
 460 -52 460 -52 400.5 -99 c 128,-1,10
 341 -146 341 -146 230 -146 c 0,11,12
 119 -146 119 -146 13 -129 c 1,13,-1
 29 37 l 1,14,15
 209 18 209 18 234 18 c 1,16,-1
 237 33 l 1,17,18
 109 67 109 67 55.5 119.5 c 128,-1,19
 2 172 2 172 2 270 c 0,20,21
 2 344 2 344 49 404 c 1,22,23
 39 433 39 433 39 464 c 0,24,25
 39 555 39 555 102.5 592.5 c 128,-1,26
 166 630 166 630 279 630 c 0,27,28
 358 630 358 630 474 613 c 1,29,-1
 442 447 l 1,30,31
 294 461 294 461 273 461 c 1,0,-1
314 236 m 1,32,-1
 199 290 l 1,33,-1
 188 265 l 1,34,-1
 303 212 l 1,35,-1
 314 236 l 1,32,-1
EndSplineSet
EndChar

StartChar: asterisk
Encoding: 42 42 155
Width: 486
Flags: HMW
HStem: 248 21G<324 324> 620 20G<163 328 328 328>
LayerCount: 2
Fore
SplineSet
478 446 m 1,0,-1
 383 416 l 1,1,-1
 451 326 l 1,2,-1
 324 248 l 1,3,-1
 246 330 l 1,4,-1
 173 249 l 1,5,-1
 47 323 l 1,6,-1
 101 414 l 1,7,-1
 8 446 l 1,8,-1
 36 566 l 1,9,-1
 152 547 l 1,10,-1
 163 640 l 1,11,-1
 328 640 l 1,12,-1
 336 547 l 1,13,-1
 445 566 l 1,14,-1
 478 446 l 1,0,-1
EndSplineSet
EndChar

StartChar: dagger
Encoding: 8224 8224 156
Width: 504
Flags: HMW
HStem: -137 21G<138 360 138 138> 320 159<15 138 15 138 360 489> 586 20G<138 360 360 360>
LayerCount: 2
Fore
SplineSet
15 320 m 1,0,-1
 15 479 l 1,1,-1
 138 479 l 1,2,-1
 138 606 l 1,3,-1
 360 606 l 1,4,-1
 360 479 l 1,5,-1
 489 479 l 1,6,-1
 489 320 l 1,7,-1
 360 320 l 1,8,-1
 360 -137 l 1,9,-1
 138 -137 l 1,10,-1
 138 320 l 1,11,-1
 15 320 l 1,0,-1
EndSplineSet
EndChar

StartChar: daggerdbl
Encoding: 8225 8225 157
Width: 504
Flags: HMW
HStem: -137 21G<138 360 138 138> 0 159<15 138 15 138 360 489> 320 159<15 138 15 138 360 489> 586 20G<138 360 360 360>
LayerCount: 2
Fore
SplineSet
15 0 m 1,0,-1
 15 159 l 1,1,-1
 138 159 l 1,2,-1
 138 320 l 1,3,-1
 15 320 l 1,4,-1
 15 479 l 1,5,-1
 138 479 l 1,6,-1
 138 606 l 1,7,-1
 360 606 l 1,8,-1
 360 479 l 1,9,-1
 489 479 l 1,10,-1
 489 320 l 1,11,-1
 360 320 l 1,12,-1
 360 159 l 1,13,-1
 489 159 l 1,14,-1
 489 0 l 1,15,-1
 360 0 l 1,16,-1
 360 -137 l 1,17,-1
 138 -137 l 1,18,-1
 138 0 l 1,19,-1
 15 0 l 1,0,-1
EndSplineSet
EndChar

StartChar: ordfeminine
Encoding: 170 170 158
Width: 416
Flags: HMW
HStem: 288 21G<118 170 314.5 349> 619 20G<207.5 295.5>
VStem: 225 174<376 575 432 575>
LayerCount: 2
Fore
SplineSet
399 537 m 1,0,-1
 396 417 l 2,1,2
 396 400 396 400 413 400 c 1,3,-1
 404 291 l 1,4,5
 373 288 373 288 323 288 c 128,-1,6
 273 288 273 288 245 310 c 1,7,-1
 242 310 l 1,8,9
 202 288 202 288 150 288 c 0,10,11
 32 288 32 288 32 390 c 0,12,13
 32 452 32 452 76.5 474.5 c 128,-1,14
 121 497 121 497 218 501 c 1,15,-1
 218 515 l 1,16,-1
 59 502 l 1,17,-1
 45 625 l 1,18,19
 157 639 157 639 240.5 639 c 128,-1,20
 324 639 324 639 361.5 616 c 128,-1,21
 399 593 399 593 399 537 c 1,0,-1
211 432 m 1,22,-1
 211 376 l 1,23,-1
 225 376 l 1,24,-1
 225 432 l 1,25,-1
 211 432 l 1,22,-1
EndSplineSet
EndChar

StartChar: ordmasculine
Encoding: 186 186 159
Width: 424
Flags: HMW
HStem: 288 21G<160 298> 619 20G<162 296.5>
VStem: 31 190<402.5 520 387 526> 235 188<404.5 520 520 520>
LayerCount: 2
Fore
SplineSet
79 597.5 m 128,-1,1
 127 639 127 639 228.5 639 c 128,-1,2
 330 639 330 639 376.5 598.5 c 128,-1,3
 423 558 423 558 423 465.5 c 128,-1,4
 423 373 423 373 377.5 330.5 c 128,-1,5
 332 288 332 288 228.5 288 c 128,-1,6
 125 288 125 288 78 330 c 128,-1,7
 31 372 31 372 31 464 c 128,-1,0
 31 556 31 556 79 597.5 c 128,-1,1
235 387 m 1,8,-1
 235 520 l 1,9,-1
 221 520 l 1,10,-1
 221 387 l 1,11,-1
 235 387 l 1,8,-1
EndSplineSet
EndChar

StartChar: trademark
Encoding: 8482 8482 160
Width: 718
Flags: HMW
HStem: 270 21G<60 220 60 60 272 272 272 403 427 427 427 553 579 579 579 716> 506 115<7 60 2 277 220 270 220 220>
VStem: 60 160<270 506 270 506> 279 126 576 132
LayerCount: 2
Fore
SplineSet
270 506 m 1,0,-1
 220 506 l 1,1,-1
 220 270 l 1,2,-1
 60 270 l 1,3,-1
 60 506 l 1,4,-1
 2 506 l 1,5,-1
 7 621 l 1,6,-1
 277 621 l 1,7,-1
 270 506 l 1,0,-1
716 270 m 1,8,-1
 579 270 l 1,9,-1
 574 411 l 1,10,-1
 569 411 l 1,11,-1
 553 270 l 1,12,-1
 427 270 l 1,13,-1
 414 411 l 1,14,-1
 408 411 l 1,15,-1
 403 270 l 1,16,-1
 272 270 l 1,17,-1
 287 621 l 1,18,-1
 471 621 l 1,19,-1
 489 493 l 1,20,-1
 497 493 l 1,21,-1
 511 621 l 1,22,-1
 700 621 l 1,23,-1
 716 270 l 1,8,-1
EndSplineSet
EndChar

StartChar: numbersign
Encoding: 35 35 161
Width: 560
Flags: HMW
HStem: 0 21G<34 237 34 34 262 457 262 262> 571 20G<101 297 297 297 319 517 517 517>
LayerCount: 2
Fore
SplineSet
552 309 m 1,0,-1
 489 309 l 1,1,-1
 487 287 l 1,2,-1
 539 287 l 1,3,-1
 539 141 l 1,4,-1
 472 141 l 1,5,-1
 457 0 l 1,6,-1
 262 0 l 1,7,-1
 277 141 l 1,8,-1
 252 141 l 1,9,-1
 237 0 l 1,10,-1
 34 0 l 1,11,-1
 52 141 l 1,12,-1
 8 141 l 1,13,-1
 8 287 l 1,14,-1
 66 287 l 1,15,-1
 69 309 l 1,16,-1
 22 309 l 1,17,-1
 22 452 l 1,18,-1
 82 452 l 1,19,-1
 101 591 l 1,20,-1
 297 591 l 1,21,-1
 282 452 l 1,22,-1
 304 452 l 1,23,-1
 319 591 l 1,24,-1
 517 591 l 1,25,-1
 502 452 l 1,26,-1
 552 452 l 1,27,-1
 552 309 l 1,0,-1
291 314 m 1,28,-1
 267 314 l 1,29,-1
 263 282 l 1,30,-1
 287 282 l 1,31,-1
 291 314 l 1,28,-1
EndSplineSet
EndChar

StartChar: zero
Encoding: 48 48 162
Width: 583
Flags: HMW
HStem: -10 21G<171.5 412> 611 20G<171 412>
LayerCount: 2
Fore
SplineSet
569.5 455.5 m 128,-1,1
 581 399 581 399 581 309.5 c 128,-1,2
 581 220 581 220 569.5 164 c 128,-1,3
 558 108 558 108 526.5 66.5 c 128,-1,4
 495 25 495 25 438 7.5 c 128,-1,5
 381 -10 381 -10 291.5 -10 c 128,-1,6
 202 -10 202 -10 145 7.5 c 128,-1,7
 88 25 88 25 56.5 66.5 c 128,-1,8
 25 108 25 108 13.5 164 c 128,-1,9
 2 220 2 220 2 309.5 c 128,-1,10
 2 399 2 399 13.5 455.5 c 128,-1,11
 25 512 25 512 56.5 553.5 c 128,-1,12
 88 595 88 595 144.5 613 c 128,-1,13
 201 631 201 631 291 631 c 128,-1,14
 381 631 381 631 438 613 c 128,-1,15
 495 595 495 595 526.5 553.5 c 128,-1,0
 558 512 558 512 569.5 455.5 c 128,-1,1
312 157 m 1,16,-1
 312 435 l 1,17,-1
 276 435 l 1,18,-1
 276 157 l 1,19,-1
 312 157 l 1,16,-1
EndSplineSet
EndChar

StartChar: one
Encoding: 49 49 163
Width: 359
Flags: HMW
HStem: 0 21G<57 339 57 57> 601 20G<92 339 339 339>
LayerCount: 2
Fore
SplineSet
339 0 m 1,0,-1
 57 0 l 1,1,-1
 57 397 l 1,2,-1
 0 397 l 1,3,-1
 0 560 l 1,4,-1
 92 621 l 1,5,-1
 339 621 l 1,6,-1
 339 0 l 1,0,-1
EndSplineSet
EndChar

StartChar: two
Encoding: 50 50 164
Width: 505
Flags: HMW
HStem: 0 194<385 500 385 500> 610 20G<204.5 334>
LayerCount: 2
Fore
SplineSet
248 630 m 0,0,1
 502 630 502 630 502 440 c 0,2,3
 502 364 502 364 474 312 c 128,-1,4
 446 260 446 260 385 200 c 1,5,-1
 385 194 l 1,6,-1
 500 194 l 1,7,-1
 500 0 l 1,8,-1
 24 0 l 1,9,-1
 18 153 l 1,10,11
 162 282 162 282 162 361 c 0,12,13
 162 391 162 391 132 391 c 0,14,15
 108 391 108 391 21 376 c 1,16,-1
 2 600 l 1,17,18
 114 630 114 630 248 630 c 0,0,1
EndSplineSet
EndChar

StartChar: three
Encoding: 51 51 165
Width: 520
Flags: HMW
HStem: -10 200<176.5 345.5> 228 147<50 186 50 186> 610 20G<210.5 336>
LayerCount: 2
Fore
SplineSet
0 598 m 1,0,1
 127 630 127 630 253.5 630 c 128,-1,2
 380 630 380 630 444 588.5 c 128,-1,3
 508 547 508 547 508 456 c 0,4,5
 508 407 508 407 492.5 377.5 c 128,-1,6
 477 348 477 348 438 324 c 1,7,-1
 438 320 l 1,8,9
 518 282 518 282 518 180 c 128,-1,10
 518 78 518 78 456 34 c 128,-1,11
 394 -10 394 -10 264 -10 c 128,-1,12
 134 -10 134 -10 15 14 c 1,13,-1
 33 206 l 1,14,15
 177 190 177 190 189 190 c 128,-1,16
 201 190 201 190 205.5 194 c 128,-1,17
 210 198 210 198 210 209.5 c 128,-1,18
 210 221 210 221 205 224.5 c 128,-1,19
 200 228 200 228 186 228 c 2,20,-1
 50 228 l 1,21,-1
 50 375 l 1,22,-1
 186 375 l 2,23,24
 197 375 197 375 201.5 379 c 128,-1,25
 206 383 206 383 206 393 c 128,-1,26
 206 403 206 403 201 407 c 128,-1,27
 196 411 196 411 174.5 411 c 128,-1,28
 153 411 153 411 19 390 c 1,29,-1
 0 598 l 1,0,1
EndSplineSet
EndChar

StartChar: four
Encoding: 52 52 166
Width: 577
Flags: HMW
HStem: 0 21G<244 526 244 244> 97 166<526 569 526 577> 601 20G<143 526 526 526>
VStem: 223 36<259 343 259 343>
LayerCount: 2
Fore
SplineSet
569 97 m 1,0,-1
 526 97 l 1,1,-1
 526 0 l 1,2,-1
 244 0 l 1,3,-1
 244 97 l 1,4,-1
 15 97 l 1,5,-1
 0 236 l 1,6,-1
 143 621 l 1,7,-1
 526 621 l 1,8,-1
 526 263 l 1,9,-1
 577 263 l 1,10,-1
 569 97 l 1,0,-1
259 259 m 1,11,-1
 259 343 l 1,12,-1
 223 343 l 1,13,-1
 223 259 l 1,14,-1
 259 259 l 1,11,-1
EndSplineSet
EndChar

StartChar: five
Encoding: 53 53 167
Width: 511
Flags: HMW
HStem: -10 21G<200 340> 423 198<249 475 249 249>
LayerCount: 2
Fore
SplineSet
460.5 361.5 m 128,-1,1
 507 321 507 321 507 214.5 c 128,-1,2
 507 108 507 108 445 49 c 128,-1,3
 383 -10 383 -10 242 -10 c 0,4,5
 134 -10 134 -10 12 15 c 1,6,-1
 26 208 l 1,7,8
 208 192 208 192 225 192 c 128,-1,9
 242 192 242 192 245.5 195 c 128,-1,10
 249 198 249 198 249 207 c 0,11,12
 249 223 249 223 233 223 c 2,13,-1
 8 231 l 1,14,-1
 8 621 l 1,15,-1
 475 621 l 1,16,-1
 475 423 l 1,17,-1
 249 423 l 1,18,-1
 249 398 l 1,19,20
 287 402 287 402 308 402 c 0,21,0
 414 402 414 402 460.5 361.5 c 128,-1,1
EndSplineSet
EndChar

StartChar: six
Encoding: 54 54 168
Width: 568
Flags: HMW
HStem: -10 21G<194 397.5> 423 198<297 536 376 525>
LayerCount: 2
Fore
SplineSet
279 400 m 1,0,-1
 347 400 l 2,1,2
 464 400 464 400 519 356 c 128,-1,3
 574 312 574 312 574 206.5 c 0,4,5
 574 101 574 101 508.5 45.5 c 128,-1,6
 443 -10 443 -10 293 -10 c 0,7,8
 143 -10 143 -10 72.5 61.5 c 128,-1,9
 2 133 2 133 2 286 c 0,10,11
 2 466 2 466 92 543.5 c 128,-1,12
 182 621 182 621 376 621 c 2,13,-1
 536 621 l 1,14,-1
 525 423 l 1,15,-1
 306 423 l 2,16,17
 279 423 279 423 279 400 c 1,0,-1
311 143 m 1,18,-1
 311 260 l 1,19,-1
 275 260 l 1,20,-1
 275 143 l 1,21,-1
 311 143 l 1,18,-1
EndSplineSet
EndChar

StartChar: seven
Encoding: 55 55 169
Width: 469
Flags: HMW
HStem: 0 21G<20 347 20 20> 601 20G<0 465 465 465>
LayerCount: 2
Fore
SplineSet
465 452 m 1,0,-1
 347 0 l 1,1,-1
 20 0 l 1,2,-1
 140 397 l 1,3,-1
 0 397 l 1,4,-1
 0 621 l 1,5,-1
 465 621 l 1,6,-1
 465 452 l 1,0,-1
EndSplineSet
EndChar

StartChar: eight
Encoding: 56 56 170
Width: 579
Flags: HMW
HStem: -10 21G<206.5 381> 611 20G<206 370.5>
LayerCount: 2
Fore
SplineSet
288 631 m 0,0,1
 566 631 566 631 566 459 c 0,2,3
 566 403 566 403 547.5 372.5 c 128,-1,4
 529 342 529 342 480 317 c 1,5,-1
 480 311 l 1,6,7
 532 298 532 298 553.5 266.5 c 128,-1,8
 575 235 575 235 575 181 c 0,9,10
 575 82 575 82 503 36 c 128,-1,11
 431 -10 431 -10 294 -10 c 0,12,13
 4 -10 4 -10 4 173 c 0,14,15
 4 273 4 273 99 308 c 1,16,-1
 99 314 l 1,17,18
 52 338 52 338 31.5 369.5 c 128,-1,19
 11 401 11 401 11 455 c 0,20,21
 11 543 11 543 85.5 587 c 128,-1,22
 160 631 160 631 288 631 c 0,0,1
310 129 m 1,23,-1
 310 252 l 1,24,-1
 274 252 l 1,25,-1
 274 129 l 1,26,-1
 310 129 l 1,23,-1
310 368 m 1,27,-1
 310 472 l 1,28,-1
 274 472 l 1,29,-1
 274 368 l 1,30,-1
 310 368 l 1,27,-1
EndSplineSet
EndChar

StartChar: nine
Encoding: 57 57 171
Width: 568
Flags: HMW
HStem: -10 192<43 192 32 264> 601 20G<170.5 379>
LayerCount: 2
Fore
SplineSet
289 205 m 1,0,-1
 217 205 l 2,1,2
 105 205 105 205 49.5 248.5 c 128,-1,3
 -6 292 -6 292 -6 399 c 0,4,5
 -6 621 -6 621 270 621 c 0,6,7
 429 621 429 621 497.5 546.5 c 128,-1,8
 566 472 566 472 566 305.5 c 0,9,10
 566 139 566 139 476 64.5 c 128,-1,11
 386 -10 386 -10 192 -10 c 2,12,-1
 32 -10 l 1,13,-1
 43 182 l 1,14,-1
 264 182 l 2,15,16
 278 182 278 182 283.5 187 c 128,-1,17
 289 192 289 192 289 205 c 1,0,-1
257 443 m 1,18,-1
 257 326 l 1,19,-1
 293 326 l 1,20,-1
 293 443 l 1,21,-1
 257 443 l 1,18,-1
EndSplineSet
EndChar

StartChar: onesuperior
Encoding: 185 185 172
Width: 257
Flags: HMW
HStem: 186 21G<50 247 50 50> 601 20G<74 247 247 247>
VStem: 50 197<186 464 464 464>
LayerCount: 2
Fore
SplineSet
247 186 m 1,0,-1
 50 186 l 1,1,-1
 50 464 l 1,2,-1
 10 464 l 1,3,-1
 10 578 l 1,4,-1
 74 621 l 1,5,-1
 247 621 l 1,6,-1
 247 186 l 1,0,-1
EndSplineSet
EndChar

StartChar: twosuperior
Encoding: 178 178 173
Width: 364
Flags: HMW
HStem: 189 136<278 359 278 359> 463 167<93.5 243>
LayerCount: 2
Fore
SplineSet
183 630 m 0,0,1
 360 630 360 630 360 497 c 0,2,3
 360 444 360 444 340.5 407 c 128,-1,4
 321 370 321 370 278 329 c 1,5,-1
 278 325 l 1,6,-1
 359 325 l 1,7,-1
 359 189 l 1,8,-1
 26 189 l 1,9,-1
 22 296 l 1,10,11
 122 386 122 386 122 442 c 0,12,13
 122 463 122 463 101 463 c 0,14,15
 90 463 90 463 24 452 c 1,16,-1
 10 609 l 1,17,18
 91 630 91 630 183 630 c 0,0,1
EndSplineSet
EndChar

StartChar: threesuperior
Encoding: 179 179 174
Width: 377
Flags: HMW
HStem: 182 21G<153 252> 349 102<45 140 45 140> 477 153<128.5 245.5>
LayerCount: 2
Fore
SplineSet
33 333 m 1,0,1
 132 322 132 322 142 322 c 0,2,3
 157 322 157 322 157 335.5 c 128,-1,4
 157 349 157 349 140 349 c 2,5,-1
 45 349 l 1,6,-1
 45 451 l 1,7,-1
 140 451 l 2,8,9
 154 451 154 451 154 464 c 128,-1,10
 154 477 154 477 137 477 c 128,-1,11
 120 477 120 477 23 462 c 1,12,-1
 10 608 l 1,13,14
 98 630 98 630 188 630 c 0,15,16
 366 630 366 630 366 508 c 0,17,18
 366 474 366 474 355 453 c 128,-1,19
 344 432 344 432 317 416 c 1,20,-1
 317 413 l 1,21,22
 373 386 373 386 373 315 c 128,-1,23
 373 244 373 244 329.5 213 c 128,-1,24
 286 182 286 182 196.5 182 c 128,-1,25
 107 182 107 182 20 199 c 1,26,-1
 33 333 l 1,0,1
EndSplineSet
EndChar

StartChar: onehalf
Encoding: 189 189 175
Width: 864
Flags: HMW
HStem: 0 136<772 853 772 853> 274 167<587.5 737> 601 20G<74 247 247 247 341 544 544 544>
VStem: 50 197<186 464 464 464>
LayerCount: 2
Fore
SplineSet
544 621 m 1,0,-1
 414 0 l 1,1,-1
 212 0 l 1,2,-1
 341 621 l 1,3,-1
 544 621 l 1,0,-1
247 186 m 1,4,-1
 50 186 l 1,5,-1
 50 464 l 1,6,-1
 10 464 l 1,7,-1
 10 578 l 1,8,-1
 74 621 l 1,9,-1
 247 621 l 1,10,-1
 247 186 l 1,4,-1
677 441 m 0,11,12
 854 441 854 441 854 308 c 0,13,14
 854 255 854 255 834.5 218 c 128,-1,15
 815 181 815 181 772 140 c 1,16,-1
 772 136 l 1,17,-1
 853 136 l 1,18,-1
 853 0 l 1,19,-1
 520 0 l 1,20,-1
 516 107 l 1,21,22
 616 197 616 197 616 253 c 0,23,24
 616 274 616 274 595 274 c 0,25,26
 584 274 584 274 518 263 c 1,27,-1
 504 420 l 1,28,29
 585 441 585 441 677 441 c 0,11,12
EndSplineSet
EndChar

StartChar: onequarter
Encoding: 188 188 176
Width: 872
Flags: HMW
HStem: 0 21G<212 414 212 212 635 635 635 832> 601 20G<74 247 247 247 341 544 544 544>
VStem: 50 197<186 464 464 464> 635 197<0 68 0 68>
LayerCount: 2
Fore
SplineSet
544 621 m 1,0,-1
 414 0 l 1,1,-1
 212 0 l 1,2,-1
 341 621 l 1,3,-1
 544 621 l 1,0,-1
247 186 m 1,4,-1
 50 186 l 1,5,-1
 50 464 l 1,6,-1
 10 464 l 1,7,-1
 10 578 l 1,8,-1
 74 621 l 1,9,-1
 247 621 l 1,10,-1
 247 186 l 1,4,-1
862 68 m 1,11,-1
 832 68 l 1,12,-1
 832 0 l 1,13,-1
 635 0 l 1,14,-1
 635 68 l 1,15,-1
 474 68 l 1,16,-1
 464 165 l 1,17,-1
 564 435 l 1,18,-1
 832 435 l 1,19,-1
 832 184 l 1,20,-1
 868 184 l 1,21,-1
 862 68 l 1,11,-1
645 181 m 1,22,-1
 645 240 l 1,23,-1
 620 240 l 1,24,-1
 620 181 l 1,25,-1
 645 181 l 1,22,-1
EndSplineSet
EndChar

StartChar: threequarters
Encoding: 190 190 177
Width: 972
Flags: HMW
HStem: 0 21G<319 521 319 319 735 735 735 932> 349 102<45 140 45 140> 477 144 610 20G<157.5 245.5>
VStem: 735 197<0 68 0 68>
LayerCount: 2
Fore
SplineSet
651 621 m 1,0,-1
 521 0 l 1,1,-1
 319 0 l 1,2,-1
 448 621 l 1,3,-1
 651 621 l 1,0,-1
33 333 m 1,4,5
 132 322 132 322 142 322 c 0,6,7
 157 322 157 322 157 335.5 c 128,-1,8
 157 349 157 349 140 349 c 2,9,-1
 45 349 l 1,10,-1
 45 451 l 1,11,-1
 140 451 l 2,12,13
 154 451 154 451 154 464 c 128,-1,14
 154 477 154 477 137 477 c 128,-1,15
 120 477 120 477 23 462 c 1,16,-1
 10 608 l 1,17,18
 98 630 98 630 188 630 c 0,19,20
 366 630 366 630 366 508 c 0,21,22
 366 474 366 474 355 453 c 128,-1,23
 344 432 344 432 317 416 c 1,24,-1
 317 413 l 1,25,26
 373 386 373 386 373 315 c 128,-1,27
 373 244 373 244 329.5 213 c 128,-1,28
 286 182 286 182 196.5 182 c 128,-1,29
 107 182 107 182 20 199 c 1,30,-1
 33 333 l 1,4,5
962 68 m 1,31,-1
 932 68 l 1,32,-1
 932 0 l 1,33,-1
 735 0 l 1,34,-1
 735 68 l 1,35,-1
 574 68 l 1,36,-1
 564 165 l 1,37,-1
 664 435 l 1,38,-1
 932 435 l 1,39,-1
 932 184 l 1,40,-1
 968 184 l 1,41,-1
 962 68 l 1,31,-1
745 181 m 1,42,-1
 745 240 l 1,43,-1
 720 240 l 1,44,-1
 720 181 l 1,45,-1
 745 181 l 1,42,-1
EndSplineSet
EndChar

StartChar: percent
Encoding: 37 37 178
Width: 1051
Flags: HMW
HStem: -10 21G<760 928.5> 0 21G<359 566 359 359> 601 20G<486 694 694 694> 610 20G<123 291.5>
VStem: 4 192<325.5 483> 221 189<325.5 483 325.5 492 325.5 492> 641 192<134.5 292> 858 189<134.5 292 134.5 301 134.5 301>
LayerCount: 2
Fore
SplineSet
369.5 579.5 m 128,-1,1
 410 529 410 529 410 404.5 c 128,-1,2
 410 280 410 280 369.5 230.5 c 128,-1,3
 329 181 329 181 207.5 181 c 128,-1,4
 86 181 86 181 45 230.5 c 128,-1,5
 4 280 4 280 4 404.5 c 128,-1,6
 4 529 4 529 45 579.5 c 128,-1,7
 86 630 86 630 207.5 630 c 128,-1,0
 329 630 329 630 369.5 579.5 c 128,-1,1
1006.5 388.5 m 128,-1,9
 1047 338 1047 338 1047 213.5 c 128,-1,10
 1047 89 1047 89 1006.5 39.5 c 128,-1,11
 966 -10 966 -10 844.5 -10 c 128,-1,12
 723 -10 723 -10 682 39.5 c 128,-1,13
 641 89 641 89 641 213.5 c 128,-1,14
 641 338 641 338 682 388.5 c 128,-1,15
 723 439 723 439 844.5 439 c 128,-1,8
 966 439 966 439 1006.5 388.5 c 128,-1,9
694 621 m 1,16,-1
 566 0 l 1,17,-1
 359 0 l 1,18,-1
 486 621 l 1,19,-1
 694 621 l 1,16,-1
221 298 m 1,20,-1
 221 492 l 1,21,-1
 196 492 l 1,22,-1
 196 298 l 1,23,-1
 221 298 l 1,20,-1
858 107 m 1,24,-1
 858 301 l 1,25,-1
 833 301 l 1,26,-1
 833 107 l 1,27,-1
 858 107 l 1,24,-1
EndSplineSet
EndChar

StartChar: perthousand
Encoding: 8240 8240 179
Width: 1473
Flags: HMW
HStem: -10 21G<760 928.5 1182 1350.5> 0 21G<359 566 359 359> 601 20G<486 694 694 694> 610 20G<123 291.5>
VStem: 4 192<325.5 483> 221 189<325.5 483 325.5 492 325.5 492> 641 192<134.5 292> 858 189<134.5 292 134.5 301 134.5 301> 1063 192<134.5 292> 1280 189<134.5 292 134.5 301 134.5 301>
LayerCount: 2
Fore
SplineSet
369.5 579.5 m 128,-1,1
 410 529 410 529 410 404.5 c 128,-1,2
 410 280 410 280 369.5 230.5 c 128,-1,3
 329 181 329 181 207.5 181 c 128,-1,4
 86 181 86 181 45 230.5 c 128,-1,5
 4 280 4 280 4 404.5 c 128,-1,6
 4 529 4 529 45 579.5 c 128,-1,7
 86 630 86 630 207.5 630 c 128,-1,0
 329 630 329 630 369.5 579.5 c 128,-1,1
1006.5 388.5 m 128,-1,9
 1047 338 1047 338 1047 213.5 c 128,-1,10
 1047 89 1047 89 1006.5 39.5 c 128,-1,11
 966 -10 966 -10 844.5 -10 c 128,-1,12
 723 -10 723 -10 682 39.5 c 128,-1,13
 641 89 641 89 641 213.5 c 128,-1,14
 641 338 641 338 682 388.5 c 128,-1,15
 723 439 723 439 844.5 439 c 128,-1,8
 966 439 966 439 1006.5 388.5 c 128,-1,9
1428.5 388.5 m 128,-1,17
 1469 338 1469 338 1469 213.5 c 128,-1,18
 1469 89 1469 89 1428.5 39.5 c 128,-1,19
 1388 -10 1388 -10 1266.5 -10 c 128,-1,20
 1145 -10 1145 -10 1104 39.5 c 128,-1,21
 1063 89 1063 89 1063 213.5 c 128,-1,22
 1063 338 1063 338 1104 388.5 c 128,-1,23
 1145 439 1145 439 1266.5 439 c 128,-1,16
 1388 439 1388 439 1428.5 388.5 c 128,-1,17
694 621 m 1,24,-1
 566 0 l 1,25,-1
 359 0 l 1,26,-1
 486 621 l 1,27,-1
 694 621 l 1,24,-1
1280 107 m 1,28,-1
 1280 301 l 1,29,-1
 1255 301 l 1,30,-1
 1255 107 l 1,31,-1
 1280 107 l 1,28,-1
221 298 m 1,32,-1
 221 492 l 1,33,-1
 196 492 l 1,34,-1
 196 298 l 1,35,-1
 221 298 l 1,32,-1
858 107 m 1,36,-1
 858 301 l 1,37,-1
 833 301 l 1,38,-1
 833 107 l 1,39,-1
 858 107 l 1,36,-1
EndSplineSet
EndChar

StartChar: degree
Encoding: 176 176 180
Width: 339
Flags: HMW
HStem: 367 21G<110.5 228> 605 20G<110.5 228.5>
LayerCount: 2
Fore
SplineSet
295.5 593.5 m 128,-1,1
 334 562 334 562 334 495.5 c 128,-1,2
 334 429 334 429 295.5 398 c 128,-1,3
 257 367 257 367 170 367 c 128,-1,4
 83 367 83 367 44 398 c 128,-1,5
 5 429 5 429 5 495 c 128,-1,6
 5 561 5 561 44 593 c 128,-1,7
 83 625 83 625 170 625 c 128,-1,0
 257 625 257 625 295.5 593.5 c 128,-1,1
159 511 m 1,8,-1
 159 477 l 1,9,-1
 179 477 l 1,10,-1
 179 511 l 1,11,-1
 159 511 l 1,8,-1
EndSplineSet
EndChar

StartChar: dollar
Encoding: 36 36 181
Width: 529
Flags: HMW
HStem: -64 21G<149 382 149 149> 673 20G<149 381 381 381>
LayerCount: 2
Fore
SplineSet
16.5 311.5 m 128,-1,1
 0 352 0 352 0 420 c 128,-1,2
 0 488 0 488 38 541 c 128,-1,3
 76 594 76 594 149 616 c 1,4,-1
 149 693 l 1,5,-1
 381 693 l 1,6,-1
 381 626 l 1,7,8
 434 621 434 621 513 609 c 1,9,-1
 494 410 l 1,10,-1
 271 444 l 1,11,-1
 271 425 l 1,12,13
 405 407 405 407 467 360.5 c 128,-1,14
 529 314 529 314 529 202 c 0,15,16
 529 44 529 44 382 4 c 1,17,-1
 382 -64 l 1,18,-1
 149 -64 l 1,19,-1
 149 -4 l 1,20,21
 99 0 99 0 19 20 c 1,22,-1
 27 202 l 1,23,-1
 257 158 l 1,24,-1
 257 176 l 1,25,26
 190 190 190 190 148 204.5 c 128,-1,27
 106 219 106 219 69.5 245 c 128,-1,0
 33 271 33 271 16.5 311.5 c 128,-1,1
EndSplineSet
EndChar

StartChar: cent
Encoding: 162 162 182
Width: 388
Flags: HMW
HStem: -64 21G<99 322 99 99> 517 20G<99 321 321 321>
LayerCount: 2
Fore
SplineSet
300 271.5 m 128,-1,1
 292 262 292 262 292 233.5 c 128,-1,2
 292 205 292 205 299.5 196.5 c 128,-1,3
 307 188 307 188 320.5 188 c 128,-1,4
 334 188 334 188 372 192 c 1,5,-1
 383 1 l 1,6,7
 338 -6 338 -6 322 -8 c 1,8,-1
 322 -64 l 1,9,-1
 99 -64 l 1,10,-1
 99 26 l 1,11,12
 4 82 4 82 4 233 c 128,-1,13
 4 384 4 384 99 448 c 1,14,-1
 99 537 l 1,15,-1
 321 537 l 1,16,-1
 321 489 l 1,17,18
 345 488 345 488 388 481 c 1,19,-1
 371 277 l 1,20,21
 333 281 333 281 320.5 281 c 128,-1,0
 308 281 308 281 300 271.5 c 128,-1,1
EndSplineSet
EndChar

StartChar: Euro
Encoding: 8364 8364 183
Width: 536
Flags: HMW
HStem: -10 163<374.5 388> 178 110<0 61 0 67 0 61 330 497 330 330> 303 112<0 61 0 63 334 506> 444 186<378 402.5 273.5 409.5>
LayerCount: 2
Fore
SplineSet
0 415 m 1,0,-1
 63 415 l 1,1,2
 80 528 80 528 152.5 579 c 128,-1,3
 225 630 225 630 373 630 c 0,4,5
 437 630 437 630 534 613 c 1,6,-1
 515 433 l 1,7,8
 416 444 416 444 394 444 c 0,9,10
 343 444 343 444 334 415 c 1,11,-1
 514 415 l 1,12,-1
 506 303 l 1,13,-1
 315 303 l 1,14,-1
 315 288 l 1,15,-1
 504 288 l 1,16,-1
 497 178 l 1,17,-1
 330 178 l 1,18,19
 338 153 338 153 391 153 c 0,20,21
 410 153 410 153 511 165 c 1,22,-1
 531 6 l 1,23,24
 421 -10 421 -10 355 -10 c 0,25,26
 226 -10 226 -10 157 31.5 c 128,-1,27
 88 73 88 73 67 178 c 1,28,-1
 0 178 l 1,29,-1
 0 288 l 1,30,-1
 61 288 l 1,31,-1
 61 303 l 1,32,-1
 0 303 l 1,33,-1
 0 415 l 1,0,-1
EndSplineSet
EndChar

StartChar: sterling
Encoding: 163 163 184
Width: 673
Flags: HMW
HStem: -31 21G<450 556.5> 269 115<87 162 87 197 87 162 450 541 450 450> 610 20G
LayerCount: 2
Fore
SplineSet
321 630 m 0,0,1
 398 630 398 630 570 610 c 1,2,-1
 551 403 l 1,3,-1
 420 418 l 1,4,-1
 417 412 l 1,5,-1
 432 384 l 1,6,-1
 550 384 l 1,7,-1
 541 269 l 1,8,-1
 450 269 l 1,9,-1
 450 160 l 1,10,-1
 467 160 l 1,11,-1
 467 252 l 1,12,-1
 671 252 l 1,13,-1
 671 179 l 2,14,15
 671 75 671 75 630 22 c 128,-1,16
 589 -31 589 -31 477 -31 c 0,17,18
 415 -31 415 -31 311 1 c 1,19,-1
 307 1 l 1,20,21
 241 -24 241 -24 181 -24 c 0,22,23
 20 -24 20 -24 20 119 c 0,24,25
 20 186 20 186 56 220.5 c 128,-1,26
 92 255 92 255 154 255 c 0,27,28
 165 255 165 255 197 253 c 1,29,-1
 197 269 l 1,30,-1
 87 269 l 1,31,-1
 87 384 l 1,32,-1
 162 384 l 1,33,34
 131 451 131 451 131 485 c 0,35,36
 131 630 131 630 321 630 c 0,0,1
175 102 m 1,37,-1
 205 102 l 1,38,-1
 205 122 l 1,39,-1
 175 122 l 1,40,-1
 175 102 l 1,37,-1
EndSplineSet
EndChar

StartChar: florin
Encoding: 402 402 185
Width: 461
Flags: HMW
HStem: -147 21G<94.5 177> 311 114<39 96 25 106 361 425> 620 20G<248.5 338>
LayerCount: 2
Fore
SplineSet
109 -147 m 0,0,1
 62 -147 62 -147 -18 -134 c 1,2,-1
 -8 23 l 1,3,-1
 64 15 l 1,4,-1
 96 311 l 1,5,-1
 25 311 l 1,6,-1
 39 425 l 1,7,-1
 106 425 l 1,8,-1
 113 480 l 2,9,10
 123 560 123 560 170 600 c 128,-1,11
 217 640 217 640 319 640 c 0,12,13
 379 640 379 640 466 628 c 1,14,-1
 440 456 l 1,15,-1
 365 465 l 1,16,-1
 361 425 l 1,17,-1
 438 425 l 1,18,-1
 425 311 l 1,19,-1
 349 311 l 1,20,21
 344 261 344 261 333 161 c 128,-1,22
 322 61 322 61 317 11 c 0,23,24
 309 -69 309 -69 259 -108 c 128,-1,25
 209 -147 209 -147 109 -147 c 0,0,1
EndSplineSet
EndChar

StartChar: yen
Encoding: 165 165 186
Width: 591
Flags: HMW
HStem: 0 21G<152 434 152 152> 88 110<41 139 41 152 41 139 447 542> 213 112<41 94 41 134 41 94 493 542> 601 20G<-10 268 268 268 330 601 601 601>
LayerCount: 2
Fore
SplineSet
601 621 m 1,0,-1
 493 325 l 1,1,-1
 542 325 l 1,2,-1
 542 213 l 1,3,-1
 453 213 l 1,4,-1
 447 198 l 1,5,-1
 542 198 l 1,6,-1
 542 88 l 1,7,-1
 434 88 l 1,8,-1
 434 0 l 1,9,-1
 152 0 l 1,10,-1
 152 88 l 1,11,-1
 41 88 l 1,12,-1
 41 198 l 1,13,-1
 139 198 l 1,14,-1
 134 213 l 1,15,-1
 41 213 l 1,16,-1
 41 325 l 1,17,-1
 94 325 l 1,18,-1
 -10 621 l 1,19,-1
 268 621 l 1,20,-1
 293 417 l 1,21,-1
 305 417 l 1,22,-1
 330 621 l 1,23,-1
 601 621 l 1,0,-1
EndSplineSet
EndChar

StartChar: Omega
Encoding: 937 937 187
AltUni2: 002126.ffffffff.0
Width: 682
Flags: HMW
HStem: 0 184<4 69 4 69 4 327 610 678> 610 20G<235 449.5>
LayerCount: 2
Fore
SplineSet
4 0 m 1,0,-1
 4 184 l 1,1,-1
 69 184 l 1,2,-1
 69 188 l 1,3,4
 38 234 38 234 24 273.5 c 128,-1,5
 10 313 10 313 10 368 c 0,6,7
 10 500 10 500 95 565 c 128,-1,8
 180 630 180 630 341 630 c 0,9,10
 668 630 668 630 668 375 c 0,11,12
 668 314 668 314 655 273 c 128,-1,13
 642 232 642 232 610 188 c 1,14,-1
 610 184 l 1,15,-1
 678 184 l 1,16,-1
 678 0 l 1,17,-1
 363 0 l 1,18,-1
 363 410 l 1,19,-1
 327 410 l 1,20,-1
 327 0 l 1,21,-1
 4 0 l 1,0,-1
EndSplineSet
EndChar

StartChar: product
Encoding: 8719 8719 188
Width: 689
Flags: HMW
HStem: 0 21G<50 332 50 50 364 364 364 644> 601 20G<2 687 687 687>
LayerCount: 2
Fore
SplineSet
332 0 m 1,0,-1
 50 0 l 1,1,-1
 50 419 l 1,2,-1
 2 419 l 1,3,-1
 2 621 l 1,4,-1
 687 621 l 1,5,-1
 687 419 l 1,6,-1
 644 419 l 1,7,-1
 644 0 l 1,8,-1
 364 0 l 1,9,-1
 364 419 l 1,10,-1
 332 419 l 1,11,-1
 332 0 l 1,0,-1
EndSplineSet
EndChar

StartChar: pi
Encoding: 960 960 189
Width: 610
Flags: HMW
HStem: 0 21G<31 294 31 31 314 581 314 314> 300 179<4 31 4 606 581 581 581 606>
LayerCount: 2
Fore
SplineSet
581 0 m 1,0,-1
 314 0 l 1,1,-1
 314 299 l 1,2,-1
 294 299 l 1,3,-1
 294 0 l 1,4,-1
 31 0 l 1,5,-1
 31 300 l 1,6,-1
 4 300 l 1,7,-1
 4 479 l 1,8,-1
 606 479 l 1,9,-1
 606 300 l 1,10,-1
 581 300 l 1,11,-1
 581 0 l 1,0,-1
EndSplineSet
EndChar

StartChar: summation
Encoding: 8721 8721 190
Width: 560
Flags: HMW
HStem: 0 172<380 550 380 550> 436 185<381 550 381 381>
LayerCount: 2
Fore
SplineSet
550 436 m 1,0,-1
 381 436 l 1,1,-1
 461 341 l 1,2,-1
 461 272 l 1,3,-1
 380 172 l 1,4,-1
 550 172 l 1,5,-1
 550 0 l 1,6,-1
 24 0 l 1,7,-1
 16 137 l 1,8,-1
 164 307 l 1,9,-1
 4 467 l 1,10,-1
 9 621 l 1,11,-1
 550 621 l 1,12,-1
 550 436 l 1,0,-1
EndSplineSet
EndChar

StartChar: Delta
Encoding: 916 916 191
AltUni2: 002206.ffffffff.0
Width: 665
Flags: HMW
HStem: 0 21G<-8 -8 -8 673> 601 20G<123 542 542 542>
LayerCount: 2
Fore
SplineSet
-8 0 m 1,0,-1
 123 621 l 1,1,-1
 542 621 l 1,2,-1
 673 0 l 1,3,-1
 -8 0 l 1,0,-1
325 397 m 1,4,-1
 291 211 l 1,5,-1
 367 211 l 1,6,-1
 331 397 l 1,7,-1
 325 397 l 1,4,-1
EndSplineSet
EndChar

StartChar: mu
Encoding: 181 181 192
AltUni2: 0003bc.ffffffff.0
Width: 586
Flags: HMW
HStem: -137 21G<10 266 10 10> -10 21G<266 283 438 484.5> 459 20G<10 276 276 276 296 560 560 560>
LayerCount: 2
Fore
SplineSet
570 -5 m 1,0,1
 502 -10 502 -10 462 -10 c 128,-1,2
 422 -10 422 -10 397.5 -4 c 128,-1,3
 373 2 373 2 350 20 c 1,4,-1
 344 20 l 1,5,6
 316 -10 316 -10 266 -10 c 1,7,-1
 266 -137 l 1,8,-1
 10 -137 l 1,9,-1
 10 479 l 1,10,-1
 276 479 l 1,11,-1
 276 170 l 1,12,-1
 296 170 l 1,13,-1
 296 479 l 1,14,-1
 560 479 l 1,15,-1
 560 173 l 2,16,17
 560 150 560 150 584 150 c 1,18,-1
 570 -5 l 1,0,1
EndSplineSet
EndChar

StartChar: infinity
Encoding: 8734 8734 193
Width: 760
Flags: HMW
HStem: 71 140<226 240.5 226 258 502 517.5> 322 141<226 240.5 502.5 517.5>
VStem: 36 177<247.5 286 247.5 327.5> 532 177<247.5 286>
LayerCount: 2
Fore
SplineSet
222 463 m 128,-1,1
 306 463 306 463 367 392 c 1,2,3
 432 463 432 463 523.5 463 c 128,-1,4
 615 463 615 463 662 411.5 c 128,-1,5
 709 360 709 360 709 268 c 128,-1,6
 709 176 709 176 663 123.5 c 128,-1,7
 617 71 617 71 523 71 c 128,-1,8
 429 71 429 71 369 146 c 1,9,10
 307 71 307 71 218 71 c 128,-1,11
 129 71 129 71 82.5 122 c 128,-1,12
 36 173 36 173 36 265 c 128,-1,13
 36 357 36 357 87 410 c 128,-1,0
 138 463 138 463 222 463 c 128,-1,1
510 211 m 0,14,15
 532 211 532 211 532 266.5 c 128,-1,16
 532 322 532 322 509.5 322 c 128,-1,17
 487 322 487 322 452 264 c 1,18,19
 486 211 486 211 510 211 c 0,14,15
233 322 m 0,20,21
 213 322 213 322 213 266.5 c 128,-1,22
 213 211 213 211 233 211 c 0,23,24
 258 211 258 211 292 267 c 1,25,26
 258 322 258 322 233 322 c 0,20,21
EndSplineSet
EndChar

StartChar: plus
Encoding: 43 43 194
Width: 449
Flags: HMW
HStem: 87 21G<127 127 127 321> 188 190<15 127 15 127 321 434> 478 20G<127 321 321 321>
VStem: 127 194<87 188 87 188 378 498>
LayerCount: 2
Fore
SplineSet
127 87 m 1,0,-1
 127 188 l 1,1,-1
 15 188 l 1,2,-1
 15 378 l 1,3,-1
 127 378 l 1,4,-1
 127 498 l 1,5,-1
 321 498 l 1,6,-1
 321 378 l 1,7,-1
 434 378 l 1,8,-1
 434 188 l 1,9,-1
 321 188 l 1,10,-1
 321 87 l 1,11,-1
 127 87 l 1,0,-1
EndSplineSet
EndChar

StartChar: minus
Encoding: 8722 8722 195
Width: 445
Flags: HMW
HStem: 186 194<15 430 15 430>
LayerCount: 2
Fore
SplineSet
430 186 m 1,0,-1
 15 186 l 1,1,-1
 15 380 l 1,2,-1
 430 380 l 1,3,-1
 430 186 l 1,0,-1
EndSplineSet
EndChar

StartChar: plusminus
Encoding: 177 177 196
Width: 449
Flags: HMW
HStem: 0 180<15 430 15 430> 268 190<15 127 15 127 321 434> 548 20G<127 321 321 321>
LayerCount: 2
Fore
SplineSet
127 193 m 1,0,-1
 127 268 l 1,1,-1
 15 268 l 1,2,-1
 15 458 l 1,3,-1
 127 458 l 1,4,-1
 127 568 l 1,5,-1
 321 568 l 1,6,-1
 321 458 l 1,7,-1
 434 458 l 1,8,-1
 434 268 l 1,9,-1
 321 268 l 1,10,-1
 321 193 l 1,11,-1
 127 193 l 1,0,-1
430 0 m 1,12,-1
 15 0 l 1,13,-1
 15 180 l 1,14,-1
 430 180 l 1,15,-1
 430 0 l 1,12,-1
EndSplineSet
EndChar

StartChar: multiply
Encoding: 215 215 197
Width: 456
Flags: HMW
HStem: 70 21G<307 307> 484 20G<144 144 313 313>
LayerCount: 2
Fore
SplineSet
15 206 m 1,0,-1
 91 284 l 1,1,-1
 8 367 l 1,2,-1
 144 504 l 1,3,-1
 228 419 l 1,4,-1
 313 504 l 1,5,-1
 448 367 l 1,6,-1
 366 284 l 1,7,-1
 442 206 l 1,8,-1
 307 70 l 1,9,-1
 228 149 l 1,10,-1
 150 71 l 1,11,-1
 15 206 l 1,0,-1
EndSplineSet
EndChar

StartChar: divide
Encoding: 247 247 198
Width: 445
Flags: HMW
HStem: 0 168<175 241 210 239> 186 194<15 430 15 430> 399 168<175 241 210 239>
LayerCount: 2
Fore
SplineSet
117 69 m 2,0,-1
 117 100 l 2,1,2
 117 137 117 137 138.5 152.5 c 128,-1,3
 160 168 160 168 210 168 c 2,4,-1
 241 168 l 2,5,6
 296 168 296 168 317.5 152.5 c 128,-1,7
 339 137 339 137 339 100 c 2,8,-1
 339 69 l 2,9,10
 339 31 339 31 317 15.5 c 128,-1,11
 295 0 295 0 239 0 c 2,12,-1
 207 0 l 2,13,14
 158 0 158 0 137.5 15 c 128,-1,15
 117 30 117 30 117 69 c 2,0,-1
117 468 m 2,16,-1
 117 499 l 2,17,18
 117 536 117 536 138.5 551.5 c 128,-1,19
 160 567 160 567 210 567 c 2,20,-1
 241 567 l 2,21,22
 296 567 296 567 317.5 551.5 c 128,-1,23
 339 536 339 536 339 499 c 2,24,-1
 339 468 l 2,25,26
 339 430 339 430 317 414.5 c 128,-1,27
 295 399 295 399 239 399 c 2,28,-1
 207 399 l 2,29,30
 158 399 158 399 137.5 414 c 128,-1,31
 117 429 117 429 117 468 c 2,16,-1
430 186 m 1,32,-1
 15 186 l 1,33,-1
 15 380 l 1,34,-1
 430 380 l 1,35,-1
 430 186 l 1,32,-1
EndSplineSet
EndChar

StartChar: equal
Encoding: 61 61 199
Width: 448
Flags: HMW
HStem: 86 160<20 428 20 428> 270 159<20 428 20 428>
LayerCount: 2
Fore
SplineSet
428 270 m 1,0,-1
 20 270 l 1,1,-1
 20 429 l 1,2,-1
 428 429 l 1,3,-1
 428 270 l 1,0,-1
428 86 m 1,4,-1
 20 86 l 1,5,-1
 20 246 l 1,6,-1
 428 246 l 1,7,-1
 428 86 l 1,4,-1
EndSplineSet
EndChar

StartChar: notequal
Encoding: 8800 8800 200
Width: 448
Flags: HMW
HStem: -26 21G<1 1 1 202> 86 160<20 49 20 119 20 250 319 428> 270 159<20 129 20 198 20 329 398 428> 512 20G<243 442 442 442>
LayerCount: 2
Fore
SplineSet
1 -26 m 1,0,-1
 49 86 l 1,1,-1
 20 86 l 1,2,-1
 20 246 l 1,3,-1
 119 246 l 1,4,-1
 129 270 l 1,5,-1
 20 270 l 1,6,-1
 20 429 l 1,7,-1
 198 429 l 1,8,-1
 243 532 l 1,9,-1
 442 532 l 1,10,-1
 398 429 l 1,11,-1
 428 429 l 1,12,-1
 428 270 l 1,13,-1
 329 270 l 1,14,-1
 319 246 l 1,15,-1
 428 246 l 1,16,-1
 428 86 l 1,17,-1
 250 86 l 1,18,-1
 202 -26 l 1,19,-1
 1 -26 l 1,0,-1
EndSplineSet
EndChar

StartChar: less
Encoding: 60 60 201
Width: 342
Flags: HMW
HStem: -21 21G<327 327> 531 20G<327 327>
LayerCount: 2
Fore
SplineSet
327 -21 m 1,0,-1
 5 199 l 1,1,-1
 5 331 l 1,2,-1
 327 551 l 1,3,-1
 327 322 l 1,4,-1
 244 266 l 1,5,-1
 327 211 l 1,6,-1
 327 -21 l 1,0,-1
EndSplineSet
EndChar

StartChar: greater
Encoding: 62 62 202
Width: 342
Flags: HMW
HStem: -21 21G<15 15> 531 20G<15 15>
LayerCount: 2
Fore
SplineSet
337 199 m 1,0,-1
 15 -21 l 1,1,-1
 15 211 l 1,2,-1
 98 266 l 1,3,-1
 15 322 l 1,4,-1
 15 551 l 1,5,-1
 337 331 l 1,6,-1
 337 199 l 1,0,-1
EndSplineSet
EndChar

StartChar: partialdiff
Encoding: 8706 8706 203
Width: 576
Flags: HMW
HStem: -10 21G<178.5 382> 423 198<51 200 200 270 51 51>
LayerCount: 2
Fore
SplineSet
271 261 m 1,0,-1
 271 141 l 1,1,-1
 311 141 l 1,2,-1
 311 261 l 1,3,-1
 271 261 l 1,0,-1
229 400 m 2,4,-1
 297 400 l 1,5,6
 297 423 297 423 270 423 c 2,7,-1
 51 423 l 1,8,-1
 40 621 l 1,9,-1
 200 621 l 2,10,11
 394 621 394 621 484 543.5 c 128,-1,12
 574 466 574 466 574 286 c 0,13,14
 574 133 574 133 503.5 61.5 c 128,-1,15
 433 -10 433 -10 283 -10 c 0,16,17
 133 -10 133 -10 67.5 45.5 c 128,-1,18
 2 101 2 101 2 206.5 c 0,19,20
 2 312 2 312 57 356 c 128,-1,21
 112 400 112 400 229 400 c 2,4,-1
EndSplineSet
EndChar

StartChar: logicalnot
Encoding: 172 172 204
Width: 513
Flags: HMW
HStem: 86 21G<273 273 273 488> 186 194<15 273 15 488>
LayerCount: 2
Fore
SplineSet
273 86 m 1,0,-1
 273 186 l 1,1,-1
 15 186 l 1,2,-1
 15 380 l 1,3,-1
 488 380 l 1,4,-1
 488 86 l 1,5,-1
 273 86 l 1,0,-1
EndSplineSet
EndChar

StartChar: radical
Encoding: 8730 8730 205
Width: 598
Flags: HMW
HStem: -125 21G<144 396 144 144> 459 20G<-14 226 226 226> 640 150<573 735 573 573>
LayerCount: 2
Fore
SplineSet
-14 479 m 1,0,-1
 226 479 l 1,1,-1
 258 270 l 1,2,-1
 277 270 l 1,3,-1
 368 790 l 1,4,-1
 756 790 l 1,5,-1
 735 640 l 1,6,-1
 573 640 l 1,7,8
 543 525 543 525 484.5 257.5 c 128,-1,9
 426 -10 426 -10 396 -125 c 1,10,-1
 144 -125 l 1,11,-1
 -14 479 l 1,0,-1
EndSplineSet
EndChar

StartChar: integral
Encoding: 8747 8747 206
Width: 400
Flags: HMW
HStem: -125 21G<-22 59 -22 -22> 770 20G<337 422 422 422>
LayerCount: 2
Fore
SplineSet
80 172 m 2,0,-1
 97 550 l 2,1,2
 103 673 103 673 155 731.5 c 128,-1,3
 207 790 207 790 337 790 c 2,4,-1
 422 790 l 1,5,-1
 409 589 l 1,6,7
 363 589 363 589 351.5 574.5 c 128,-1,8
 340 560 340 560 338 513 c 2,9,-1
 319 118 l 2,10,11
 312 -22 312 -22 258.5 -73.5 c 128,-1,12
 205 -125 205 -125 59 -125 c 2,13,-1
 -22 -125 l 1,14,-1
 -3 86 l 1,15,16
 49 86 49 86 63.5 102.5 c 128,-1,17
 78 119 78 119 80 172 c 2,0,-1
EndSplineSet
EndChar

StartChar: approxequal
Encoding: 8776 8776 207
Width: 482
Flags: HMW
HStem: 58 192<36 446> 264 192<36 446>
LayerCount: 2
Fore
SplineSet
446 456 m 1,0,-1
 446 424 l 2,1,2
 446 349 446 349 419.5 309 c 128,-1,3
 393 269 393 269 314 269 c 0,4,5
 268 269 268 269 216 287 c 1,6,-1
 216 264 l 1,7,-1
 36 264 l 1,8,-1
 36 297 l 2,9,10
 36 373 36 373 64 412.5 c 128,-1,11
 92 452 92 452 164 452 c 0,12,13
 199 452 199 452 266 432 c 1,14,-1
 266 456 l 1,15,-1
 446 456 l 1,0,-1
446 250 m 1,16,-1
 446 218 l 2,17,18
 446 143 446 143 419.5 103 c 128,-1,19
 393 63 393 63 314 63 c 0,20,21
 268 63 268 63 216 81 c 1,22,-1
 216 58 l 1,23,-1
 36 58 l 1,24,-1
 36 91 l 2,25,26
 36 167 36 167 64 206.5 c 128,-1,27
 92 246 92 246 164 246 c 0,28,29
 199 246 199 246 266 226 c 1,30,-1
 266 250 l 1,31,-1
 446 250 l 1,16,-1
EndSplineSet
EndChar

StartChar: lessequal
Encoding: 8804 8804 208
Width: 473
Flags: HMW
HStem: -44 194<15 458 15 458> 356 20G 583 20G<458 458>
LayerCount: 2
Fore
SplineSet
458 151 m 1,0,-1
 20 239 l 1,1,-1
 20 490 l 1,2,-1
 458 603 l 1,3,-1
 458 382 l 1,4,-1
 260 370 l 1,5,-1
 260 362 l 1,6,-1
 458 351 l 1,7,-1
 458 151 l 1,0,-1
458 -44 m 1,8,-1
 15 -44 l 1,9,-1
 15 150 l 1,10,-1
 458 150 l 1,11,-1
 458 -44 l 1,8,-1
EndSplineSet
EndChar

StartChar: greaterequal
Encoding: 8805 8805 209
Width: 473
Flags: HMW
HStem: -44 194<15 458 15 458> 356 20G 583 20G<15 15>
LayerCount: 2
Fore
SplineSet
453 239 m 1,0,-1
 15 151 l 1,1,-1
 15 351 l 1,2,-1
 213 362 l 1,3,-1
 213 370 l 1,4,-1
 15 382 l 1,5,-1
 15 603 l 1,6,-1
 453 490 l 1,7,-1
 453 239 l 1,0,-1
458 -44 m 1,8,-1
 15 -44 l 1,9,-1
 15 150 l 1,10,-1
 458 150 l 1,11,-1
 458 -44 l 1,8,-1
EndSplineSet
EndChar

StartChar: lozenge
Encoding: 9674 9674 210
Width: 527
Flags: HMW
HStem: -46 21G<177 349 177 177> 600 20G<180 349 349 349>
LayerCount: 2
Fore
SplineSet
515 287 m 1,0,-1
 349 -46 l 1,1,-1
 177 -46 l 1,2,-1
 12 285 l 1,3,-1
 180 620 l 1,4,-1
 349 620 l 1,5,-1
 515 287 l 1,0,-1
298 287 m 1,6,-1
 263 367 l 1,7,-1
 230 288 l 1,8,-1
 264 206 l 1,9,-1
 298 287 l 1,6,-1
EndSplineSet
EndChar

StartChar: period
Encoding: 46 46 211
Width: 242
Flags: HMW
HStem: -10 168<68 134 103 132>
LayerCount: 2
Fore
SplineSet
10 59 m 2,0,-1
 10 90 l 2,1,2
 10 127 10 127 31.5 142.5 c 128,-1,3
 53 158 53 158 103 158 c 2,4,-1
 134 158 l 2,5,6
 189 158 189 158 210.5 142.5 c 128,-1,7
 232 127 232 127 232 90 c 2,8,-1
 232 59 l 2,9,10
 232 21 232 21 210 5.5 c 128,-1,11
 188 -10 188 -10 132 -10 c 2,12,-1
 100 -10 l 2,13,14
 51 -10 51 -10 30.5 5 c 128,-1,15
 10 20 10 20 10 59 c 2,0,-1
EndSplineSet
EndChar

StartChar: comma
Encoding: 44 44 212
Width: 242
Flags: HMW
HStem: -105 21G<51 129 51 51> -10 21G<48 70 70 80> 138 20G<103 134 134 171>
LayerCount: 2
Fore
SplineSet
10 59 m 2,0,-1
 10 90 l 2,1,2
 10 127 10 127 31.5 142.5 c 128,-1,3
 53 158 53 158 103 158 c 2,4,-1
 134 158 l 2,5,6
 189 158 189 158 210.5 142.5 c 128,-1,7
 232 127 232 127 232 90 c 2,8,-1
 232 56 l 2,9,10
 232 3 232 3 207.5 -34.5 c 128,-1,11
 183 -72 183 -72 129 -105 c 1,12,-1
 51 -105 l 1,13,-1
 80 -10 l 1,14,-1
 70 -10 l 2,15,16
 37 -10 37 -10 23.5 5 c 128,-1,17
 10 20 10 20 10 59 c 2,0,-1
EndSplineSet
EndChar

StartChar: colon
Encoding: 58 58 213
Width: 242
Flags: HMW
HStem: -10 168<68 134 103 132> 290 168<68 134 103 132>
LayerCount: 2
Fore
SplineSet
10 59 m 2,0,-1
 10 90 l 2,1,2
 10 127 10 127 31.5 142.5 c 128,-1,3
 53 158 53 158 103 158 c 2,4,-1
 134 158 l 2,5,6
 189 158 189 158 210.5 142.5 c 128,-1,7
 232 127 232 127 232 90 c 2,8,-1
 232 59 l 2,9,10
 232 21 232 21 210 5.5 c 128,-1,11
 188 -10 188 -10 132 -10 c 2,12,-1
 100 -10 l 2,13,14
 51 -10 51 -10 30.5 5 c 128,-1,15
 10 20 10 20 10 59 c 2,0,-1
10 359 m 2,16,-1
 10 390 l 2,17,18
 10 427 10 427 31.5 442.5 c 128,-1,19
 53 458 53 458 103 458 c 2,20,-1
 134 458 l 2,21,22
 189 458 189 458 210.5 442.5 c 128,-1,23
 232 427 232 427 232 390 c 2,24,-1
 232 359 l 2,25,26
 232 321 232 321 210 305.5 c 128,-1,27
 188 290 188 290 132 290 c 2,28,-1
 100 290 l 2,29,30
 51 290 51 290 30.5 305 c 128,-1,31
 10 320 10 320 10 359 c 2,16,-1
EndSplineSet
EndChar

StartChar: semicolon
Encoding: 59 59 214
Width: 242
Flags: HMW
HStem: -105 21G<51 129 51 51> -10 21G<48 70 70 80> 290 168<68 134 103 132>
LayerCount: 2
Fore
SplineSet
10 59 m 2,0,-1
 10 90 l 2,1,2
 10 127 10 127 31.5 142.5 c 128,-1,3
 53 158 53 158 103 158 c 2,4,-1
 134 158 l 2,5,6
 189 158 189 158 210.5 142.5 c 128,-1,7
 232 127 232 127 232 90 c 2,8,-1
 232 56 l 2,9,10
 232 3 232 3 207.5 -34.5 c 128,-1,11
 183 -72 183 -72 129 -105 c 1,12,-1
 51 -105 l 1,13,-1
 80 -10 l 1,14,-1
 70 -10 l 2,15,16
 37 -10 37 -10 23.5 5 c 128,-1,17
 10 20 10 20 10 59 c 2,0,-1
10 359 m 2,18,-1
 10 390 l 2,19,20
 10 427 10 427 31.5 442.5 c 128,-1,21
 53 458 53 458 103 458 c 2,22,-1
 134 458 l 2,23,24
 189 458 189 458 210.5 442.5 c 128,-1,25
 232 427 232 427 232 390 c 2,26,-1
 232 359 l 2,27,28
 232 321 232 321 210 305.5 c 128,-1,29
 188 290 188 290 132 290 c 2,30,-1
 100 290 l 2,31,32
 51 290 51 290 30.5 305 c 128,-1,33
 10 320 10 320 10 359 c 2,18,-1
EndSplineSet
EndChar

StartChar: ellipsis
Encoding: 8230 8230 215
Width: 724
Flags: HMW
HStem: -10 168<68 134 103 132 345 374 585 614>
LayerCount: 2
Fore
SplineSet
10 59 m 2,0,-1
 10 90 l 2,1,2
 10 127 10 127 31.5 142.5 c 128,-1,3
 53 158 53 158 103 158 c 2,4,-1
 134 158 l 2,5,6
 189 158 189 158 210.5 142.5 c 128,-1,7
 232 127 232 127 232 90 c 2,8,-1
 232 59 l 2,9,10
 232 21 232 21 210 5.5 c 128,-1,11
 188 -10 188 -10 132 -10 c 2,12,-1
 100 -10 l 2,13,14
 51 -10 51 -10 30.5 5 c 128,-1,15
 10 20 10 20 10 59 c 2,0,-1
252 59 m 2,16,-1
 252 90 l 2,17,18
 252 127 252 127 273.5 142.5 c 128,-1,19
 295 158 295 158 345 158 c 2,20,-1
 376 158 l 2,21,22
 431 158 431 158 452.5 142.5 c 128,-1,23
 474 127 474 127 474 90 c 2,24,-1
 474 59 l 2,25,26
 474 21 474 21 452 5.5 c 128,-1,27
 430 -10 430 -10 374 -10 c 2,28,-1
 342 -10 l 2,29,30
 293 -10 293 -10 272.5 5 c 128,-1,31
 252 20 252 20 252 59 c 2,16,-1
492 59 m 2,32,-1
 492 90 l 2,33,34
 492 127 492 127 513.5 142.5 c 128,-1,35
 535 158 535 158 585 158 c 2,36,-1
 616 158 l 2,37,38
 671 158 671 158 692.5 142.5 c 128,-1,39
 714 127 714 127 714 90 c 2,40,-1
 714 59 l 2,41,42
 714 21 714 21 692 5.5 c 128,-1,43
 670 -10 670 -10 614 -10 c 2,44,-1
 582 -10 l 2,45,46
 533 -10 533 -10 512.5 5 c 128,-1,47
 492 20 492 20 492 59 c 2,32,-1
EndSplineSet
EndChar

StartChar: periodcentered
Encoding: 183 183 216
Width: 307
Flags: HMW
HStem: 218 171<95 164 136 162>
LayerCount: 2
Fore
SplineSet
20 288 m 2,0,-1
 20 319 l 2,1,2
 20 356 20 356 48.5 372.5 c 128,-1,3
 77 389 77 389 136 389 c 2,4,-1
 164 389 l 2,5,6
 228 389 228 389 257.5 372.5 c 128,-1,7
 287 356 287 356 287 319 c 2,8,-1
 287 288 l 2,9,10
 287 250 287 250 257 234 c 128,-1,11
 227 218 227 218 162 218 c 2,12,-1
 132 218 l 2,13,14
 74 218 74 218 47 233 c 128,-1,15
 20 248 20 248 20 288 c 2,0,-1
EndSplineSet
EndChar

StartChar: exclamdown
Encoding: 161 161 217
Width: 272
Flags: HMW
HStem: -137 21G<10 252 10 10> 320 168<81 152 120 149>
LayerCount: 2
Fore
SplineSet
238 302 m 1,0,-1
 252 -137 l 1,1,-1
 10 -137 l 1,2,-1
 27 302 l 1,3,-1
 238 302 l 1,0,-1
242 419 m 2,4,-1
 242 388 l 2,5,6
 242 351 242 351 220.5 335.5 c 128,-1,7
 199 320 199 320 149 320 c 2,8,-1
 118 320 l 2,9,10
 63 320 63 320 41.5 335.5 c 128,-1,11
 20 351 20 351 20 388 c 2,12,-1
 20 419 l 2,13,14
 20 457 20 457 42 472.5 c 128,-1,15
 64 488 64 488 120 488 c 2,16,-1
 152 488 l 2,17,18
 201 488 201 488 221.5 473 c 128,-1,19
 242 458 242 458 242 419 c 2,4,-1
EndSplineSet
EndChar

StartChar: exclam
Encoding: 33 33 218
Width: 272
Flags: HMW
HStem: -10 168<88 154 123 152> 595 20G<20 262 262 262>
LayerCount: 2
Fore
SplineSet
34 176 m 1,0,-1
 20 615 l 1,1,-1
 262 615 l 1,2,-1
 245 176 l 1,3,-1
 34 176 l 1,0,-1
30 59 m 2,4,-1
 30 90 l 2,5,6
 30 127 30 127 51.5 142.5 c 128,-1,7
 73 158 73 158 123 158 c 2,8,-1
 154 158 l 2,9,10
 209 158 209 158 230.5 142.5 c 128,-1,11
 252 127 252 127 252 90 c 2,12,-1
 252 59 l 2,13,14
 252 21 252 21 230 5.5 c 128,-1,15
 208 -10 208 -10 152 -10 c 2,16,-1
 120 -10 l 2,17,18
 71 -10 71 -10 50.5 5 c 128,-1,19
 30 20 30 20 30 59 c 2,4,-1
EndSplineSet
EndChar

StartChar: questiondown
Encoding: 191 191 219
Width: 392
Flags: HMW
HStem: -147 194<154.5 281> 320 168<192 263 231 260>
LayerCount: 2
Fore
SplineSet
0 40 m 0,0,1
 0 125 0 125 31 170.5 c 128,-1,2
 62 216 62 216 139 244 c 1,3,-1
 139 303 l 1,4,-1
 345 303 l 1,5,-1
 345 200 l 2,6,7
 345 163 345 163 331.5 147.5 c 128,-1,8
 318 132 318 132 287.5 119.5 c 0,9,10
 257 107 257 107 249.5 98.5 c 128,-1,11
 242 90 242 90 242 75 c 0,12,13
 242 47 242 47 272 47 c 0,14,15
 293 47 293 47 382 58 c 1,16,-1
 382 -134 l 1,17,18
 294 -147 294 -147 224 -147 c 0,19,20
 0 -147 0 -147 0 40 c 0,0,1
353 419 m 2,21,-1
 353 388 l 2,22,23
 353 351 353 351 331.5 335.5 c 128,-1,24
 310 320 310 320 260 320 c 2,25,-1
 229 320 l 2,26,27
 174 320 174 320 152.5 335.5 c 128,-1,28
 131 351 131 351 131 388 c 2,29,-1
 131 419 l 2,30,31
 131 457 131 457 153 472.5 c 128,-1,32
 175 488 175 488 231 488 c 2,33,-1
 263 488 l 2,34,35
 312 488 312 488 332.5 473 c 128,-1,36
 353 458 353 458 353 419 c 2,21,-1
EndSplineSet
EndChar

StartChar: question
Encoding: 63 63 220
Width: 392
Flags: HMW
HStem: -10 168<97 163 132 161> 431 194<111 237.5>
LayerCount: 2
Fore
SplineSet
392 438 m 0,0,1
 392 353 392 353 361 307.5 c 128,-1,2
 330 262 330 262 253 234 c 1,3,-1
 253 175 l 1,4,-1
 47 175 l 1,5,-1
 47 278 l 2,6,7
 47 315 47 315 60.5 330.5 c 128,-1,8
 74 346 74 346 104.5 358.5 c 0,9,10
 135 371 135 371 142.5 379.5 c 128,-1,11
 150 388 150 388 150 403 c 0,12,13
 150 431 150 431 120 431 c 0,14,15
 99 431 99 431 10 420 c 1,16,-1
 10 612 l 1,17,18
 98 625 98 625 168 625 c 0,19,20
 392 625 392 625 392 438 c 0,0,1
39 59 m 2,21,-1
 39 90 l 2,22,23
 39 127 39 127 60.5 142.5 c 128,-1,24
 82 158 82 158 132 158 c 2,25,-1
 163 158 l 2,26,27
 218 158 218 158 239.5 142.5 c 128,-1,28
 261 127 261 127 261 90 c 2,29,-1
 261 59 l 2,30,31
 261 21 261 21 239 5.5 c 128,-1,32
 217 -10 217 -10 161 -10 c 2,33,-1
 129 -10 l 2,34,35
 80 -10 80 -10 59.5 5 c 128,-1,36
 39 20 39 20 39 59 c 2,21,-1
EndSplineSet
EndChar

StartChar: quotedbl
Encoding: 34 34 221
Width: 487
Flags: HMW
HStem: 387 21G<61 139 61 61 296 296 296 374> 482 168<58 144 80 144 113 315>
LayerCount: 2
Fore
SplineSet
20 551 m 2,0,-1
 20 582 l 2,1,2
 20 619 20 619 41.5 634.5 c 128,-1,3
 63 650 63 650 113 650 c 2,4,-1
 144 650 l 2,5,6
 199 650 199 650 220.5 634.5 c 128,-1,7
 242 619 242 619 242 582 c 2,8,-1
 242 548 l 2,9,10
 242 495 242 495 217.5 457.5 c 128,-1,11
 193 420 193 420 139 387 c 1,12,-1
 61 387 l 1,13,-1
 90 482 l 1,14,-1
 80 482 l 2,15,16
 47 482 47 482 33.5 497 c 128,-1,17
 20 512 20 512 20 551 c 2,0,-1
255 551 m 2,18,-1
 255 582 l 2,19,20
 255 619 255 619 276.5 634.5 c 128,-1,21
 298 650 298 650 348 650 c 2,22,-1
 379 650 l 2,23,24
 434 650 434 650 455.5 634.5 c 128,-1,25
 477 619 477 619 477 582 c 2,26,-1
 477 548 l 2,27,28
 477 495 477 495 452.5 457.5 c 128,-1,29
 428 420 428 420 374 387 c 1,30,-1
 296 387 l 1,31,-1
 325 482 l 1,32,-1
 315 482 l 2,33,34
 282 482 282 482 268.5 497 c 128,-1,35
 255 512 255 512 255 551 c 2,18,-1
EndSplineSet
EndChar

StartChar: quotesingle
Encoding: 39 39 222
Width: 252
Flags: HMW
HStem: 387 21G<51 129 51 51> 462 20G<48 70 70 80> 630 20G<103 134 134 171>
LayerCount: 2
Fore
SplineSet
10 551 m 2,0,-1
 10 582 l 2,1,2
 10 619 10 619 31.5 634.5 c 128,-1,3
 53 650 53 650 103 650 c 2,4,-1
 134 650 l 2,5,6
 189 650 189 650 210.5 634.5 c 128,-1,7
 232 619 232 619 232 582 c 2,8,-1
 232 548 l 2,9,10
 232 495 232 495 207.5 457.5 c 128,-1,11
 183 420 183 420 129 387 c 1,12,-1
 51 387 l 1,13,-1
 80 482 l 1,14,-1
 70 482 l 2,15,16
 37 482 37 482 23.5 497 c 128,-1,17
 10 512 10 512 10 551 c 2,0,-1
EndSplineSet
EndChar

StartChar: quotedblleft
Encoding: 8220 8220 223
Width: 487
Flags: HMW
HStem: 387 168<71 172 108 172 162 343> 630 20G<113 191 191 191 348 426 426 426>
LayerCount: 2
Fore
SplineSet
467 486 m 2,0,-1
 467 455 l 2,1,2
 467 418 467 418 445.5 402.5 c 128,-1,3
 424 387 424 387 374 387 c 2,4,-1
 343 387 l 2,5,6
 288 387 288 387 266.5 402.5 c 128,-1,7
 245 418 245 418 245 455 c 2,8,-1
 245 489 l 2,9,10
 245 542 245 542 269.5 579.5 c 128,-1,11
 294 617 294 617 348 650 c 1,12,-1
 426 650 l 1,13,-1
 397 555 l 1,14,-1
 407 555 l 2,15,16
 440 555 440 555 453.5 540 c 128,-1,17
 467 525 467 525 467 486 c 2,0,-1
232 486 m 2,18,-1
 232 455 l 2,19,20
 232 418 232 418 210.5 402.5 c 128,-1,21
 189 387 189 387 139 387 c 2,22,-1
 108 387 l 2,23,24
 53 387 53 387 31.5 402.5 c 128,-1,25
 10 418 10 418 10 455 c 2,26,-1
 10 489 l 2,27,28
 10 542 10 542 34.5 579.5 c 128,-1,29
 59 617 59 617 113 650 c 1,30,-1
 191 650 l 1,31,-1
 162 555 l 1,32,-1
 172 555 l 2,33,34
 205 555 205 555 218.5 540 c 128,-1,35
 232 525 232 525 232 486 c 2,18,-1
EndSplineSet
EndChar

StartChar: quotedblright
Encoding: 8221 8221 224
Width: 487
Flags: HMW
HStem: 387 21G<61 139 61 61 296 296 296 374> 482 168<58 144 80 144 113 315>
LayerCount: 2
Fore
SplineSet
20 551 m 2,0,-1
 20 582 l 2,1,2
 20 619 20 619 41.5 634.5 c 128,-1,3
 63 650 63 650 113 650 c 2,4,-1
 144 650 l 2,5,6
 199 650 199 650 220.5 634.5 c 128,-1,7
 242 619 242 619 242 582 c 2,8,-1
 242 548 l 2,9,10
 242 495 242 495 217.5 457.5 c 128,-1,11
 193 420 193 420 139 387 c 1,12,-1
 61 387 l 1,13,-1
 90 482 l 1,14,-1
 80 482 l 2,15,16
 47 482 47 482 33.5 497 c 128,-1,17
 20 512 20 512 20 551 c 2,0,-1
255 551 m 2,18,-1
 255 582 l 2,19,20
 255 619 255 619 276.5 634.5 c 128,-1,21
 298 650 298 650 348 650 c 2,22,-1
 379 650 l 2,23,24
 434 650 434 650 455.5 634.5 c 128,-1,25
 477 619 477 619 477 582 c 2,26,-1
 477 548 l 2,27,28
 477 495 477 495 452.5 457.5 c 128,-1,29
 428 420 428 420 374 387 c 1,30,-1
 296 387 l 1,31,-1
 325 482 l 1,32,-1
 315 482 l 2,33,34
 282 482 282 482 268.5 497 c 128,-1,35
 255 512 255 512 255 551 c 2,18,-1
EndSplineSet
EndChar

StartChar: quoteleft
Encoding: 8216 8216 225
Width: 252
Flags: HMW
HStem: 387 21G<71 108 108 139> 630 20G<113 191 191 191>
LayerCount: 2
Fore
SplineSet
232 486 m 2,0,-1
 232 455 l 2,1,2
 232 418 232 418 210.5 402.5 c 128,-1,3
 189 387 189 387 139 387 c 2,4,-1
 108 387 l 2,5,6
 53 387 53 387 31.5 402.5 c 128,-1,7
 10 418 10 418 10 455 c 2,8,-1
 10 489 l 2,9,10
 10 542 10 542 34.5 579.5 c 128,-1,11
 59 617 59 617 113 650 c 1,12,-1
 191 650 l 1,13,-1
 162 555 l 1,14,-1
 172 555 l 2,15,16
 205 555 205 555 218.5 540 c 128,-1,17
 232 525 232 525 232 486 c 2,0,-1
EndSplineSet
EndChar

StartChar: quoteright
Encoding: 8217 8217 226
Width: 252
Flags: HMW
HStem: 387 21G<61 139 61 61> 462 20G<58 80 80 90> 630 20G<113 144 144 181>
LayerCount: 2
Fore
SplineSet
20 551 m 2,0,-1
 20 582 l 2,1,2
 20 619 20 619 41.5 634.5 c 128,-1,3
 63 650 63 650 113 650 c 2,4,-1
 144 650 l 2,5,6
 199 650 199 650 220.5 634.5 c 128,-1,7
 242 619 242 619 242 582 c 2,8,-1
 242 548 l 2,9,10
 242 495 242 495 217.5 457.5 c 128,-1,11
 193 420 193 420 139 387 c 1,12,-1
 61 387 l 1,13,-1
 90 482 l 1,14,-1
 80 482 l 2,15,16
 47 482 47 482 33.5 497 c 128,-1,17
 20 512 20 512 20 551 c 2,0,-1
EndSplineSet
EndChar

StartChar: quotesinglbase
Encoding: 8218 8218 227
Width: 252
Flags: HMW
HStem: -105 21G<51 129 51 51> -10 21G<48 70 70 80> 138 20G<103 134 134 171>
LayerCount: 2
Fore
SplineSet
10 59 m 2,0,-1
 10 90 l 2,1,2
 10 127 10 127 31.5 142.5 c 128,-1,3
 53 158 53 158 103 158 c 2,4,-1
 134 158 l 2,5,6
 189 158 189 158 210.5 142.5 c 128,-1,7
 232 127 232 127 232 90 c 2,8,-1
 232 56 l 2,9,10
 232 3 232 3 207.5 -34.5 c 128,-1,11
 183 -72 183 -72 129 -105 c 1,12,-1
 51 -105 l 1,13,-1
 80 -10 l 1,14,-1
 70 -10 l 2,15,16
 37 -10 37 -10 23.5 5 c 128,-1,17
 10 20 10 20 10 59 c 2,0,-1
EndSplineSet
EndChar

StartChar: quotedblbase
Encoding: 8222 8222 228
Width: 487
Flags: HMW
HStem: -105 21G<51 129 51 51 286 286 286 364> -10 168<48 134 70 134 103 305>
LayerCount: 2
Fore
SplineSet
10 59 m 2,0,-1
 10 90 l 2,1,2
 10 127 10 127 31.5 142.5 c 128,-1,3
 53 158 53 158 103 158 c 2,4,-1
 134 158 l 2,5,6
 189 158 189 158 210.5 142.5 c 128,-1,7
 232 127 232 127 232 90 c 2,8,-1
 232 56 l 2,9,10
 232 3 232 3 207.5 -34.5 c 128,-1,11
 183 -72 183 -72 129 -105 c 1,12,-1
 51 -105 l 1,13,-1
 80 -10 l 1,14,-1
 70 -10 l 2,15,16
 37 -10 37 -10 23.5 5 c 128,-1,17
 10 20 10 20 10 59 c 2,0,-1
245 59 m 2,18,-1
 245 90 l 2,19,20
 245 127 245 127 266.5 142.5 c 128,-1,21
 288 158 288 158 338 158 c 2,22,-1
 369 158 l 2,23,24
 424 158 424 158 445.5 142.5 c 128,-1,25
 467 127 467 127 467 90 c 2,26,-1
 467 56 l 2,27,28
 467 3 467 3 442.5 -34.5 c 128,-1,29
 418 -72 418 -72 364 -105 c 1,30,-1
 286 -105 l 1,31,-1
 315 -10 l 1,32,-1
 305 -10 l 2,33,34
 272 -10 272 -10 258.5 5 c 128,-1,35
 245 20 245 20 245 59 c 2,18,-1
EndSplineSet
EndChar

StartChar: guillemotleft
Encoding: 171 171 229
Width: 603
Flags: HMW
HStem: 33 21G<117 344 117 117 374 601 374 374> 414 20G<127 344 344 344 384 601 601 601>
LayerCount: 2
Fore
SplineSet
257 210 m 1,0,-1
 257 249 l 1,1,-1
 384 434 l 1,2,-1
 601 434 l 1,3,-1
 467 233 l 1,4,-1
 601 33 l 1,5,-1
 374 33 l 1,6,-1
 257 210 l 1,0,-1
0 210 m 1,7,-1
 0 249 l 1,8,-1
 127 434 l 1,9,-1
 344 434 l 1,10,-1
 210 233 l 1,11,-1
 344 33 l 1,12,-1
 117 33 l 1,13,-1
 0 210 l 1,7,-1
EndSplineSet
EndChar

StartChar: guillemotright
Encoding: 187 187 230
Width: 603
Flags: HMW
HStem: 32 21G<2 219 2 2 259 259 259 476> 413 20G<2 229 229 229 259 486 486 486>
LayerCount: 2
Fore
SplineSet
346 256 m 1,0,-1
 346 217 l 1,1,-1
 219 32 l 1,2,-1
 2 32 l 1,3,-1
 136 233 l 1,4,-1
 2 433 l 1,5,-1
 229 433 l 1,6,-1
 346 256 l 1,0,-1
603 256 m 1,7,-1
 603 217 l 1,8,-1
 476 32 l 1,9,-1
 259 32 l 1,10,-1
 393 233 l 1,11,-1
 259 433 l 1,12,-1
 486 433 l 1,13,-1
 603 256 l 1,7,-1
EndSplineSet
EndChar

StartChar: guilsinglleft
Encoding: 8249 8249 231
Width: 346
Flags: HMW
HStem: 33 21G<117 344 117 117> 414 20G<127 344 344 344>
LayerCount: 2
Fore
SplineSet
0 210 m 1,0,-1
 0 249 l 1,1,-1
 127 434 l 1,2,-1
 344 434 l 1,3,-1
 210 233 l 1,4,-1
 344 33 l 1,5,-1
 117 33 l 1,6,-1
 0 210 l 1,0,-1
EndSplineSet
EndChar

StartChar: guilsinglright
Encoding: 8250 8250 232
Width: 346
Flags: HMW
HStem: 32 21G<2 219 2 2> 413 20G<2 229 229 229>
LayerCount: 2
Fore
SplineSet
346 256 m 1,0,-1
 346 217 l 1,1,-1
 219 32 l 1,2,-1
 2 32 l 1,3,-1
 136 233 l 1,4,-1
 2 433 l 1,5,-1
 229 433 l 1,6,-1
 346 256 l 1,0,-1
EndSplineSet
EndChar

StartChar: hyphen
Encoding: 45 45 233
Width: 388
Flags: HMW
HStem: 146 194<15 373 15 373>
LayerCount: 2
Fore
SplineSet
373 146 m 1,0,-1
 15 146 l 1,1,-1
 15 340 l 1,2,-1
 373 340 l 1,3,-1
 373 146 l 1,0,-1
EndSplineSet
EndChar

StartChar: endash
Encoding: 8211 8211 234
Width: 383
Flags: HMW
HStem: 146 194<15 368 15 368>
LayerCount: 2
Fore
SplineSet
368 146 m 1,0,-1
 15 146 l 1,1,-1
 15 340 l 1,2,-1
 368 340 l 1,3,-1
 368 146 l 1,0,-1
EndSplineSet
EndChar

StartChar: emdash
Encoding: 8212 8212 235
Width: 583
Flags: HMW
HStem: 146 194<15 568 15 568>
LayerCount: 2
Fore
SplineSet
568 146 m 1,0,-1
 15 146 l 1,1,-1
 15 340 l 1,2,-1
 568 340 l 1,3,-1
 568 146 l 1,0,-1
EndSplineSet
EndChar

StartChar: underscore
Encoding: 95 95 236
Width: 400
Flags: HMW
HStem: -137 137<0 400 0 400>
LayerCount: 2
Fore
SplineSet
400 -137 m 1,0,-1
 0 -137 l 1,1,-1
 0 0 l 1,2,-1
 400 0 l 1,3,-1
 400 -137 l 1,0,-1
EndSplineSet
EndChar

StartChar: parenleft
Encoding: 40 40 237
Width: 402
Flags: HMW
HStem: -147 21G<202 202> 625 20G<210 210>
LayerCount: 2
Fore
SplineSet
210 645 m 1,0,-1
 406 595 l 1,1,2
 288 450 288 450 288 259 c 0,3,4
 288 68 288 68 406 -106 c 1,5,-1
 202 -147 l 1,6,7
 108 -60 108 -60 60 32 c 128,-1,8
 12 124 12 124 12 251.5 c 0,9,10
 12 379 12 379 60 472 c 128,-1,11
 108 565 108 565 210 645 c 1,0,-1
EndSplineSet
EndChar

StartChar: parenright
Encoding: 41 41 238
Width: 402
Flags: HMW
HStem: -147 21G<199 199> 625 20G<193 193>
LayerCount: 2
Fore
SplineSet
342 471 m 128,-1,1
 390 377 390 377 390 253 c 128,-1,2
 390 129 390 129 341 34 c 128,-1,3
 292 -61 292 -61 199 -147 c 1,4,-1
 -4 -106 l 1,5,6
 116 55 116 55 116 251.5 c 128,-1,7
 116 448 116 448 -4 594 c 1,8,-1
 193 645 l 1,9,0
 294 565 294 565 342 471 c 128,-1,1
EndSplineSet
EndChar

StartChar: bracketleft
Encoding: 91 91 239
Width: 386
Flags: HMW
HStem: -137 143<299 376 299 376> 486 144<299 376 299 299>
LayerCount: 2
Fore
SplineSet
376 -137 m 1,0,-1
 44 -137 l 1,1,-1
 44 630 l 1,2,-1
 376 630 l 1,3,-1
 376 486 l 1,4,-1
 299 486 l 1,5,-1
 299 6 l 1,6,-1
 376 6 l 1,7,-1
 376 -137 l 1,0,-1
EndSplineSet
EndChar

StartChar: bracketright
Encoding: 93 93 240
Width: 386
Flags: HMW
HStem: -137 143<10 89 10 342 10 89> 486 144<10 89 10 342>
LayerCount: 2
Fore
SplineSet
342 -137 m 1,0,-1
 10 -137 l 1,1,-1
 10 6 l 1,2,-1
 89 6 l 1,3,-1
 89 486 l 1,4,-1
 10 486 l 1,5,-1
 10 630 l 1,6,-1
 342 630 l 1,7,-1
 342 -137 l 1,0,-1
EndSplineSet
EndChar

StartChar: braceleft
Encoding: 123 123 241
Width: 397
Flags: HMW
HStem: -137 142<177.5 387 311 387 311 387> 483 147<311 387 311 311>
LayerCount: 2
Fore
SplineSet
387 -137 m 1,0,-1
 239 -137 l 2,1,2
 147 -137 147 -137 107 -106 c 128,-1,3
 67 -75 67 -75 67 -3 c 2,4,-1
 67 155 l 2,5,6
 67 173 67 173 55 177 c 128,-1,7
 43 181 43 181 0 181 c 1,8,-1
 0 323 l 1,9,10
 45 323 45 323 56 326.5 c 128,-1,11
 67 330 67 330 67 349 c 2,12,-1
 67 488 l 2,13,14
 67 566 67 566 105.5 598 c 128,-1,15
 144 630 144 630 239 630 c 2,16,-1
 387 630 l 1,17,-1
 387 483 l 1,18,-1
 311 483 l 1,19,-1
 311 328 l 2,20,21
 311 297 311 297 300.5 282 c 128,-1,22
 290 267 290 267 264 254 c 1,23,-1
 264 248 l 1,24,25
 289 236 289 236 300 220 c 128,-1,26
 311 204 311 204 311 175 c 2,27,-1
 311 5 l 1,28,-1
 387 5 l 1,29,-1
 387 -137 l 1,0,-1
EndSplineSet
EndChar

StartChar: braceright
Encoding: 125 125 242
Width: 397
Flags: HMW
HStem: -137 142<10 86 10 158 10 86> 483 147<10 86 10 158>
LayerCount: 2
Fore
SplineSet
158 -137 m 2,0,-1
 10 -137 l 1,1,-1
 10 5 l 1,2,-1
 86 5 l 1,3,-1
 86 175 l 2,4,5
 86 204 86 204 97.5 220 c 128,-1,6
 109 236 109 236 134 248 c 1,7,-1
 134 254 l 1,8,9
 107 267 107 267 96.5 281.5 c 128,-1,10
 86 296 86 296 86 328 c 2,11,-1
 86 483 l 1,12,-1
 10 483 l 1,13,-1
 10 630 l 1,14,-1
 158 630 l 2,15,16
 253 630 253 630 291.5 598 c 128,-1,17
 330 566 330 566 330 488 c 2,18,-1
 330 349 l 2,19,20
 330 330 330 330 341 326.5 c 128,-1,21
 352 323 352 323 397 323 c 1,22,-1
 397 181 l 1,23,24
 338 181 338 181 332.5 170 c 0,25,26
 330 165 330 165 330 155 c 2,27,-1
 330 -3 l 2,28,29
 330 -75 330 -75 290 -106 c 128,-1,30
 250 -137 250 -137 158 -137 c 2,0,-1
EndSplineSet
EndChar

StartChar: slash
Encoding: 47 47 243
Width: 383
Flags: HMW
HStem: -137 21G<-10 237 -10 -10> 601 20G<145 393 393 393>
LayerCount: 2
Fore
SplineSet
393 621 m 1,0,-1
 237 -137 l 1,1,-1
 -10 -137 l 1,2,-1
 145 621 l 1,3,-1
 393 621 l 1,0,-1
EndSplineSet
EndChar

StartChar: backslash
Encoding: 92 92 244
Width: 383
Flags: HMW
HStem: -137 21G<146 146 146 393> 601 20G<-10 238 238 238>
LayerCount: 2
Fore
SplineSet
146 -137 m 1,0,-1
 -10 621 l 1,1,-1
 238 621 l 1,2,-1
 393 -137 l 1,3,-1
 146 -137 l 1,0,-1
EndSplineSet
EndChar

StartChar: bar
Encoding: 124 124 245
Width: 278
Flags: HMW
HStem: -137 21G<20 258 20 20> 601 20G<20 258 258 258>
LayerCount: 2
Fore
SplineSet
258 -137 m 1,0,-1
 20 -137 l 1,1,-1
 20 621 l 1,2,-1
 258 621 l 1,3,-1
 258 -137 l 1,0,-1
EndSplineSet
EndChar

StartChar: brokenbar
Encoding: 166 166 246
Width: 278
Flags: HMW
HStem: -137 21G<20 258 20 20> 601 20G<20 258 258 258>
LayerCount: 2
Fore
SplineSet
258 -137 m 1,0,-1
 20 -137 l 1,1,-1
 20 217 l 1,2,-1
 258 217 l 1,3,-1
 258 -137 l 1,0,-1
258 621 m 1,4,-1
 258 285 l 1,5,-1
 20 285 l 1,6,-1
 20 621 l 1,7,-1
 258 621 l 1,4,-1
EndSplineSet
EndChar

StartChar: fraction
Encoding: 8260 8260 247
Width: 383
Flags: HMW
HStem: -137 21G<-10 237 -10 -10> 601 20G<145 393 393 393>
LayerCount: 2
Fore
SplineSet
393 621 m 1,0,-1
 237 -137 l 1,1,-1
 -10 -137 l 1,2,-1
 145 621 l 1,3,-1
 393 621 l 1,0,-1
EndSplineSet
EndChar

StartChar: grave
Encoding: 96 96 248
Width: 500
Flags: HMW
HStem: 511 130<224 224 224 339 105 403>
LayerCount: 2
Fore
SplineSet
224 511 m 1,0,-1
 105 641 l 1,1,-1
 339 641 l 1,2,-1
 403 511 l 1,3,-1
 224 511 l 1,0,-1
EndSplineSet
EndChar

StartChar: circumflex
Encoding: 710 710 249
Width: 500
Flags: HMW
HStem: 501 134<121 231 53 373 267 373 121 441 267 267>
LayerCount: 2
Fore
SplineSet
373 635 m 1,0,-1
 441 501 l 1,1,-1
 267 501 l 1,2,-1
 251 537 l 1,3,-1
 247 537 l 1,4,-1
 231 501 l 1,5,-1
 53 501 l 1,6,-1
 121 635 l 1,7,-1
 373 635 l 1,0,-1
EndSplineSet
EndChar

StartChar: acute
Encoding: 180 180 250
Width: 500
Flags: HMW
HStem: 511 130<243 358 179 477>
LayerCount: 2
Fore
SplineSet
477 641 m 1,0,-1
 358 511 l 1,1,-1
 179 511 l 1,2,-1
 243 641 l 1,3,-1
 477 641 l 1,0,-1
EndSplineSet
EndChar

StartChar: dieresis
Encoding: 168 168 251
Width: 500
Flags: HMW
HStem: 506 134<104.5 179 326.5 401>
VStem: 41 200<546.5 598.5 546.5 598.5> 263 200<546.5 598.5 546.5 598.5>
LayerCount: 2
Fore
SplineSet
63 520 m 128,-1,1
 41 534 41 534 41 572.5 c 128,-1,2
 41 611 41 611 63.5 625.5 c 128,-1,3
 86 640 86 640 142 640 c 128,-1,4
 198 640 198 640 219.5 625.5 c 128,-1,5
 241 611 241 611 241 572.5 c 128,-1,6
 241 534 241 534 220 520 c 128,-1,7
 199 506 199 506 142 506 c 128,-1,0
 85 506 85 506 63 520 c 128,-1,1
285 520 m 128,-1,9
 263 534 263 534 263 572.5 c 128,-1,10
 263 611 263 611 285.5 625.5 c 128,-1,11
 308 640 308 640 364 640 c 128,-1,12
 420 640 420 640 441.5 625.5 c 128,-1,13
 463 611 463 611 463 572.5 c 128,-1,14
 463 534 463 534 442 520 c 128,-1,15
 421 506 421 506 364 506 c 128,-1,8
 307 506 307 506 285 520 c 128,-1,9
EndSplineSet
EndChar

StartChar: tilde
Encoding: 732 732 252
Width: 500
Flags: HMW
HStem: 505 151<117 187 117 224 43 187 314.5 388>
LayerCount: 2
Fore
SplineSet
461 656 m 1,0,-1
 461 642 l 2,1,2
 461 570 461 570 435.5 537.5 c 128,-1,3
 410 505 410 505 334 505 c 0,4,5
 300 505 300 505 224 529 c 1,6,-1
 224 505 l 1,7,-1
 43 505 l 1,8,-1
 43 520 l 2,9,10
 43 590 43 590 69.5 623 c 128,-1,11
 96 656 96 656 166 656 c 0,12,13
 199 656 199 656 281 632 c 1,14,-1
 281 656 l 1,15,-1
 461 656 l 1,0,-1
EndSplineSet
EndChar

StartChar: caron
Encoding: 711 711 253
Width: 500
Flags: HMW
HStem: 507 134<127 127 127 233 269 379>
LayerCount: 2
Fore
SplineSet
127 507 m 1,0,-1
 59 641 l 1,1,-1
 233 641 l 1,2,-1
 249 605 l 1,3,-1
 253 605 l 1,4,-1
 269 641 l 1,5,-1
 447 641 l 1,6,-1
 379 507 l 1,7,-1
 127 507 l 1,0,-1
EndSplineSet
EndChar

StartChar: ring
Encoding: 730 730 254
Width: 500
Flags: HMW
HStem: 501 161<210 299>
LayerCount: 2
Fore
SplineSet
154 645 m 128,-1,1
 184 662 184 662 254.5 662 c 128,-1,2
 325 662 325 662 354.5 646 c 128,-1,3
 384 630 384 630 384 581.5 c 128,-1,4
 384 533 384 533 355 517 c 128,-1,5
 326 501 326 501 255 501 c 128,-1,6
 184 501 184 501 154 517 c 128,-1,7
 124 533 124 533 124 580.5 c 128,-1,0
 124 628 124 628 154 645 c 128,-1,1
264 550 m 1,8,-1
 264 605 l 1,9,-1
 244 605 l 1,10,-1
 244 550 l 1,11,-1
 264 550 l 1,8,-1
EndSplineSet
EndChar

StartChar: dotaccent
Encoding: 729 729 255
Width: 500
Flags: HMW
HStem: 477 168<188.5 258 227 258 227 258>
LayerCount: 2
Fore
SplineSet
114 556 m 2,0,-1
 114 567 l 2,1,2
 114 645 114 645 227 645 c 2,3,-1
 258 645 l 2,4,5
 376 645 376 645 376 567 c 2,6,-1
 376 556 l 2,7,8
 376 477 376 477 258 477 c 2,9,-1
 226 477 l 2,10,11
 114 477 114 477 114 556 c 2,0,-1
EndSplineSet
EndChar

StartChar: hungarumlaut
Encoding: 733 733 256
Width: 500
Flags: HMW
HStem: 500 136<133 174 53 304 219 219 219 304 316 351>
LayerCount: 2
Fore
SplineSet
304 636 m 1,0,-1
 174 500 l 1,1,-1
 53 500 l 1,2,-1
 133 636 l 1,3,-1
 304 636 l 1,0,-1
492 636 m 1,4,-1
 351 500 l 1,5,-1
 219 500 l 1,6,-1
 316 636 l 1,7,-1
 492 636 l 1,4,-1
EndSplineSet
EndChar

StartChar: cedilla
Encoding: 184 184 257
Width: 500
Flags: HMW
HStem: -169 173<214 282>
LayerCount: 2
Fore
SplineSet
368 -79 m 0,0,1
 368 -121 368 -121 335 -145 c 128,-1,2
 302 -169 302 -169 234.5 -169 c 0,3,4
 167 -169 167 -169 107 -133 c 1,5,-1
 154 -51 l 1,6,7
 193 -78 193 -78 238 -91 c 1,8,-1
 242 -83 l 1,9,-1
 185 -58 l 1,10,11
 166 -48 166 -48 166 -31 c 0,12,13
 166 -14 166 -14 186 4 c 1,14,-1
 304 4 l 1,15,-1
 291 -13 l 1,16,-1
 291 -17 l 1,17,18
 368 -17 368 -17 368 -79 c 0,0,1
EndSplineSet
EndChar

StartChar: ogonek
Encoding: 731 731 258
Width: 500
Flags: HMW
HStem: -168 172<230 281.5>
LayerCount: 2
Fore
SplineSet
140 -93 m 0,0,1
 140 -62 140 -62 162.5 -39.5 c 128,-1,2
 185 -17 185 -17 230 4 c 1,3,-1
 354 4 l 1,4,-1
 291 -77 l 1,5,-1
 293 -80 l 1,6,7
 338 -72 338 -72 376 -54 c 1,8,-1
 394 -138 l 1,9,10
 330 -168 330 -168 247 -168 c 0,11,12
 140 -168 140 -168 140 -93 c 0,0,1
EndSplineSet
EndChar

StartChar: macron
Encoding: 175 175 259
Width: 500
Flags: HMW
HStem: 497 124<71 430 71 430>
LayerCount: 2
Fore
SplineSet
430 497 m 1,0,-1
 71 497 l 1,1,-1
 71 621 l 1,2,-1
 430 621 l 1,3,-1
 430 497 l 1,0,-1
EndSplineSet
EndChar

StartChar: breve
Encoding: 728 728 260
Width: 500
Flags: HMW
HStem: 474 165<185.5 247 263 319>
LayerCount: 2
Fore
SplineSet
247 592 m 1,0,-1
 263 592 l 1,1,-1
 263 639 l 1,2,-1
 446 639 l 1,3,4
 444 555 444 555 397.5 514.5 c 128,-1,5
 351 474 351 474 252 474 c 128,-1,6
 153 474 153 474 107 514 c 128,-1,7
 61 554 61 554 61 639 c 1,8,-1
 247 639 l 1,9,-1
 247 592 l 1,0,-1
EndSplineSet
EndChar

StartChar: asciicircum
Encoding: 94 94 261
Width: 500
Flags: HMW
HStem: 501 134<121 231 53 373 267 373 121 441 267 267>
LayerCount: 2
Fore
SplineSet
373 635 m 1,0,-1
 441 501 l 1,1,-1
 267 501 l 1,2,-1
 251 537 l 1,3,-1
 247 537 l 1,4,-1
 231 501 l 1,5,-1
 53 501 l 1,6,-1
 121 635 l 1,7,-1
 373 635 l 1,0,-1
EndSplineSet
EndChar

StartChar: asciitilde
Encoding: 126 126 262
Width: 500
Flags: HMW
HStem: 505 151<117 187 117 224 43 187 314.5 388>
LayerCount: 2
Fore
SplineSet
461 656 m 1,0,-1
 461 642 l 2,1,2
 461 570 461 570 435.5 537.5 c 128,-1,3
 410 505 410 505 334 505 c 0,4,5
 300 505 300 505 224 529 c 1,6,-1
 224 505 l 1,7,-1
 43 505 l 1,8,-1
 43 520 l 2,9,10
 43 590 43 590 69.5 623 c 128,-1,11
 96 656 96 656 166 656 c 0,12,13
 199 656 199 656 281 632 c 1,14,-1
 281 656 l 1,15,-1
 461 656 l 1,0,-1
EndSplineSet
EndChar

StartChar: bullet
Encoding: 8226 8226 265
Width: 451
Flags: HMW
HStem: 170 21G<175 278.5> 410 20G<175 278.5>
LayerCount: 2
Fore
SplineSet
72 301 m 0,0,1
 72 430 72 430 226 430 c 0,2,3
 304 430 304 430 341.5 398.5 c 128,-1,4
 379 367 379 367 379 298 c 0,5,6
 379 229 379 229 343 199.5 c 128,-1,7
 307 170 307 170 227.5 170 c 0,8,9
 148 170 148 170 110 200.5 c 128,-1,10
 72 231 72 231 72 301 c 0,0,1
EndSplineSet
EndChar

StartChar: commaaccent
Encoding: 65538 -1 266
Width: 500
Flags: HMW
HStem: -175 166<229 264 264 283 186 264>
VStem: 153 190<-89 -64 -64 -48.5 -96 -44>
LayerCount: 2
Fore
SplineSet
153 -89 m 2,0,-1
 153 -64 l 2,1,2
 153 -9 153 -9 229 -9 c 2,3,-1
 264 -9 l 2,4,5
 308 -9 308 -9 325.5 -23 c 128,-1,6
 343 -37 343 -37 343 -73 c 0,7,8
 343 -109 343 -109 331 -130 c 128,-1,9
 319 -151 319 -151 283 -175 c 1,10,-1
 186 -175 l 1,11,-1
 213 -137 l 1,12,13
 180 -137 180 -137 166.5 -127 c 128,-1,14
 153 -117 153 -117 153 -89 c 2,0,-1
EndSplineSet
EndChar

StartChar: dotaccentcmb
Encoding: 775 775 267
Width: 500
Flags: HMW
HStem: 477 168<188.5 258 227 258 227 258>
LayerCount: 2
Fore
SplineSet
114 556 m 2,0,-1
 114 567 l 2,1,2
 114 645 114 645 227 645 c 2,3,-1
 258 645 l 2,4,5
 376 645 376 645 376 567 c 2,6,-1
 376 556 l 2,7,8
 376 477 376 477 258 477 c 2,9,-1
 226 477 l 2,10,11
 114 477 114 477 114 556 c 2,0,-1
EndSplineSet
EndChar

StartChar: currency
Encoding: 164 164 268
Width: 779
Flags: HMW
HStem: 72 50<351 430> 490 52<349 434.5 349 450.5>
VStem: 161 58<289 321.5> 565 62<288.5 323 288.5 363>
LayerCount: 2
Fore
SplineSet
84 76 m 1,0,-1
 54 126 l 1,1,-1
 178 198 l 1,2,3
 161 252 161 252 161 301 c 128,-1,4
 161 350 161 350 173 395 c 1,5,-1
 48 468 l 1,6,-1
 79 521 l 1,7,-1
 199 452 l 1,8,9
 268 542 268 542 393.5 542 c 128,-1,10
 519 542 519 542 587 454 c 1,11,-1
 701 521 l 1,12,-1
 731 468 l 1,13,-1
 614 400 l 1,14,15
 627 355 627 355 627 305 c 128,-1,16
 627 255 627 255 607 197 c 1,17,-1
 727 126 l 1,18,-1
 695 75 l 1,19,-1
 575 146 l 1,20,21
 506 72 506 72 390 72 c 128,-1,22
 274 72 274 72 206 148 c 1,23,24
 163.454545455 124.363636364 163.454545455 124.363636364 84 76 c 1,0,-1
391 122 m 0,25,26
 565 122 565 122 565 306 c 0,27,28
 565 394 565 394 521.5 442 c 128,-1,29
 478 490 478 490 391 490 c 0,30,31
 219 490 219 490 219 305 c 0,32,33
 219 214 219 214 264 168 c 128,-1,34
 309 122 309 122 391 122 c 0,25,26
EndSplineSet
EndChar

StartChar: foundryicon
Encoding: 65539 -1 269
Width: 1241
Flags: HMW
HStem: 23 21G<640.5 691> 273 52<139 386 138 401 139 139 455 455 455 635 950 1151> 521 48<509.5 570 488.5 577.5 770 827.5>
VStem: 380 52<376 420.5 367 441.5> 905 52<376 421> 1151 50<157 273 273 273 325 441 157 441>
LayerCount: 2
Fore
SplineSet
186 157 m 1,0,-1
 40 300 l 1,1,-1
 186 441 l 1,2,-1
 226 409 l 1,3,-1
 138 325 l 1,4,-1
 386 325 l 1,5,6
 380 355 380 355 380 387 c 0,7,8
 380 469 380 469 422.5 519 c 128,-1,9
 465 569 465 569 535 569 c 0,10,11
 584 569 584 569 613.5 552.5 c 128,-1,12
 643 536 643 536 668 501 c 1,13,14
 714 569 714 569 804 569 c 0,15,16
 875 569 875 569 916 519 c 128,-1,17
 957 469 957 469 957 387 c 0,18,19
 957 360 957 360 950 325 c 1,20,-1
 1151 325 l 1,21,-1
 1151 441 l 1,22,-1
 1201 441 l 1,23,-1
 1201 157 l 1,24,-1
 1151 157 l 1,25,-1
 1151 273 l 1,26,-1
 935 273 l 1,27,28
 895 171 895 171 804 97 c 128,-1,29
 713 23 713 23 665.5 23 c 0,30,31
 618 23 618 23 529 96.5 c 128,-1,32
 440 170 440 170 401 273 c 1,33,-1
 139 273 l 1,34,-1
 226 188 l 1,35,-1
 186 157 l 1,0,-1
668 73 m 1,36,37
 695 77 695 77 734 103.5 c 128,-1,38
 773 130 773 130 811.5 170 c 128,-1,39
 850 210 850 210 877.5 266.5 c 128,-1,40
 905 323 905 323 905 383.5 c 0,41,42
 905 444 905 444 875 482.5 c 128,-1,43
 845 521 845 521 790 521 c 0,44,45
 707 521 707 521 676 437 c 1,46,-1
 660 437 l 1,47,48
 629 521 629 521 546 521 c 0,49,50
 492 521 492 521 462 482 c 128,-1,51
 432 443 432 443 432 376 c 0,52,53
 432 352 432 352 437 325 c 1,54,-1
 635 325 l 1,55,-1
 635 273 l 1,56,-1
 455 273 l 1,57,58
 488 196 488 196 554.5 138 c 128,-1,59
 621 80 621 80 668 73 c 1,36,37
EndSplineSet
EndChar

